<?xml version="1.0" encoding="UTF-8" standalone="no"?>
<!-- Created with Inkscape (http://www.inkscape.org/) -->

<svg
   xmlns:dc="http://purl.org/dc/elements/1.1/"
   xmlns:cc="http://creativecommons.org/ns#"
   xmlns:rdf="http://www.w3.org/1999/02/22-rdf-syntax-ns#"
   xmlns:svg="http://www.w3.org/2000/svg"
   xmlns="http://www.w3.org/2000/svg"
   xmlns:sodipodi="http://sodipodi.sourceforge.net/DTD/sodipodi-0.dtd"
   xmlns:inkscape="http://www.inkscape.org/namespaces/inkscape"
   width="117.66806mm"
   height="29.511059mm"
   viewBox="0 0 117.66806 29.511059"
   version="1.1"
   id="svg8"
   inkscape:version="0.92.2 2405546, 2018-03-11"
   sodipodi:docname="dep-example.svg">
  <defs
     id="defs2">
    <marker
       inkscape:isstock="true"
       style="overflow:visible"
       id="marker1173"
       refX="0"
       refY="0"
       orient="auto"
       inkscape:stockid="Arrow2Lend">
      <path
         transform="matrix(-1.1,0,0,-1.1,-1.1,0)"
         d="M 8.7185878,4.0337352 -2.2072895,0.01601326 8.7185884,-4.0017078 c -1.7454984,2.3720609 -1.7354408,5.6174519 -6e-7,8.035443 z"
         style="fill:#000000;fill-opacity:1;fill-rule:evenodd;stroke:#000000;stroke-width:0.625;stroke-linejoin:round;stroke-opacity:1"
         id="path1171"
         inkscape:connector-curvature="0" />
    </marker>
    <marker
       inkscape:stockid="Arrow2Lend"
       orient="auto"
       refY="0"
       refX="0"
       id="Arrow2Lend"
       style="overflow:visible"
       inkscape:isstock="true"
       inkscape:collect="always">
      <path
         id="path902"
         style="fill:#000000;fill-opacity:1;fill-rule:evenodd;stroke:#000000;stroke-width:0.625;stroke-linejoin:round;stroke-opacity:1"
         d="M 8.7185878,4.0337352 -2.2072895,0.01601326 8.7185884,-4.0017078 c -1.7454984,2.3720609 -1.7354408,5.6174519 -6e-7,8.035443 z"
         transform="matrix(-1.1,0,0,-1.1,-1.1,0)"
         inkscape:connector-curvature="0" />
    </marker>
  </defs>
  <sodipodi:namedview
     id="base"
     pagecolor="#ffffff"
     bordercolor="#666666"
     borderopacity="1.0"
     inkscape:pageopacity="0.0"
     inkscape:pageshadow="2"
     inkscape:zoom="1"
     inkscape:cx="60.65468"
     inkscape:cy="-26.660849"
     inkscape:document-units="mm"
     inkscape:current-layer="layer1"
     showgrid="false"
     inkscape:window-width="1920"
     inkscape:window-height="1051"
     inkscape:window-x="0"
     inkscape:window-y="29"
     inkscape:window-maximized="1"
     fit-margin-top="0"
     fit-margin-left="0"
     fit-margin-right="0"
     fit-margin-bottom="0" />
  <metadata
     id="metadata5">
    <rdf:RDF>
      <cc:Work
         rdf:about="">
        <dc:format>image/svg+xml</dc:format>
        <dc:type
           rdf:resource="http://purl.org/dc/dcmitype/StillImage" />
        <dc:title />
      </cc:Work>
    </rdf:RDF>
  </metadata>
  <g
     inkscape:label="Layer 1"
     inkscape:groupmode="layer"
     id="layer1"
     transform="translate(-35.643262,-68.349116)">
    <g
       aria-label="The"
       style="font-style:normal;font-weight:normal;font-size:4.23333311px;line-height:1.25;font-family:sans-serif;letter-spacing:0px;word-spacing:0px;fill:#000000;fill-opacity:1;stroke:none;stroke-width:0.26458332"
       id="flowRoot18">
      <path
         d="m 35.667285,78.899626 h 2.610693 v 0.351399 h -1.09554 v 2.734717 h -0.419613 v -2.734717 h -1.09554 z"
         style="stroke-width:0.26458332"
         id="path6243"
         inkscape:connector-curvature="0" />
      <path
         d="m 40.591015,80.588411 v 1.397331 h -0.380338 v -1.384928 q 0,-0.328662 -0.128158,-0.49196 -0.128157,-0.163297 -0.384472,-0.163297 -0.307992,0 -0.485759,0.19637 -0.177767,0.19637 -0.177767,0.535368 v 1.308447 h -0.382405 v -3.216341 h 0.382405 v 1.260905 q 0.136426,-0.208773 0.320394,-0.312126 0.186035,-0.103353 0.427881,-0.103353 0.398942,0 0.603581,0.248047 0.204638,0.24598 0.204638,0.725537 z"
         style="stroke-width:0.26458332"
         id="path6245"
         inkscape:connector-curvature="0" />
      <path
         d="m 43.334,80.733105 v 0.186035 h -1.74873 q 0.0248,0.392741 0.235644,0.599447 0.212907,0.204639 0.591179,0.204639 0.219108,0 0.423746,-0.05374 0.206706,-0.05374 0.409278,-0.16123 v 0.359668 q -0.204639,0.08682 -0.419613,0.132291 -0.214974,0.04548 -0.436149,0.04548 -0.553971,0 -0.878499,-0.322461 -0.322461,-0.322461 -0.322461,-0.872298 0,-0.568441 0.305924,-0.901237 0.307992,-0.334864 0.82889,-0.334864 0.467155,0 0.73794,0.301791 0.272851,0.299723 0.272851,0.816487 z m -0.380338,-0.111621 q -0.0041,-0.312125 -0.1757,-0.498161 -0.169499,-0.186035 -0.450619,-0.186035 -0.318327,0 -0.510563,0.179834 -0.190169,0.179834 -0.219108,0.506429 z"
         style="stroke-width:0.26458332"
         id="path6247"
         inkscape:connector-curvature="0" />
    </g>
    <g
       aria-label="girl"
       transform="matrix(0.26458333,0,0,0.26458333,17.63889,0)"
       style="font-style:normal;font-weight:normal;font-size:16px;line-height:1.25;font-family:sans-serif;letter-spacing:0px;word-spacing:0px;fill:#000000;fill-opacity:1;stroke:none"
       id="flowRoot32">
      <path
         d="m 142.15234,308.38086 q -0.57812,0.76562 -1.27343,1.125 -0.69532,0.35937 -1.60938,0.35937 -1.60156,0 -2.64844,-1.25781 -1.04687,-1.26562 -1.04687,-3.21875 0,-1.96094 1.04687,-3.21094 1.04688,-1.25781 2.64844,-1.25781 0.91406,0 1.60938,0.35938 0.69531,0.35937 1.27343,1.13281 v -1.29688 h 2.8125 v 7.86719 q 0,2.10938 -1.33593,3.21875 -1.32813,1.11719 -3.85938,1.11719 -0.82031,0 -1.58594,-0.125 -0.76562,-0.125 -1.53906,-0.38281 v -2.17969 q 0.73438,0.42187 1.4375,0.625 0.70313,0.21094 1.41406,0.21094 1.375,0 2.01563,-0.60157 0.64062,-0.60156 0.64062,-1.88281 z m -1.84375,-5.44531 q -0.86718,0 -1.35156,0.64062 -0.48437,0.64063 -0.48437,1.8125 0,1.20313 0.46875,1.82813 0.46875,0.61718 1.36718,0.61718 0.875,0 1.35938,-0.64062 0.48437,-0.64063 0.48437,-1.80469 0,-1.17187 -0.48437,-1.8125 -0.48438,-0.64062 -1.35938,-0.64062 z"
         style="font-weight:bold"
         id="path6250"
         inkscape:connector-curvature="0" />
      <path
         d="m 147.66797,301.11523 h 2.79687 v 8.75 h -2.79687 z m 0,-3.40625 h 2.79687 v 2.28125 h -2.79687 z"
         style="font-weight:bold"
         id="path6252"
         inkscape:connector-curvature="0" />
      <path
         d="m 159.66797,303.49805 q -0.36719,-0.17188 -0.73438,-0.25 -0.35937,-0.0859 -0.72656,-0.0859 -1.07812,0 -1.66406,0.69531 -0.57813,0.6875 -0.57813,1.97656 v 4.03125 h -2.79687 v -8.75 h 2.79687 v 1.4375 q 0.53907,-0.85937 1.23438,-1.25 0.70312,-0.39843 1.67969,-0.39843 0.14062,0 0.30468,0.0156 0.16407,0.008 0.47657,0.0469 z"
         style="font-weight:bold"
         id="path6254"
         inkscape:connector-curvature="0" />
      <path
         d="m 161.07422,297.70898 h 2.79687 v 12.15625 h -2.79687 z"
         style="font-weight:bold"
         id="path6256"
         inkscape:connector-curvature="0" />
    </g>
    <g
       aria-label="the"
       transform="matrix(0.26458333,0,0,0.26458333,35.27778,0)"
       style="font-style:normal;font-weight:normal;font-size:16px;line-height:1.25;font-family:sans-serif;letter-spacing:0px;word-spacing:0px;fill:#000000;fill-opacity:1;stroke:none"
       id="flowRoot40">
      <path
         d="m 137.78516,298.63086 v 2.48437 h 2.96093 v 1.11719 h -2.96093 v 4.75 q 0,1.07031 0.28906,1.375 0.29687,0.30469 1.19531,0.30469 h 1.47656 v 1.20312 h -1.47656 q -1.66406,0 -2.29687,-0.61718 -0.63282,-0.625 -0.63282,-2.26563 v -4.75 h -1.05468 v -1.11719 h 1.05468 v -2.48437 z"
         id="path6259"
         inkscape:connector-curvature="0" />
      <path
         d="m 149.91797,304.58398 v 5.28125 h -1.4375 v -5.23437 q 0,-1.24219 -0.48438,-1.85938 -0.48437,-0.61718 -1.45312,-0.61718 -1.16406,0 -1.83594,0.74218 -0.67187,0.74219 -0.67187,2.02344 v 4.94531 h -1.44532 v -12.15625 h 1.44532 v 4.76563 q 0.51562,-0.78906 1.21093,-1.17969 0.70313,-0.39062 1.61719,-0.39062 1.50781,0 2.28125,0.9375 0.77344,0.92968 0.77344,2.74218 z"
         id="path6261"
         inkscape:connector-curvature="0" />
      <path
         d="m 160.28516,305.13086 v 0.70312 h -6.60938 q 0.0937,1.48438 0.89063,2.26563 0.80468,0.77344 2.23437,0.77344 0.82813,0 1.60156,-0.20313 0.78125,-0.20312 1.54688,-0.60937 v 1.35937 q -0.77344,0.32813 -1.58594,0.5 -0.8125,0.17188 -1.64844,0.17188 -2.09375,0 -3.32031,-1.21875 -1.21875,-1.21875 -1.21875,-3.29688 0,-2.14844 1.15625,-3.40625 1.16406,-1.26562 3.13281,-1.26562 1.76563,0 2.78907,1.14062 1.03125,1.13281 1.03125,3.08594 z m -1.4375,-0.42188 q -0.0156,-1.17968 -0.66407,-1.88281 -0.64062,-0.70312 -1.70312,-0.70312 -1.20313,0 -1.92969,0.67968 -0.71875,0.67969 -0.82812,1.91407 z"
         id="path6263"
         inkscape:connector-curvature="0" />
    </g>
    <g
       aria-label="boys"
       transform="matrix(0.26458333,0,0,0.26458333,52.91667,0)"
       style="font-style:normal;font-weight:normal;font-size:16px;line-height:1.25;font-family:sans-serif;letter-spacing:0px;word-spacing:0px;fill:#000000;fill-opacity:1;stroke:none"
       id="flowRoot48">
      <path
         d="m 142.64453,305.49805 q 0,-1.58594 -0.65625,-2.48438 -0.64844,-0.90625 -1.78906,-0.90625 -1.14063,0 -1.79688,0.90625 -0.64843,0.89844 -0.64843,2.48438 0,1.58593 0.64843,2.49218 0.65625,0.89844 1.79688,0.89844 1.14062,0 1.78906,-0.89844 0.65625,-0.90625 0.65625,-2.49218 z m -4.89062,-3.05469 q 0.45312,-0.78125 1.14062,-1.15625 0.69531,-0.38281 1.65625,-0.38281 1.59375,0 2.58594,1.26562 1,1.26563 1,3.32813 0,2.0625 -1,3.32812 -0.99219,1.26563 -2.58594,1.26563 -0.96094,0 -1.65625,-0.375 -0.6875,-0.38282 -1.14062,-1.16407 v 1.3125 h -1.44532 v -12.15625 h 1.44532 z"
         id="path6266"
         inkscape:connector-curvature="0" />
      <path
         d="m 149.91016,302.12305 q -1.15625,0 -1.82813,0.90625 -0.67187,0.89843 -0.67187,2.46875 0,1.57031 0.66406,2.47656 0.67187,0.89844 1.83594,0.89844 1.14843,0 1.82031,-0.90625 0.67187,-0.90625 0.67187,-2.46875 0,-1.55469 -0.67187,-2.46094 -0.67188,-0.91406 -1.82031,-0.91406 z m 0,-1.21875 q 1.875,0 2.94531,1.21875 1.07031,1.21875 1.07031,3.375 0,2.14843 -1.07031,3.375 -1.07031,1.21875 -2.94531,1.21875 -1.88282,0 -2.95313,-1.21875 -1.0625,-1.22657 -1.0625,-3.375 0,-2.15625 1.0625,-3.375 1.07031,-1.21875 2.95313,-1.21875 z"
         id="path6268"
         inkscape:connector-curvature="0" />
      <path
         d="m 159.94141,310.67773 q -0.60938,1.5625 -1.1875,2.03907 -0.57813,0.47656 -1.54688,0.47656 h -1.14844 v -1.20313 h 0.84375 q 0.59375,0 0.92188,-0.28125 0.32812,-0.28125 0.72656,-1.32812 l 0.25781,-0.65625 -3.53906,-8.60938 h 1.52344 l 2.73437,6.84375 2.73438,-6.84375 h 1.52344 z"
         id="path6270"
         inkscape:connector-curvature="0" />
      <path
         d="m 171.34766,301.37305 v 1.35937 q -0.60938,-0.3125 -1.26563,-0.46875 -0.65625,-0.15625 -1.35937,-0.15625 -1.07032,0 -1.60938,0.32813 -0.53125,0.32812 -0.53125,0.98437 0,0.5 0.38281,0.78906 0.38282,0.28125 1.53907,0.53907 l 0.49218,0.10937 q 1.53125,0.32813 2.17188,0.92969 0.64844,0.59375 0.64844,1.66406 0,1.21875 -0.96875,1.92969 -0.96094,0.71094 -2.64844,0.71094 -0.70313,0 -1.46875,-0.14063 -0.75781,-0.13281 -1.60156,-0.40625 v -1.48437 q 0.79687,0.41406 1.57031,0.625 0.77344,0.20312 1.53125,0.20312 1.01562,0 1.5625,-0.34375 0.54687,-0.35156 0.54687,-0.98437 0,-0.58594 -0.39843,-0.89844 -0.39063,-0.3125 -1.72657,-0.60156 l -0.5,-0.11719 q -1.33593,-0.28125 -1.92968,-0.85938 -0.59375,-0.58593 -0.59375,-1.60156 0,-1.23437 0.875,-1.90625 0.875,-0.67187 2.48437,-0.67187 0.79688,0 1.5,0.11718 0.70313,0.11719 1.29688,0.35157 z"
         id="path6272"
         inkscape:connector-curvature="0" />
    </g>
    <g
       aria-label="like"
       transform="matrix(0.26458333,0,0,0.26458333,70.55556,0)"
       style="font-style:normal;font-weight:normal;font-size:16px;line-height:1.25;font-family:sans-serif;letter-spacing:0px;word-spacing:0px;fill:#000000;fill-opacity:1;stroke:none"
       id="flowRoot56">
      <path
         d="m 136.36328,297.70898 h 1.4375 v 12.15625 h -1.4375 z"
         id="path6275"
         inkscape:connector-curvature="0" />
      <path
         d="m 140.80078,301.11523 h 1.4375 v 8.75 h -1.4375 z m 0,-3.40625 h 1.4375 v 1.82032 h -1.4375 z"
         id="path6277"
         inkscape:connector-curvature="0" />
      <path
         d="m 145.18359,297.70898 h 1.44532 v 7.17969 l 4.28906,-3.77344 h 1.83594 l -4.64063,4.09375 4.83594,4.65625 h -1.875 l -4.44531,-4.27343 v 4.27343 h -1.44532 z"
         id="path6279"
         inkscape:connector-curvature="0" />
      <path
         d="m 161.44141,305.13086 v 0.70312 h -6.60938 q 0.0937,1.48438 0.89063,2.26563 0.80468,0.77344 2.23437,0.77344 0.82813,0 1.60156,-0.20313 0.78125,-0.20312 1.54688,-0.60937 v 1.35937 q -0.77344,0.32813 -1.58594,0.5 -0.8125,0.17188 -1.64844,0.17188 -2.09375,0 -3.32031,-1.21875 -1.21875,-1.21875 -1.21875,-3.29688 0,-2.14844 1.15625,-3.40625 1.16406,-1.26562 3.13281,-1.26562 1.76563,0 2.78907,1.14062 1.03125,1.13281 1.03125,3.08594 z m -1.4375,-0.42188 q -0.0156,-1.17968 -0.66407,-1.88281 -0.64062,-0.70312 -1.70312,-0.70312 -1.20313,0 -1.92969,0.67968 -0.71875,0.67969 -0.82812,1.91407 z"
         id="path6281"
         inkscape:connector-curvature="0" />
    </g>
    <g
       aria-label="often"
       transform="matrix(0.26458333,0,0,0.26458333,88.19445,0)"
       style="font-style:normal;font-weight:normal;font-size:16px;line-height:1.25;font-family:sans-serif;letter-spacing:0px;word-spacing:0px;fill:#000000;fill-opacity:1;stroke:none"
       id="flowRoot64">
      <path
         d="m 139.75391,302.12305 q -1.15625,0 -1.82813,0.90625 -0.67187,0.89843 -0.67187,2.46875 0,1.57031 0.66406,2.47656 0.67187,0.89844 1.83594,0.89844 1.14843,0 1.82031,-0.90625 0.67187,-0.90625 0.67187,-2.46875 0,-1.55469 -0.67187,-2.46094 -0.67188,-0.91406 -1.82031,-0.91406 z m 0,-1.21875 q 1.875,0 2.94531,1.21875 1.07031,1.21875 1.07031,3.375 0,2.14843 -1.07031,3.375 -1.07031,1.21875 -2.94531,1.21875 -1.88282,0 -2.95313,-1.21875 -1.0625,-1.22657 -1.0625,-3.375 0,-2.15625 1.0625,-3.375 1.07031,-1.21875 2.95313,-1.21875 z"
         id="path6284"
         inkscape:connector-curvature="0" />
      <path
         d="m 150.57422,297.70898 v 1.19532 h -1.375 q -0.77344,0 -1.07813,0.3125 -0.29687,0.3125 -0.29687,1.125 v 0.77343 h 2.36719 v 1.11719 h -2.36719 v 7.63281 h -1.44531 v -7.63281 h -1.375 v -1.11719 h 1.375 v -0.60937 q 0,-1.46094 0.67968,-2.125 0.67969,-0.67188 2.15625,-0.67188 z"
         id="path6286"
         inkscape:connector-curvature="0" />
      <path
         d="m 152.91016,298.63086 v 2.48437 h 2.96093 v 1.11719 h -2.96093 v 4.75 q 0,1.07031 0.28906,1.375 0.29687,0.30469 1.19531,0.30469 h 1.47656 v 1.20312 h -1.47656 q -1.66406,0 -2.29687,-0.61718 -0.63282,-0.625 -0.63282,-2.26563 v -4.75 h -1.05468 v -1.11719 h 1.05468 v -2.48437 z"
         id="path6288"
         inkscape:connector-curvature="0" />
      <path
         d="m 165.25391,305.13086 v 0.70312 h -6.60938 q 0.0937,1.48438 0.89063,2.26563 0.80468,0.77344 2.23437,0.77344 0.82813,0 1.60156,-0.20313 0.78125,-0.20312 1.54688,-0.60937 v 1.35937 q -0.77344,0.32813 -1.58594,0.5 -0.8125,0.17188 -1.64844,0.17188 -2.09375,0 -3.32031,-1.21875 -1.21875,-1.21875 -1.21875,-3.29688 0,-2.14844 1.15625,-3.40625 1.16406,-1.26562 3.13281,-1.26562 1.76563,0 2.78907,1.14062 1.03125,1.13281 1.03125,3.08594 z m -1.4375,-0.42188 q -0.0156,-1.17968 -0.66407,-1.88281 -0.64062,-0.70312 -1.70312,-0.70312 -1.20313,0 -1.92969,0.67968 -0.71875,0.67969 -0.82812,1.91407 z"
         id="path6290"
         inkscape:connector-curvature="0" />
      <path
         d="m 174.88672,304.58398 v 5.28125 h -1.4375 v -5.23437 q 0,-1.24219 -0.48438,-1.85938 -0.48437,-0.61718 -1.45312,-0.61718 -1.16406,0 -1.83594,0.74218 -0.67187,0.74219 -0.67187,2.02344 v 4.94531 h -1.44532 v -8.75 h 1.44532 v 1.35938 q 0.51562,-0.78906 1.21093,-1.17969 0.70313,-0.39062 1.61719,-0.39062 1.50781,0 2.28125,0.9375 0.77344,0.92968 0.77344,2.74218 z"
         id="path6292"
         inkscape:connector-curvature="0" />
    </g>
    <g
       aria-label="goes"
       transform="matrix(0.26458333,0,0,0.26458333,105.83334,0)"
       style="font-style:normal;font-weight:normal;font-size:16px;line-height:1.25;font-family:sans-serif;letter-spacing:0px;word-spacing:0px;fill:#000000;fill-opacity:1;stroke:none"
       id="flowRoot72">
      <path
         d="m 142.15234,308.38086 q -0.57812,0.76562 -1.27343,1.125 -0.69532,0.35937 -1.60938,0.35937 -1.60156,0 -2.64844,-1.25781 -1.04687,-1.26562 -1.04687,-3.21875 0,-1.96094 1.04687,-3.21094 1.04688,-1.25781 2.64844,-1.25781 0.91406,0 1.60938,0.35938 0.69531,0.35937 1.27343,1.13281 v -1.29688 h 2.8125 v 7.86719 q 0,2.10938 -1.33593,3.21875 -1.32813,1.11719 -3.85938,1.11719 -0.82031,0 -1.58594,-0.125 -0.76562,-0.125 -1.53906,-0.38281 v -2.17969 q 0.73438,0.42187 1.4375,0.625 0.70313,0.21094 1.41406,0.21094 1.375,0 2.01563,-0.60157 0.64062,-0.60156 0.64062,-1.88281 z m -1.84375,-5.44531 q -0.86718,0 -1.35156,0.64062 -0.48437,0.64063 -0.48437,1.8125 0,1.20313 0.46875,1.82813 0.46875,0.61718 1.36718,0.61718 0.875,0 1.35938,-0.64062 0.48437,-0.64063 0.48437,-1.80469 0,-1.17187 -0.48437,-1.8125 -0.48438,-0.64062 -1.35938,-0.64062 z"
         style="font-weight:bold"
         id="path6295"
         inkscape:connector-curvature="0" />
      <path
         d="m 151.83203,302.9043 q -0.92969,0 -1.42187,0.67187 -0.48438,0.66406 -0.48438,1.92188 0,1.25781 0.48438,1.92968 0.49218,0.66407 1.42187,0.66407 0.91406,0 1.39844,-0.66407 0.48437,-0.67187 0.48437,-1.92968 0,-1.25782 -0.48437,-1.92188 -0.48438,-0.67187 -1.39844,-0.67187 z m 0,-2 q 2.25781,0 3.52344,1.21875 1.27344,1.21875 1.27344,3.375 0,2.15625 -1.27344,3.375 -1.26563,1.21875 -3.52344,1.21875 -2.26562,0 -3.54687,-1.21875 -1.27344,-1.21875 -1.27344,-3.375 0,-2.15625 1.27344,-3.375 1.28125,-1.21875 3.54687,-1.21875 z"
         style="font-weight:bold"
         id="path6297"
         inkscape:connector-curvature="0" />
      <path
         d="m 167.40234,305.4668 v 0.79687 h -6.53906 q 0.10156,0.98438 0.71094,1.47656 0.60937,0.49219 1.70312,0.49219 0.88282,0 1.80469,-0.25781 0.92969,-0.26563 1.90625,-0.79688 v 2.15625 q -0.99219,0.375 -1.98437,0.5625 -0.99219,0.19532 -1.98438,0.19532 -2.375,0 -3.69531,-1.20313 -1.3125,-1.21094 -1.3125,-3.39062 0,-2.14063 1.28906,-3.36719 1.29688,-1.22656 3.5625,-1.22656 2.0625,0 3.29688,1.24218 1.24218,1.24219 1.24218,3.32032 z m -2.875,-0.92969 q 0,-0.79688 -0.46875,-1.28125 -0.46093,-0.49219 -1.21093,-0.49219 -0.8125,0 -1.32032,0.46094 -0.50781,0.45312 -0.63281,1.3125 z"
         style="font-weight:bold"
         id="path6299"
         inkscape:connector-curvature="0" />
      <path
         d="m 176.34766,301.38867 v 2.125 q -0.89844,-0.375 -1.73438,-0.5625 -0.83594,-0.1875 -1.57812,-0.1875 -0.79688,0 -1.1875,0.20313 -0.38282,0.19531 -0.38282,0.60937 0,0.33594 0.28907,0.51563 0.29687,0.17968 1.05468,0.26562 l 0.49219,0.0703 q 2.14844,0.27344 2.89063,0.89844 0.74218,0.625 0.74218,1.96094 0,1.39844 -1.03125,2.10156 -1.03125,0.70313 -3.07812,0.70313 -0.86719,0 -1.79688,-0.14063 -0.92187,-0.13281 -1.89843,-0.40625 v -2.125 q 0.83593,0.40625 1.71093,0.60938 0.88282,0.20312 1.78907,0.20312 0.82031,0 1.23437,-0.22656 0.41406,-0.22656 0.41406,-0.67188 0,-0.375 -0.28906,-0.55468 -0.28125,-0.1875 -1.13281,-0.28907 l -0.49219,-0.0625 q -1.86719,-0.23437 -2.61719,-0.86718 -0.75,-0.63282 -0.75,-1.92188 0,-1.39062 0.95313,-2.0625 0.95312,-0.67187 2.92187,-0.67187 0.77344,0 1.625,0.11718 0.85157,0.11719 1.85157,0.36719 z"
         style="font-weight:bold"
         id="path6301"
         inkscape:connector-curvature="0" />
    </g>
    <path
       style="fill:none;stroke:#000000;stroke-width:0.26499999;stroke-linecap:butt;stroke-linejoin:miter;stroke-miterlimit:4;stroke-dasharray:none;stroke-opacity:1;marker-end:url(#Arrow2Lend)"
       d="m 147.1265,77.176184 v -6.815373 c 0,0 0.19566,-1.879195 -0.50352,-1.879195 H 57.992115 c 0,0 -1.707238,0.243573 -1.67459,1.674588 0.03379,1.481112 0,7.554521 0,7.554521"
       id="path74"
       inkscape:connector-curvature="0"
       sodipodi:nodetypes="ccscsc" />
    <path
       sodipodi:nodetypes="ccscsc"
       inkscape:connector-curvature="0"
       id="path1169"
       d="m 113.79686,83.108539 v 3.786457 c 0,0 0.096,1.044036 -0.24682,1.044036 H 70.104313 c 0,0 -0.836866,-0.135323 -0.820862,-0.930361 0.01656,-0.822871 0,-4.19711 0,-4.19711"
       style="fill:none;stroke:#000000;stroke-width:0.26458332;stroke-linecap:butt;stroke-linejoin:miter;stroke-miterlimit:4;stroke-dasharray:none;stroke-opacity:1" />
    <path
       style="fill:none;stroke:#000000;stroke-width:0.26458332;stroke-linecap:butt;stroke-linejoin:miter;stroke-miterlimit:4;stroke-dasharray:none;stroke-opacity:1"
       d="m 113.75928,88.392715 v 3.472263 c 0,0 0.16819,0.957404 -0.4324,0.957404 H 37.213999 c 0,0 -1.466112,-0.124094 -1.438074,-0.853161 0.02901,-0.754591 0,-3.848842 0,-3.848842"
       id="path1205"
       inkscape:connector-curvature="0"
       sodipodi:nodetypes="ccscsc" />
    <path
       style="fill:none;stroke:#000000;stroke-width:0.26458332;stroke-linecap:butt;stroke-linejoin:miter;stroke-miterlimit:4;stroke-dasharray:none;stroke-opacity:1"
       d="m 153.17066,88.160526 v 3.786457 c 0,0 0.0647,1.044036 -0.16637,1.044036 h -29.2856 c 0,0 -0.56411,-0.135323 -0.55333,-0.930361 0.0112,-0.822871 0,-4.19711 0,-4.19711"
       id="path1207"
       inkscape:connector-curvature="0"
       sodipodi:nodetypes="ccscsc" />
    <g
       aria-label="NP"
       transform="matrix(0.26458333,0,0,0.26458333,35.27778,15.875)"
       style="font-style:normal;font-weight:normal;font-size:16px;line-height:1.25;font-family:sans-serif;letter-spacing:0px;word-spacing:0px;fill:#000000;fill-opacity:1;stroke:none"
       id="flowRoot1215">
      <path
         d="m 136.42578,298.20117 h 2.125 l 5.17188,9.75781 v -9.75781 h 1.53125 v 11.66406 h -2.125 l -5.17188,-9.75781 v 9.75781 h -1.53125 z"
         id="path6304"
         inkscape:connector-curvature="0" />
      <path
         d="m 149.97266,299.49805 v 4.38281 h 1.98437 q 1.10156,0 1.70313,-0.57031 0.60156,-0.57032 0.60156,-1.625 0,-1.04688 -0.60156,-1.61719 -0.60157,-0.57031 -1.70313,-0.57031 z m -1.57813,-1.29688 h 3.5625 q 1.96094,0 2.96094,0.89063 1.00781,0.88281 1.00781,2.59375 0,1.72656 -1.00781,2.60937 -1,0.88281 -2.96094,0.88281 h -1.98437 v 4.6875 h -1.57813 z"
         id="path6306"
         inkscape:connector-curvature="0" />
    </g>
    <g
       aria-label="VP"
       transform="matrix(0.26458333,0,0,0.26458333,98.777784,15.875)"
       style="font-style:normal;font-weight:normal;font-size:16px;line-height:1.25;font-family:sans-serif;letter-spacing:0px;word-spacing:0px;fill:#000000;fill-opacity:1;stroke:none"
       id="flowRoot1223">
      <path
         d="m 139.43359,309.86523 -4.45312,-11.66406 h 1.64844 l 3.69531,9.82031 3.70312,-9.82031 h 1.64063 l -4.44531,11.66406 z"
         id="path6309"
         inkscape:connector-curvature="0" />
      <path
         d="m 148.94141,299.49805 v 4.38281 h 1.98437 q 1.10156,0 1.70313,-0.57031 0.60156,-0.57032 0.60156,-1.625 0,-1.04688 -0.60156,-1.61719 -0.60157,-0.57031 -1.70313,-0.57031 z m -1.57813,-1.29688 h 3.5625 q 1.96094,0 2.96094,0.89063 1.00781,0.88281 1.00781,2.59375 0,1.72656 -1.00781,2.60937 -1,0.88281 -2.96094,0.88281 h -1.98437 v 4.6875 h -1.57813 z"
         id="path6311"
         inkscape:connector-curvature="0" />
    </g>
    <g
       aria-label="S"
       transform="matrix(0.26458333,0,0,0.26458333,52.211115,10.054166)"
       style="font-style:normal;font-weight:normal;font-size:16px;line-height:1.25;font-family:sans-serif;letter-spacing:0px;word-spacing:0px;fill:#000000;fill-opacity:1;stroke:none"
       id="flowRoot1231">
      <path
         d="m 143.41797,298.58398 v 1.53907 q -0.89844,-0.42969 -1.69531,-0.64063 -0.79688,-0.21094 -1.53907,-0.21094 -1.28906,0 -1.99218,0.5 -0.69532,0.5 -0.69532,1.42188 0,0.77344 0.46094,1.17187 0.46875,0.39063 1.76563,0.63282 l 0.95312,0.19531 q 1.76563,0.33594 2.60156,1.1875 0.84375,0.84375 0.84375,2.26562 0,1.69532 -1.14062,2.57032 -1.13281,0.875 -3.32813,0.875 -0.82812,0 -1.76562,-0.1875 -0.92969,-0.1875 -1.92969,-0.55469 v -1.625 q 0.96094,0.53906 1.88281,0.8125 0.92188,0.27344 1.8125,0.27344 1.35157,0 2.08594,-0.53125 0.73438,-0.53125 0.73438,-1.51563 0,-0.85937 -0.53125,-1.34375 -0.52344,-0.48437 -1.72657,-0.72656 l -0.96093,-0.1875 q -1.76563,-0.35156 -2.55469,-1.10156 -0.78906,-0.75 -0.78906,-2.08594 0,-1.54688 1.08593,-2.4375 1.09375,-0.89063 3.00782,-0.89063 0.82031,0 1.67187,0.14844 0.85156,0.14844 1.74219,0.44531 z"
         id="path6314"
         inkscape:connector-curvature="0" />
    </g>
  </g>
</svg>
