<?xml version="1.0" encoding="utf-8" standalone="no"?>
<!DOCTYPE svg PUBLIC "-//W3C//DTD SVG 1.1//EN"
  "http://www.w3.org/Graphics/SVG/1.1/DTD/svg11.dtd">
<!-- Created with matplotlib (http://matplotlib.org/) -->
<svg height="432pt" version="1.1" viewBox="0 0 1152 432" width="1152pt" xmlns="http://www.w3.org/2000/svg" xmlns:xlink="http://www.w3.org/1999/xlink">
 <defs>
  <style type="text/css">
*{stroke-linecap:butt;stroke-linejoin:round;}
  </style>
 </defs>
 <g id="figure_1">
  <g id="patch_1">
   <path d="M 0 432 
L 1152 432 
L 1152 0 
L 0 0 
z
" style="fill:#ffffff;"/>
  </g>
  <g id="axes_1">
   <g id="patch_2">
    <path d="M 144 378 
L 1036.8 378 
L 1036.8 51.84 
L 144 51.84 
z
" style="fill:#ffffff;"/>
   </g>
   <g id="matplotlib.axis_1">
    <g id="xtick_1">
     <g id="line2d_1">
      <defs>
       <path d="M 0 0 
L 0 3.5 
" id="m759150a83a" style="stroke:#000000;stroke-width:0.8;"/>
      </defs>
      <g>
       <use style="stroke:#000000;stroke-width:0.8;" x="184.581818" xlink:href="#m759150a83a" y="378"/>
      </g>
     </g>
    </g>
    <g id="xtick_2">
     <g id="line2d_2">
      <g>
       <use style="stroke:#000000;stroke-width:0.8;" x="274.763636" xlink:href="#m759150a83a" y="378"/>
      </g>
     </g>
    </g>
    <g id="xtick_3">
     <g id="line2d_3">
      <g>
       <use style="stroke:#000000;stroke-width:0.8;" x="364.945455" xlink:href="#m759150a83a" y="378"/>
      </g>
     </g>
     <g id="text_1">
      <!-- head -->
      <defs>
       <path d="M 54.890625 33.015625 
L 54.890625 0 
L 45.90625 0 
L 45.90625 32.71875 
Q 45.90625 40.484375 42.875 44.328125 
Q 39.84375 48.1875 33.796875 48.1875 
Q 26.515625 48.1875 22.3125 43.546875 
Q 18.109375 38.921875 18.109375 30.90625 
L 18.109375 0 
L 9.078125 0 
L 9.078125 75.984375 
L 18.109375 75.984375 
L 18.109375 46.1875 
Q 21.34375 51.125 25.703125 53.5625 
Q 30.078125 56 35.796875 56 
Q 45.21875 56 50.046875 50.171875 
Q 54.890625 44.34375 54.890625 33.015625 
z
" id="DejaVuSans-68"/>
       <path d="M 56.203125 29.59375 
L 56.203125 25.203125 
L 14.890625 25.203125 
Q 15.484375 15.921875 20.484375 11.0625 
Q 25.484375 6.203125 34.421875 6.203125 
Q 39.59375 6.203125 44.453125 7.46875 
Q 49.3125 8.734375 54.109375 11.28125 
L 54.109375 2.78125 
Q 49.265625 0.734375 44.1875 -0.34375 
Q 39.109375 -1.421875 33.890625 -1.421875 
Q 20.796875 -1.421875 13.15625 6.1875 
Q 5.515625 13.8125 5.515625 26.8125 
Q 5.515625 40.234375 12.765625 48.109375 
Q 20.015625 56 32.328125 56 
Q 43.359375 56 49.78125 48.890625 
Q 56.203125 41.796875 56.203125 29.59375 
z
M 47.21875 32.234375 
Q 47.125 39.59375 43.09375 43.984375 
Q 39.0625 48.390625 32.421875 48.390625 
Q 24.90625 48.390625 20.390625 44.140625 
Q 15.875 39.890625 15.1875 32.171875 
z
" id="DejaVuSans-65"/>
       <path d="M 34.28125 27.484375 
Q 23.390625 27.484375 19.1875 25 
Q 14.984375 22.515625 14.984375 16.5 
Q 14.984375 11.71875 18.140625 8.90625 
Q 21.296875 6.109375 26.703125 6.109375 
Q 34.1875 6.109375 38.703125 11.40625 
Q 43.21875 16.703125 43.21875 25.484375 
L 43.21875 27.484375 
z
M 52.203125 31.203125 
L 52.203125 0 
L 43.21875 0 
L 43.21875 8.296875 
Q 40.140625 3.328125 35.546875 0.953125 
Q 30.953125 -1.421875 24.3125 -1.421875 
Q 15.921875 -1.421875 10.953125 3.296875 
Q 6 8.015625 6 15.921875 
Q 6 25.140625 12.171875 29.828125 
Q 18.359375 34.515625 30.609375 34.515625 
L 43.21875 34.515625 
L 43.21875 35.40625 
Q 43.21875 41.609375 39.140625 45 
Q 35.0625 48.390625 27.6875 48.390625 
Q 23 48.390625 18.546875 47.265625 
Q 14.109375 46.140625 10.015625 43.890625 
L 10.015625 52.203125 
Q 14.9375 54.109375 19.578125 55.046875 
Q 24.21875 56 28.609375 56 
Q 40.484375 56 46.34375 49.84375 
Q 52.203125 43.703125 52.203125 31.203125 
z
" id="DejaVuSans-61"/>
       <path d="M 45.40625 46.390625 
L 45.40625 75.984375 
L 54.390625 75.984375 
L 54.390625 0 
L 45.40625 0 
L 45.40625 8.203125 
Q 42.578125 3.328125 38.25 0.953125 
Q 33.9375 -1.421875 27.875 -1.421875 
Q 17.96875 -1.421875 11.734375 6.484375 
Q 5.515625 14.40625 5.515625 27.296875 
Q 5.515625 40.1875 11.734375 48.09375 
Q 17.96875 56 27.875 56 
Q 33.9375 56 38.25 53.625 
Q 42.578125 51.265625 45.40625 46.390625 
z
M 14.796875 27.296875 
Q 14.796875 17.390625 18.875 11.75 
Q 22.953125 6.109375 30.078125 6.109375 
Q 37.203125 6.109375 41.296875 11.75 
Q 45.40625 17.390625 45.40625 27.296875 
Q 45.40625 37.203125 41.296875 42.84375 
Q 37.203125 48.484375 30.078125 48.484375 
Q 22.953125 48.484375 18.875 42.84375 
Q 14.796875 37.203125 14.796875 27.296875 
z
" id="DejaVuSans-64"/>
      </defs>
      <g transform="translate(373.22358 459.901563)rotate(-90)scale(0.3 -0.3)">
       <use xlink:href="#DejaVuSans-68"/>
       <use x="63.378906" xlink:href="#DejaVuSans-65"/>
       <use x="124.902344" xlink:href="#DejaVuSans-61"/>
       <use x="186.181641" xlink:href="#DejaVuSans-64"/>
      </g>
     </g>
    </g>
    <g id="xtick_4">
     <g id="line2d_4">
      <g>
       <use style="stroke:#000000;stroke-width:0.8;" x="455.127273" xlink:href="#m759150a83a" y="378"/>
      </g>
     </g>
     <g id="text_2">
      <!-- +1 -->
      <defs>
       <path d="M 46 62.703125 
L 46 35.5 
L 73.1875 35.5 
L 73.1875 27.203125 
L 46 27.203125 
L 46 0 
L 37.796875 0 
L 37.796875 27.203125 
L 10.59375 27.203125 
L 10.59375 35.5 
L 37.796875 35.5 
L 37.796875 62.703125 
z
" id="DejaVuSans-2b"/>
       <path d="M 12.40625 8.296875 
L 28.515625 8.296875 
L 28.515625 63.921875 
L 10.984375 60.40625 
L 10.984375 69.390625 
L 28.421875 72.90625 
L 38.28125 72.90625 
L 38.28125 8.296875 
L 54.390625 8.296875 
L 54.390625 0 
L 12.40625 0 
z
" id="DejaVuSans-31"/>
      </defs>
      <g transform="translate(463.405398 429.226562)rotate(-90)scale(0.3 -0.3)">
       <use xlink:href="#DejaVuSans-2b"/>
       <use x="83.789062" xlink:href="#DejaVuSans-31"/>
      </g>
     </g>
    </g>
    <g id="xtick_5">
     <g id="line2d_5">
      <g>
       <use style="stroke:#000000;stroke-width:0.8;" x="545.309091" xlink:href="#m759150a83a" y="378"/>
      </g>
     </g>
     <g id="text_3">
      <!-- +2 -->
      <defs>
       <path d="M 19.1875 8.296875 
L 53.609375 8.296875 
L 53.609375 0 
L 7.328125 0 
L 7.328125 8.296875 
Q 12.9375 14.109375 22.625 23.890625 
Q 32.328125 33.6875 34.8125 36.53125 
Q 39.546875 41.84375 41.421875 45.53125 
Q 43.3125 49.21875 43.3125 52.78125 
Q 43.3125 58.59375 39.234375 62.25 
Q 35.15625 65.921875 28.609375 65.921875 
Q 23.96875 65.921875 18.8125 64.3125 
Q 13.671875 62.703125 7.8125 59.421875 
L 7.8125 69.390625 
Q 13.765625 71.78125 18.9375 73 
Q 24.125 74.21875 28.421875 74.21875 
Q 39.75 74.21875 46.484375 68.546875 
Q 53.21875 62.890625 53.21875 53.421875 
Q 53.21875 48.921875 51.53125 44.890625 
Q 49.859375 40.875 45.40625 35.40625 
Q 44.1875 33.984375 37.640625 27.21875 
Q 31.109375 20.453125 19.1875 8.296875 
z
" id="DejaVuSans-32"/>
      </defs>
      <g transform="translate(553.587216 429.226562)rotate(-90)scale(0.3 -0.3)">
       <use xlink:href="#DejaVuSans-2b"/>
       <use x="83.789062" xlink:href="#DejaVuSans-32"/>
      </g>
     </g>
    </g>
    <g id="xtick_6">
     <g id="line2d_6">
      <g>
       <use style="stroke:#000000;stroke-width:0.8;" x="635.490909" xlink:href="#m759150a83a" y="378"/>
      </g>
     </g>
     <g id="text_4">
      <!-- +3 -->
      <defs>
       <path d="M 40.578125 39.3125 
Q 47.65625 37.796875 51.625 33 
Q 55.609375 28.21875 55.609375 21.1875 
Q 55.609375 10.40625 48.1875 4.484375 
Q 40.765625 -1.421875 27.09375 -1.421875 
Q 22.515625 -1.421875 17.65625 -0.515625 
Q 12.796875 0.390625 7.625 2.203125 
L 7.625 11.71875 
Q 11.71875 9.328125 16.59375 8.109375 
Q 21.484375 6.890625 26.8125 6.890625 
Q 36.078125 6.890625 40.9375 10.546875 
Q 45.796875 14.203125 45.796875 21.1875 
Q 45.796875 27.640625 41.28125 31.265625 
Q 36.765625 34.90625 28.71875 34.90625 
L 20.21875 34.90625 
L 20.21875 43.015625 
L 29.109375 43.015625 
Q 36.375 43.015625 40.234375 45.921875 
Q 44.09375 48.828125 44.09375 54.296875 
Q 44.09375 59.90625 40.109375 62.90625 
Q 36.140625 65.921875 28.71875 65.921875 
Q 24.65625 65.921875 20.015625 65.03125 
Q 15.375 64.15625 9.8125 62.3125 
L 9.8125 71.09375 
Q 15.4375 72.65625 20.34375 73.4375 
Q 25.25 74.21875 29.59375 74.21875 
Q 40.828125 74.21875 47.359375 69.109375 
Q 53.90625 64.015625 53.90625 55.328125 
Q 53.90625 49.265625 50.4375 45.09375 
Q 46.96875 40.921875 40.578125 39.3125 
z
" id="DejaVuSans-33"/>
      </defs>
      <g transform="translate(643.769034 429.226562)rotate(-90)scale(0.3 -0.3)">
       <use xlink:href="#DejaVuSans-2b"/>
       <use x="83.789062" xlink:href="#DejaVuSans-33"/>
      </g>
     </g>
    </g>
    <g id="xtick_7">
     <g id="line2d_7">
      <g>
       <use style="stroke:#000000;stroke-width:0.8;" x="725.672727" xlink:href="#m759150a83a" y="378"/>
      </g>
     </g>
     <g id="text_5">
      <!-- -3 -->
      <defs>
       <path d="M 4.890625 31.390625 
L 31.203125 31.390625 
L 31.203125 23.390625 
L 4.890625 23.390625 
z
" id="DejaVuSans-2d"/>
      </defs>
      <g transform="translate(733.950852 414.910937)rotate(-90)scale(0.3 -0.3)">
       <use xlink:href="#DejaVuSans-2d"/>
       <use x="36.083984" xlink:href="#DejaVuSans-33"/>
      </g>
     </g>
    </g>
    <g id="xtick_8">
     <g id="line2d_8">
      <g>
       <use style="stroke:#000000;stroke-width:0.8;" x="815.854545" xlink:href="#m759150a83a" y="378"/>
      </g>
     </g>
     <g id="text_6">
      <!-- -2 -->
      <g transform="translate(824.13267 414.910937)rotate(-90)scale(0.3 -0.3)">
       <use xlink:href="#DejaVuSans-2d"/>
       <use x="36.083984" xlink:href="#DejaVuSans-32"/>
      </g>
     </g>
    </g>
    <g id="xtick_9">
     <g id="line2d_9">
      <g>
       <use style="stroke:#000000;stroke-width:0.8;" x="906.036364" xlink:href="#m759150a83a" y="378"/>
      </g>
     </g>
     <g id="text_7">
      <!-- -1 -->
      <g transform="translate(914.314489 414.910937)rotate(-90)scale(0.3 -0.3)">
       <use xlink:href="#DejaVuSans-2d"/>
       <use x="36.083984" xlink:href="#DejaVuSans-31"/>
      </g>
     </g>
    </g>
    <g id="xtick_10">
     <g id="line2d_10">
      <g>
       <use style="stroke:#000000;stroke-width:0.8;" x="996.218182" xlink:href="#m759150a83a" y="378"/>
      </g>
     </g>
     <g id="text_8">
      <!-- target -->
      <defs>
       <path d="M 18.3125 70.21875 
L 18.3125 54.6875 
L 36.8125 54.6875 
L 36.8125 47.703125 
L 18.3125 47.703125 
L 18.3125 18.015625 
Q 18.3125 11.328125 20.140625 9.421875 
Q 21.96875 7.515625 27.59375 7.515625 
L 36.8125 7.515625 
L 36.8125 0 
L 27.59375 0 
Q 17.1875 0 13.234375 3.875 
Q 9.28125 7.765625 9.28125 18.015625 
L 9.28125 47.703125 
L 2.6875 47.703125 
L 2.6875 54.6875 
L 9.28125 54.6875 
L 9.28125 70.21875 
z
" id="DejaVuSans-74"/>
       <path d="M 41.109375 46.296875 
Q 39.59375 47.171875 37.8125 47.578125 
Q 36.03125 48 33.890625 48 
Q 26.265625 48 22.1875 43.046875 
Q 18.109375 38.09375 18.109375 28.8125 
L 18.109375 0 
L 9.078125 0 
L 9.078125 54.6875 
L 18.109375 54.6875 
L 18.109375 46.1875 
Q 20.953125 51.171875 25.484375 53.578125 
Q 30.03125 56 36.53125 56 
Q 37.453125 56 38.578125 55.875 
Q 39.703125 55.765625 41.0625 55.515625 
z
" id="DejaVuSans-72"/>
       <path d="M 45.40625 27.984375 
Q 45.40625 37.75 41.375 43.109375 
Q 37.359375 48.484375 30.078125 48.484375 
Q 22.859375 48.484375 18.828125 43.109375 
Q 14.796875 37.75 14.796875 27.984375 
Q 14.796875 18.265625 18.828125 12.890625 
Q 22.859375 7.515625 30.078125 7.515625 
Q 37.359375 7.515625 41.375 12.890625 
Q 45.40625 18.265625 45.40625 27.984375 
z
M 54.390625 6.78125 
Q 54.390625 -7.171875 48.1875 -13.984375 
Q 42 -20.796875 29.203125 -20.796875 
Q 24.46875 -20.796875 20.265625 -20.09375 
Q 16.0625 -19.390625 12.109375 -17.921875 
L 12.109375 -9.1875 
Q 16.0625 -11.328125 19.921875 -12.34375 
Q 23.78125 -13.375 27.78125 -13.375 
Q 36.625 -13.375 41.015625 -8.765625 
Q 45.40625 -4.15625 45.40625 5.171875 
L 45.40625 9.625 
Q 42.625 4.78125 38.28125 2.390625 
Q 33.9375 0 27.875 0 
Q 17.828125 0 11.671875 7.65625 
Q 5.515625 15.328125 5.515625 27.984375 
Q 5.515625 40.671875 11.671875 48.328125 
Q 17.828125 56 27.875 56 
Q 33.9375 56 38.28125 53.609375 
Q 42.625 51.21875 45.40625 46.390625 
L 45.40625 54.6875 
L 54.390625 54.6875 
z
" id="DejaVuSans-67"/>
      </defs>
      <g transform="translate(1004.496307 476.739062)rotate(-90)scale(0.3 -0.3)">
       <use xlink:href="#DejaVuSans-74"/>
       <use x="39.208984" xlink:href="#DejaVuSans-61"/>
       <use x="100.488281" xlink:href="#DejaVuSans-72"/>
       <use x="141.585938" xlink:href="#DejaVuSans-67"/>
       <use x="205.0625" xlink:href="#DejaVuSans-65"/>
       <use x="266.585938" xlink:href="#DejaVuSans-74"/>
      </g>
     </g>
    </g>
   </g>
   <g id="matplotlib.axis_2">
    <g id="ytick_1">
     <g id="line2d_11">
      <defs>
       <path d="M 0 0 
L -3.5 0 
" id="m604d7a99b9" style="stroke:#000000;stroke-width:0.8;"/>
      </defs>
      <g>
       <use style="stroke:#000000;stroke-width:0.8;" x="144" xlink:href="#m604d7a99b9" y="369.856198"/>
      </g>
     </g>
     <g id="text_9">
      <!-- −0.75 -->
      <defs>
       <path d="M 10.59375 35.5 
L 73.1875 35.5 
L 73.1875 27.203125 
L 10.59375 27.203125 
z
" id="DejaVuSans-2212"/>
       <path d="M 31.78125 66.40625 
Q 24.171875 66.40625 20.328125 58.90625 
Q 16.5 51.421875 16.5 36.375 
Q 16.5 21.390625 20.328125 13.890625 
Q 24.171875 6.390625 31.78125 6.390625 
Q 39.453125 6.390625 43.28125 13.890625 
Q 47.125 21.390625 47.125 36.375 
Q 47.125 51.421875 43.28125 58.90625 
Q 39.453125 66.40625 31.78125 66.40625 
z
M 31.78125 74.21875 
Q 44.046875 74.21875 50.515625 64.515625 
Q 56.984375 54.828125 56.984375 36.375 
Q 56.984375 17.96875 50.515625 8.265625 
Q 44.046875 -1.421875 31.78125 -1.421875 
Q 19.53125 -1.421875 13.0625 8.265625 
Q 6.59375 17.96875 6.59375 36.375 
Q 6.59375 54.828125 13.0625 64.515625 
Q 19.53125 74.21875 31.78125 74.21875 
z
" id="DejaVuSans-30"/>
       <path d="M 10.6875 12.40625 
L 21 12.40625 
L 21 0 
L 10.6875 0 
z
" id="DejaVuSans-2e"/>
       <path d="M 8.203125 72.90625 
L 55.078125 72.90625 
L 55.078125 68.703125 
L 28.609375 0 
L 18.3125 0 
L 43.21875 64.59375 
L 8.203125 64.59375 
z
" id="DejaVuSans-37"/>
       <path d="M 10.796875 72.90625 
L 49.515625 72.90625 
L 49.515625 64.59375 
L 19.828125 64.59375 
L 19.828125 46.734375 
Q 21.96875 47.46875 24.109375 47.828125 
Q 26.265625 48.1875 28.421875 48.1875 
Q 40.625 48.1875 47.75 41.5 
Q 54.890625 34.8125 54.890625 23.390625 
Q 54.890625 11.625 47.5625 5.09375 
Q 40.234375 -1.421875 26.90625 -1.421875 
Q 22.3125 -1.421875 17.546875 -0.640625 
Q 12.796875 0.140625 7.71875 1.703125 
L 7.71875 11.625 
Q 12.109375 9.234375 16.796875 8.0625 
Q 21.484375 6.890625 26.703125 6.890625 
Q 35.15625 6.890625 40.078125 11.328125 
Q 45.015625 15.765625 45.015625 23.390625 
Q 45.015625 31 40.078125 35.4375 
Q 35.15625 39.890625 26.703125 39.890625 
Q 22.75 39.890625 18.8125 39.015625 
Q 14.890625 38.140625 10.796875 36.28125 
z
" id="DejaVuSans-35"/>
      </defs>
      <g transform="translate(69.580313 378.214479)scale(0.22 -0.22)">
       <use xlink:href="#DejaVuSans-2212"/>
       <use x="83.789062" xlink:href="#DejaVuSans-30"/>
       <use x="147.412109" xlink:href="#DejaVuSans-2e"/>
       <use x="179.199219" xlink:href="#DejaVuSans-37"/>
       <use x="242.822266" xlink:href="#DejaVuSans-35"/>
      </g>
     </g>
    </g>
    <g id="ytick_2">
     <g id="line2d_12">
      <g>
       <use style="stroke:#000000;stroke-width:0.8;" x="144" xlink:href="#m604d7a99b9" y="328.975705"/>
      </g>
     </g>
     <g id="text_10">
      <!-- −0.50 -->
      <g transform="translate(69.580313 337.333986)scale(0.22 -0.22)">
       <use xlink:href="#DejaVuSans-2212"/>
       <use x="83.789062" xlink:href="#DejaVuSans-30"/>
       <use x="147.412109" xlink:href="#DejaVuSans-2e"/>
       <use x="179.199219" xlink:href="#DejaVuSans-35"/>
       <use x="242.822266" xlink:href="#DejaVuSans-30"/>
      </g>
     </g>
    </g>
    <g id="ytick_3">
     <g id="line2d_13">
      <g>
       <use style="stroke:#000000;stroke-width:0.8;" x="144" xlink:href="#m604d7a99b9" y="288.095212"/>
      </g>
     </g>
     <g id="text_11">
      <!-- −0.25 -->
      <g transform="translate(69.580313 296.453493)scale(0.22 -0.22)">
       <use xlink:href="#DejaVuSans-2212"/>
       <use x="83.789062" xlink:href="#DejaVuSans-30"/>
       <use x="147.412109" xlink:href="#DejaVuSans-2e"/>
       <use x="179.199219" xlink:href="#DejaVuSans-32"/>
       <use x="242.822266" xlink:href="#DejaVuSans-35"/>
      </g>
     </g>
    </g>
    <g id="ytick_4">
     <g id="line2d_14">
      <g>
       <use style="stroke:#000000;stroke-width:0.8;" x="144" xlink:href="#m604d7a99b9" y="247.214718"/>
      </g>
     </g>
     <g id="text_12">
      <!-- 0.00 -->
      <g transform="translate(88.015625 255.573)scale(0.22 -0.22)">
       <use xlink:href="#DejaVuSans-30"/>
       <use x="63.623047" xlink:href="#DejaVuSans-2e"/>
       <use x="95.410156" xlink:href="#DejaVuSans-30"/>
       <use x="159.033203" xlink:href="#DejaVuSans-30"/>
      </g>
     </g>
    </g>
    <g id="ytick_5">
     <g id="line2d_15">
      <g>
       <use style="stroke:#000000;stroke-width:0.8;" x="144" xlink:href="#m604d7a99b9" y="206.334225"/>
      </g>
     </g>
     <g id="text_13">
      <!-- 0.25 -->
      <g transform="translate(88.015625 214.692507)scale(0.22 -0.22)">
       <use xlink:href="#DejaVuSans-30"/>
       <use x="63.623047" xlink:href="#DejaVuSans-2e"/>
       <use x="95.410156" xlink:href="#DejaVuSans-32"/>
       <use x="159.033203" xlink:href="#DejaVuSans-35"/>
      </g>
     </g>
    </g>
    <g id="ytick_6">
     <g id="line2d_16">
      <g>
       <use style="stroke:#000000;stroke-width:0.8;" x="144" xlink:href="#m604d7a99b9" y="165.453732"/>
      </g>
     </g>
     <g id="text_14">
      <!-- 0.50 -->
      <g transform="translate(88.015625 173.812013)scale(0.22 -0.22)">
       <use xlink:href="#DejaVuSans-30"/>
       <use x="63.623047" xlink:href="#DejaVuSans-2e"/>
       <use x="95.410156" xlink:href="#DejaVuSans-35"/>
       <use x="159.033203" xlink:href="#DejaVuSans-30"/>
      </g>
     </g>
    </g>
    <g id="ytick_7">
     <g id="line2d_17">
      <g>
       <use style="stroke:#000000;stroke-width:0.8;" x="144" xlink:href="#m604d7a99b9" y="124.573239"/>
      </g>
     </g>
     <g id="text_15">
      <!-- 0.75 -->
      <g transform="translate(88.015625 132.93152)scale(0.22 -0.22)">
       <use xlink:href="#DejaVuSans-30"/>
       <use x="63.623047" xlink:href="#DejaVuSans-2e"/>
       <use x="95.410156" xlink:href="#DejaVuSans-37"/>
       <use x="159.033203" xlink:href="#DejaVuSans-35"/>
      </g>
     </g>
    </g>
    <g id="ytick_8">
     <g id="line2d_18">
      <g>
       <use style="stroke:#000000;stroke-width:0.8;" x="144" xlink:href="#m604d7a99b9" y="83.692746"/>
      </g>
     </g>
     <g id="text_16">
      <!-- 1.00 -->
      <g transform="translate(88.015625 92.051027)scale(0.22 -0.22)">
       <use xlink:href="#DejaVuSans-31"/>
       <use x="63.623047" xlink:href="#DejaVuSans-2e"/>
       <use x="95.410156" xlink:href="#DejaVuSans-30"/>
       <use x="159.033203" xlink:href="#DejaVuSans-30"/>
      </g>
     </g>
    </g>
    <g id="text_17">
     <!-- activation -->
     <defs>
      <path d="M 48.78125 52.59375 
L 48.78125 44.1875 
Q 44.96875 46.296875 41.140625 47.34375 
Q 37.3125 48.390625 33.40625 48.390625 
Q 24.65625 48.390625 19.8125 42.84375 
Q 14.984375 37.3125 14.984375 27.296875 
Q 14.984375 17.28125 19.8125 11.734375 
Q 24.65625 6.203125 33.40625 6.203125 
Q 37.3125 6.203125 41.140625 7.25 
Q 44.96875 8.296875 48.78125 10.40625 
L 48.78125 2.09375 
Q 45.015625 0.34375 40.984375 -0.53125 
Q 36.96875 -1.421875 32.421875 -1.421875 
Q 20.0625 -1.421875 12.78125 6.34375 
Q 5.515625 14.109375 5.515625 27.296875 
Q 5.515625 40.671875 12.859375 48.328125 
Q 20.21875 56 33.015625 56 
Q 37.15625 56 41.109375 55.140625 
Q 45.0625 54.296875 48.78125 52.59375 
z
" id="DejaVuSans-63"/>
      <path d="M 9.421875 54.6875 
L 18.40625 54.6875 
L 18.40625 0 
L 9.421875 0 
z
M 9.421875 75.984375 
L 18.40625 75.984375 
L 18.40625 64.59375 
L 9.421875 64.59375 
z
" id="DejaVuSans-69"/>
      <path d="M 2.984375 54.6875 
L 12.5 54.6875 
L 29.59375 8.796875 
L 46.6875 54.6875 
L 56.203125 54.6875 
L 35.6875 0 
L 23.484375 0 
z
" id="DejaVuSans-76"/>
      <path d="M 30.609375 48.390625 
Q 23.390625 48.390625 19.1875 42.75 
Q 14.984375 37.109375 14.984375 27.296875 
Q 14.984375 17.484375 19.15625 11.84375 
Q 23.34375 6.203125 30.609375 6.203125 
Q 37.796875 6.203125 41.984375 11.859375 
Q 46.1875 17.53125 46.1875 27.296875 
Q 46.1875 37.015625 41.984375 42.703125 
Q 37.796875 48.390625 30.609375 48.390625 
z
M 30.609375 56 
Q 42.328125 56 49.015625 48.375 
Q 55.71875 40.765625 55.71875 27.296875 
Q 55.71875 13.875 49.015625 6.21875 
Q 42.328125 -1.421875 30.609375 -1.421875 
Q 18.84375 -1.421875 12.171875 6.21875 
Q 5.515625 13.875 5.515625 27.296875 
Q 5.515625 40.765625 12.171875 48.375 
Q 18.84375 56 30.609375 56 
z
" id="DejaVuSans-6f"/>
      <path d="M 54.890625 33.015625 
L 54.890625 0 
L 45.90625 0 
L 45.90625 32.71875 
Q 45.90625 40.484375 42.875 44.328125 
Q 39.84375 48.1875 33.796875 48.1875 
Q 26.515625 48.1875 22.3125 43.546875 
Q 18.109375 38.921875 18.109375 30.90625 
L 18.109375 0 
L 9.078125 0 
L 9.078125 54.6875 
L 18.109375 54.6875 
L 18.109375 46.1875 
Q 21.34375 51.125 25.703125 53.5625 
Q 30.078125 56 35.796875 56 
Q 45.21875 56 50.046875 50.171875 
Q 54.890625 44.34375 54.890625 33.015625 
z
" id="DejaVuSans-6e"/>
     </defs>
     <g transform="translate(60.173125 279.304531)rotate(-90)scale(0.26 -0.26)">
      <use xlink:href="#DejaVuSans-61"/>
      <use x="61.279297" xlink:href="#DejaVuSans-63"/>
      <use x="116.259766" xlink:href="#DejaVuSans-74"/>
      <use x="155.46875" xlink:href="#DejaVuSans-69"/>
      <use x="183.251953" xlink:href="#DejaVuSans-76"/>
      <use x="242.431641" xlink:href="#DejaVuSans-61"/>
      <use x="303.710938" xlink:href="#DejaVuSans-74"/>
      <use x="342.919922" xlink:href="#DejaVuSans-69"/>
      <use x="370.703125" xlink:href="#DejaVuSans-6f"/>
      <use x="431.884766" xlink:href="#DejaVuSans-6e"/>
     </g>
    </g>
   </g>
   <g id="LineCollection_1">
    <path clip-path="url(#p3564ac973c)" d="M 184.581818 258.590326 
L 184.581818 151.779377 
" style="fill:none;stroke:#1f77b4;stroke-width:5;"/>
    <path clip-path="url(#p3564ac973c)" d="M 274.763636 238.496789 
L 274.763636 130.345484 
" style="fill:none;stroke:#1f77b4;stroke-width:5;"/>
    <path clip-path="url(#p3564ac973c)" d="M 364.945455 242.67749 
L 364.945455 140.730229 
" style="fill:none;stroke:#1f77b4;stroke-width:5;"/>
    <path clip-path="url(#p3564ac973c)" d="M 455.127273 143.613231 
L 455.127273 68.865741 
" style="fill:none;stroke:#1f77b4;stroke-width:5;"/>
    <path clip-path="url(#p3564ac973c)" d="M 545.309091 150.654509 
L 545.309091 67.489393 
" style="fill:none;stroke:#1f77b4;stroke-width:5;"/>
    <path clip-path="url(#p3564ac973c)" d="M 635.490909 145.589632 
L 635.490909 67.645508 
" style="fill:none;stroke:#1f77b4;stroke-width:5;"/>
    <path clip-path="url(#p3564ac973c)" d="M 725.672727 129.348503 
L 725.672727 66.665455 
" style="fill:none;stroke:#1f77b4;stroke-width:5;"/>
    <path clip-path="url(#p3564ac973c)" d="M 815.854545 128.175546 
L 815.854545 69.723627 
" style="fill:none;stroke:#1f77b4;stroke-width:5;"/>
    <path clip-path="url(#p3564ac973c)" d="M 906.036364 142.752957 
L 906.036364 69.132006 
" style="fill:none;stroke:#1f77b4;stroke-width:5;"/>
    <path clip-path="url(#p3564ac973c)" d="M 996.218182 195.081441 
L 996.218182 103.227673 
" style="fill:none;stroke:#1f77b4;stroke-width:5;"/>
   </g>
   <g id="LineCollection_2">
    <path clip-path="url(#p3564ac973c)" d="M 184.581818 251.913573 
L 184.581818 142.612428 
" style="fill:none;stroke:#ff7f0e;stroke-width:5;"/>
    <path clip-path="url(#p3564ac973c)" d="M 274.763636 247.814222 
L 274.763636 151.010836 
" style="fill:none;stroke:#ff7f0e;stroke-width:5;"/>
    <path clip-path="url(#p3564ac973c)" d="M 364.945455 271.280087 
L 364.945455 182.033353 
" style="fill:none;stroke:#ff7f0e;stroke-width:5;"/>
    <path clip-path="url(#p3564ac973c)" d="M 455.127273 168.684375 
L 455.127273 77.077041 
" style="fill:none;stroke:#ff7f0e;stroke-width:5;"/>
    <path clip-path="url(#p3564ac973c)" d="M 545.309091 162.435436 
L 545.309091 73.952269 
" style="fill:none;stroke:#ff7f0e;stroke-width:5;"/>
    <path clip-path="url(#p3564ac973c)" d="M 635.490909 164.233514 
L 635.490909 75.669728 
" style="fill:none;stroke:#ff7f0e;stroke-width:5;"/>
    <path clip-path="url(#p3564ac973c)" d="M 725.672727 166.313681 
L 725.672727 74.638367 
" style="fill:none;stroke:#ff7f0e;stroke-width:5;"/>
    <path clip-path="url(#p3564ac973c)" d="M 815.854545 173.764011 
L 815.854545 75.79268 
" style="fill:none;stroke:#ff7f0e;stroke-width:5;"/>
    <path clip-path="url(#p3564ac973c)" d="M 906.036364 183.920156 
L 906.036364 81.561799 
" style="fill:none;stroke:#ff7f0e;stroke-width:5;"/>
    <path clip-path="url(#p3564ac973c)" d="M 996.218182 257.863603 
L 996.218182 176.444541 
" style="fill:none;stroke:#ff7f0e;stroke-width:5;"/>
   </g>
   <g id="LineCollection_3">
    <path clip-path="url(#p3564ac973c)" d="M 184.581818 309.485404 
L 184.581818 246.602322 
" style="fill:none;stroke:#1f77b4;stroke-width:5;"/>
    <path clip-path="url(#p3564ac973c)" d="M 274.763636 314.880625 
L 274.763636 246.723477 
" style="fill:none;stroke:#1f77b4;stroke-width:5;"/>
    <path clip-path="url(#p3564ac973c)" d="M 364.945455 363.174545 
L 364.945455 271.203986 
" style="fill:none;stroke:#1f77b4;stroke-width:5;"/>
    <path clip-path="url(#p3564ac973c)" d="M 455.127273 307.678511 
L 455.127273 234.662086 
" style="fill:none;stroke:#1f77b4;stroke-width:5;"/>
    <path clip-path="url(#p3564ac973c)" d="M 545.309091 276.605076 
L 545.309091 230.515402 
" style="fill:none;stroke:#1f77b4;stroke-width:5;"/>
    <path clip-path="url(#p3564ac973c)" d="M 635.490909 261.137401 
L 635.490909 232.057861 
" style="fill:none;stroke:#1f77b4;stroke-width:5;"/>
    <path clip-path="url(#p3564ac973c)" d="M 725.672727 257.806762 
L 725.672727 235.725957 
" style="fill:none;stroke:#1f77b4;stroke-width:5;"/>
    <path clip-path="url(#p3564ac973c)" d="M 815.854545 262.148415 
L 815.854545 234.171853 
" style="fill:none;stroke:#1f77b4;stroke-width:5;"/>
    <path clip-path="url(#p3564ac973c)" d="M 906.036364 262.254644 
L 906.036364 236.157763 
" style="fill:none;stroke:#1f77b4;stroke-width:5;"/>
    <path clip-path="url(#p3564ac973c)" d="M 996.218182 288.572389 
L 996.218182 225.419214 
" style="fill:none;stroke:#1f77b4;stroke-width:5;"/>
   </g>
   <g id="LineCollection_4">
    <path clip-path="url(#p3564ac973c)" d="M 184.581818 291.962655 
L 184.581818 236.393243 
" style="fill:none;stroke:#ff7f0e;stroke-width:5;"/>
    <path clip-path="url(#p3564ac973c)" d="M 274.763636 304.442834 
L 274.763636 234.254756 
" style="fill:none;stroke:#ff7f0e;stroke-width:5;"/>
    <path clip-path="url(#p3564ac973c)" d="M 364.945455 256.092214 
L 364.945455 216.682117 
" style="fill:none;stroke:#ff7f0e;stroke-width:5;"/>
    <path clip-path="url(#p3564ac973c)" d="M 455.127273 251.686995 
L 455.127273 237.347216 
" style="fill:none;stroke:#ff7f0e;stroke-width:5;"/>
    <path clip-path="url(#p3564ac973c)" d="M 545.309091 257.637144 
L 545.309091 237.565463 
" style="fill:none;stroke:#ff7f0e;stroke-width:5;"/>
    <path clip-path="url(#p3564ac973c)" d="M 635.490909 256.312853 
L 635.490909 238.919325 
" style="fill:none;stroke:#ff7f0e;stroke-width:5;"/>
    <path clip-path="url(#p3564ac973c)" d="M 725.672727 251.968517 
L 725.672727 243.258946 
" style="fill:none;stroke:#ff7f0e;stroke-width:5;"/>
    <path clip-path="url(#p3564ac973c)" d="M 815.854545 252.18785 
L 815.854545 243.558193 
" style="fill:none;stroke:#ff7f0e;stroke-width:5;"/>
    <path clip-path="url(#p3564ac973c)" d="M 906.036364 250.128132 
L 906.036364 244.378128 
" style="fill:none;stroke:#ff7f0e;stroke-width:5;"/>
    <path clip-path="url(#p3564ac973c)" d="M 996.218182 252.775894 
L 996.218182 239.576365 
" style="fill:none;stroke:#ff7f0e;stroke-width:5;"/>
   </g>
   <g id="line2d_19">
    <defs>
     <path d="M 6 0 
L -6 -0 
" id="mc3941137ec" style="stroke:#1f77b4;stroke-width:2;"/>
    </defs>
    <g clip-path="url(#p3564ac973c)">
     <use style="fill:#1f77b4;stroke:#1f77b4;stroke-width:2;" x="184.581818" xlink:href="#mc3941137ec" y="258.590326"/>
     <use style="fill:#1f77b4;stroke:#1f77b4;stroke-width:2;" x="274.763636" xlink:href="#mc3941137ec" y="238.496789"/>
     <use style="fill:#1f77b4;stroke:#1f77b4;stroke-width:2;" x="364.945455" xlink:href="#mc3941137ec" y="242.67749"/>
     <use style="fill:#1f77b4;stroke:#1f77b4;stroke-width:2;" x="455.127273" xlink:href="#mc3941137ec" y="143.613231"/>
     <use style="fill:#1f77b4;stroke:#1f77b4;stroke-width:2;" x="545.309091" xlink:href="#mc3941137ec" y="150.654509"/>
     <use style="fill:#1f77b4;stroke:#1f77b4;stroke-width:2;" x="635.490909" xlink:href="#mc3941137ec" y="145.589632"/>
     <use style="fill:#1f77b4;stroke:#1f77b4;stroke-width:2;" x="725.672727" xlink:href="#mc3941137ec" y="129.348503"/>
     <use style="fill:#1f77b4;stroke:#1f77b4;stroke-width:2;" x="815.854545" xlink:href="#mc3941137ec" y="128.175546"/>
     <use style="fill:#1f77b4;stroke:#1f77b4;stroke-width:2;" x="906.036364" xlink:href="#mc3941137ec" y="142.752957"/>
     <use style="fill:#1f77b4;stroke:#1f77b4;stroke-width:2;" x="996.218182" xlink:href="#mc3941137ec" y="195.081441"/>
    </g>
   </g>
   <g id="line2d_20">
    <g clip-path="url(#p3564ac973c)">
     <use style="fill:#1f77b4;stroke:#1f77b4;stroke-width:2;" x="184.581818" xlink:href="#mc3941137ec" y="151.779377"/>
     <use style="fill:#1f77b4;stroke:#1f77b4;stroke-width:2;" x="274.763636" xlink:href="#mc3941137ec" y="130.345484"/>
     <use style="fill:#1f77b4;stroke:#1f77b4;stroke-width:2;" x="364.945455" xlink:href="#mc3941137ec" y="140.730229"/>
     <use style="fill:#1f77b4;stroke:#1f77b4;stroke-width:2;" x="455.127273" xlink:href="#mc3941137ec" y="68.865741"/>
     <use style="fill:#1f77b4;stroke:#1f77b4;stroke-width:2;" x="545.309091" xlink:href="#mc3941137ec" y="67.489393"/>
     <use style="fill:#1f77b4;stroke:#1f77b4;stroke-width:2;" x="635.490909" xlink:href="#mc3941137ec" y="67.645508"/>
     <use style="fill:#1f77b4;stroke:#1f77b4;stroke-width:2;" x="725.672727" xlink:href="#mc3941137ec" y="66.665455"/>
     <use style="fill:#1f77b4;stroke:#1f77b4;stroke-width:2;" x="815.854545" xlink:href="#mc3941137ec" y="69.723627"/>
     <use style="fill:#1f77b4;stroke:#1f77b4;stroke-width:2;" x="906.036364" xlink:href="#mc3941137ec" y="69.132006"/>
     <use style="fill:#1f77b4;stroke:#1f77b4;stroke-width:2;" x="996.218182" xlink:href="#mc3941137ec" y="103.227673"/>
    </g>
   </g>
   <g id="line2d_21">
    <defs>
     <path d="M 6 0 
L -6 -0 
" id="m733357384d" style="stroke:#ff7f0e;stroke-width:2;"/>
    </defs>
    <g clip-path="url(#p3564ac973c)">
     <use style="fill:#ff7f0e;stroke:#ff7f0e;stroke-width:2;" x="184.581818" xlink:href="#m733357384d" y="251.913573"/>
     <use style="fill:#ff7f0e;stroke:#ff7f0e;stroke-width:2;" x="274.763636" xlink:href="#m733357384d" y="247.814222"/>
     <use style="fill:#ff7f0e;stroke:#ff7f0e;stroke-width:2;" x="364.945455" xlink:href="#m733357384d" y="271.280087"/>
     <use style="fill:#ff7f0e;stroke:#ff7f0e;stroke-width:2;" x="455.127273" xlink:href="#m733357384d" y="168.684375"/>
     <use style="fill:#ff7f0e;stroke:#ff7f0e;stroke-width:2;" x="545.309091" xlink:href="#m733357384d" y="162.435436"/>
     <use style="fill:#ff7f0e;stroke:#ff7f0e;stroke-width:2;" x="635.490909" xlink:href="#m733357384d" y="164.233514"/>
     <use style="fill:#ff7f0e;stroke:#ff7f0e;stroke-width:2;" x="725.672727" xlink:href="#m733357384d" y="166.313681"/>
     <use style="fill:#ff7f0e;stroke:#ff7f0e;stroke-width:2;" x="815.854545" xlink:href="#m733357384d" y="173.764011"/>
     <use style="fill:#ff7f0e;stroke:#ff7f0e;stroke-width:2;" x="906.036364" xlink:href="#m733357384d" y="183.920156"/>
     <use style="fill:#ff7f0e;stroke:#ff7f0e;stroke-width:2;" x="996.218182" xlink:href="#m733357384d" y="257.863603"/>
    </g>
   </g>
   <g id="line2d_22">
    <g clip-path="url(#p3564ac973c)">
     <use style="fill:#ff7f0e;stroke:#ff7f0e;stroke-width:2;" x="184.581818" xlink:href="#m733357384d" y="142.612428"/>
     <use style="fill:#ff7f0e;stroke:#ff7f0e;stroke-width:2;" x="274.763636" xlink:href="#m733357384d" y="151.010836"/>
     <use style="fill:#ff7f0e;stroke:#ff7f0e;stroke-width:2;" x="364.945455" xlink:href="#m733357384d" y="182.033353"/>
     <use style="fill:#ff7f0e;stroke:#ff7f0e;stroke-width:2;" x="455.127273" xlink:href="#m733357384d" y="77.077041"/>
     <use style="fill:#ff7f0e;stroke:#ff7f0e;stroke-width:2;" x="545.309091" xlink:href="#m733357384d" y="73.952269"/>
     <use style="fill:#ff7f0e;stroke:#ff7f0e;stroke-width:2;" x="635.490909" xlink:href="#m733357384d" y="75.669728"/>
     <use style="fill:#ff7f0e;stroke:#ff7f0e;stroke-width:2;" x="725.672727" xlink:href="#m733357384d" y="74.638367"/>
     <use style="fill:#ff7f0e;stroke:#ff7f0e;stroke-width:2;" x="815.854545" xlink:href="#m733357384d" y="75.79268"/>
     <use style="fill:#ff7f0e;stroke:#ff7f0e;stroke-width:2;" x="906.036364" xlink:href="#m733357384d" y="81.561799"/>
     <use style="fill:#ff7f0e;stroke:#ff7f0e;stroke-width:2;" x="996.218182" xlink:href="#m733357384d" y="176.444541"/>
    </g>
   </g>
   <g id="line2d_23">
    <g clip-path="url(#p3564ac973c)">
     <use style="fill:#1f77b4;stroke:#1f77b4;stroke-width:2;" x="184.581818" xlink:href="#mc3941137ec" y="309.485404"/>
     <use style="fill:#1f77b4;stroke:#1f77b4;stroke-width:2;" x="274.763636" xlink:href="#mc3941137ec" y="314.880625"/>
     <use style="fill:#1f77b4;stroke:#1f77b4;stroke-width:2;" x="364.945455" xlink:href="#mc3941137ec" y="363.174545"/>
     <use style="fill:#1f77b4;stroke:#1f77b4;stroke-width:2;" x="455.127273" xlink:href="#mc3941137ec" y="307.678511"/>
     <use style="fill:#1f77b4;stroke:#1f77b4;stroke-width:2;" x="545.309091" xlink:href="#mc3941137ec" y="276.605076"/>
     <use style="fill:#1f77b4;stroke:#1f77b4;stroke-width:2;" x="635.490909" xlink:href="#mc3941137ec" y="261.137401"/>
     <use style="fill:#1f77b4;stroke:#1f77b4;stroke-width:2;" x="725.672727" xlink:href="#mc3941137ec" y="257.806762"/>
     <use style="fill:#1f77b4;stroke:#1f77b4;stroke-width:2;" x="815.854545" xlink:href="#mc3941137ec" y="262.148415"/>
     <use style="fill:#1f77b4;stroke:#1f77b4;stroke-width:2;" x="906.036364" xlink:href="#mc3941137ec" y="262.254644"/>
     <use style="fill:#1f77b4;stroke:#1f77b4;stroke-width:2;" x="996.218182" xlink:href="#mc3941137ec" y="288.572389"/>
    </g>
   </g>
   <g id="line2d_24">
    <g clip-path="url(#p3564ac973c)">
     <use style="fill:#1f77b4;stroke:#1f77b4;stroke-width:2;" x="184.581818" xlink:href="#mc3941137ec" y="246.602322"/>
     <use style="fill:#1f77b4;stroke:#1f77b4;stroke-width:2;" x="274.763636" xlink:href="#mc3941137ec" y="246.723477"/>
     <use style="fill:#1f77b4;stroke:#1f77b4;stroke-width:2;" x="364.945455" xlink:href="#mc3941137ec" y="271.203986"/>
     <use style="fill:#1f77b4;stroke:#1f77b4;stroke-width:2;" x="455.127273" xlink:href="#mc3941137ec" y="234.662086"/>
     <use style="fill:#1f77b4;stroke:#1f77b4;stroke-width:2;" x="545.309091" xlink:href="#mc3941137ec" y="230.515402"/>
     <use style="fill:#1f77b4;stroke:#1f77b4;stroke-width:2;" x="635.490909" xlink:href="#mc3941137ec" y="232.057861"/>
     <use style="fill:#1f77b4;stroke:#1f77b4;stroke-width:2;" x="725.672727" xlink:href="#mc3941137ec" y="235.725957"/>
     <use style="fill:#1f77b4;stroke:#1f77b4;stroke-width:2;" x="815.854545" xlink:href="#mc3941137ec" y="234.171853"/>
     <use style="fill:#1f77b4;stroke:#1f77b4;stroke-width:2;" x="906.036364" xlink:href="#mc3941137ec" y="236.157763"/>
     <use style="fill:#1f77b4;stroke:#1f77b4;stroke-width:2;" x="996.218182" xlink:href="#mc3941137ec" y="225.419214"/>
    </g>
   </g>
   <g id="line2d_25">
    <g clip-path="url(#p3564ac973c)">
     <use style="fill:#ff7f0e;stroke:#ff7f0e;stroke-width:2;" x="184.581818" xlink:href="#m733357384d" y="291.962655"/>
     <use style="fill:#ff7f0e;stroke:#ff7f0e;stroke-width:2;" x="274.763636" xlink:href="#m733357384d" y="304.442834"/>
     <use style="fill:#ff7f0e;stroke:#ff7f0e;stroke-width:2;" x="364.945455" xlink:href="#m733357384d" y="256.092214"/>
     <use style="fill:#ff7f0e;stroke:#ff7f0e;stroke-width:2;" x="455.127273" xlink:href="#m733357384d" y="251.686995"/>
     <use style="fill:#ff7f0e;stroke:#ff7f0e;stroke-width:2;" x="545.309091" xlink:href="#m733357384d" y="257.637144"/>
     <use style="fill:#ff7f0e;stroke:#ff7f0e;stroke-width:2;" x="635.490909" xlink:href="#m733357384d" y="256.312853"/>
     <use style="fill:#ff7f0e;stroke:#ff7f0e;stroke-width:2;" x="725.672727" xlink:href="#m733357384d" y="251.968517"/>
     <use style="fill:#ff7f0e;stroke:#ff7f0e;stroke-width:2;" x="815.854545" xlink:href="#m733357384d" y="252.18785"/>
     <use style="fill:#ff7f0e;stroke:#ff7f0e;stroke-width:2;" x="906.036364" xlink:href="#m733357384d" y="250.128132"/>
     <use style="fill:#ff7f0e;stroke:#ff7f0e;stroke-width:2;" x="996.218182" xlink:href="#m733357384d" y="252.775894"/>
    </g>
   </g>
   <g id="line2d_26">
    <g clip-path="url(#p3564ac973c)">
     <use style="fill:#ff7f0e;stroke:#ff7f0e;stroke-width:2;" x="184.581818" xlink:href="#m733357384d" y="236.393243"/>
     <use style="fill:#ff7f0e;stroke:#ff7f0e;stroke-width:2;" x="274.763636" xlink:href="#m733357384d" y="234.254756"/>
     <use style="fill:#ff7f0e;stroke:#ff7f0e;stroke-width:2;" x="364.945455" xlink:href="#m733357384d" y="216.682117"/>
     <use style="fill:#ff7f0e;stroke:#ff7f0e;stroke-width:2;" x="455.127273" xlink:href="#m733357384d" y="237.347216"/>
     <use style="fill:#ff7f0e;stroke:#ff7f0e;stroke-width:2;" x="545.309091" xlink:href="#m733357384d" y="237.565463"/>
     <use style="fill:#ff7f0e;stroke:#ff7f0e;stroke-width:2;" x="635.490909" xlink:href="#m733357384d" y="238.919325"/>
     <use style="fill:#ff7f0e;stroke:#ff7f0e;stroke-width:2;" x="725.672727" xlink:href="#m733357384d" y="243.258946"/>
     <use style="fill:#ff7f0e;stroke:#ff7f0e;stroke-width:2;" x="815.854545" xlink:href="#m733357384d" y="243.558193"/>
     <use style="fill:#ff7f0e;stroke:#ff7f0e;stroke-width:2;" x="906.036364" xlink:href="#m733357384d" y="244.378128"/>
     <use style="fill:#ff7f0e;stroke:#ff7f0e;stroke-width:2;" x="996.218182" xlink:href="#m733357384d" y="239.576365"/>
    </g>
   </g>
   <g id="line2d_27">
    <path clip-path="url(#p3564ac973c)" d="M 184.581818 205.184852 
L 274.763636 184.421137 
L 364.945455 191.703859 
L 455.127273 106.239486 
L 545.309091 109.071951 
L 635.490909 106.61757 
L 725.672727 98.006979 
L 815.854545 98.949586 
L 906.036364 105.942481 
L 996.218182 149.154557 
" style="fill:none;stroke:#1f77b4;stroke-dasharray:5,8.25;stroke-dashoffset:0;stroke-width:5;"/>
   </g>
   <g id="line2d_28">
    <path clip-path="url(#p3564ac973c)" d="M 184.581818 197.263001 
L 274.763636 199.412529 
L 364.945455 226.65672 
L 455.127273 122.880708 
L 545.309091 118.193853 
L 635.490909 119.951621 
L 725.672727 120.476024 
L 815.854545 124.778346 
L 906.036364 132.740977 
L 996.218182 217.154072 
" style="fill:none;stroke:#ff7f0e;stroke-dasharray:5,8.25;stroke-dashoffset:0;stroke-width:5;"/>
   </g>
   <g id="line2d_29">
    <path clip-path="url(#p3564ac973c)" d="M 184.581818 278.043863 
L 274.763636 280.802051 
L 364.945455 317.189266 
L 455.127273 271.170298 
L 545.309091 253.560239 
L 635.490909 246.597631 
L 725.672727 246.766359 
L 815.854545 248.160134 
L 906.036364 249.206204 
L 996.218182 256.995801 
" style="fill:none;stroke:#1f77b4;stroke-dasharray:18.5,8;stroke-dashoffset:0;stroke-width:5;"/>
   </g>
   <g id="line2d_30">
    <path clip-path="url(#p3564ac973c)" d="M 184.581818 264.177949 
L 274.763636 269.348795 
L 364.945455 236.387166 
L 455.127273 244.517106 
L 545.309091 247.601303 
L 635.490909 247.616089 
L 725.672727 247.613731 
L 815.854545 247.873021 
L 906.036364 247.25313 
L 996.218182 246.176129 
" style="fill:none;stroke:#ff7f0e;stroke-dasharray:18.5,8;stroke-dashoffset:0;stroke-width:5;"/>
   </g>
   <g id="patch_3">
    <path d="M 144 378 
L 144 51.84 
" style="fill:none;stroke:#000000;stroke-linecap:square;stroke-linejoin:miter;stroke-width:0.8;"/>
   </g>
   <g id="patch_4">
    <path d="M 1036.8 378 
L 1036.8 51.84 
" style="fill:none;stroke:#000000;stroke-linecap:square;stroke-linejoin:miter;stroke-width:0.8;"/>
   </g>
   <g id="patch_5">
    <path d="M 144 378 
L 1036.8 378 
" style="fill:none;stroke:#000000;stroke-linecap:square;stroke-linejoin:miter;stroke-width:0.8;"/>
   </g>
   <g id="patch_6">
    <path d="M 144 51.84 
L 1036.8 51.84 
" style="fill:none;stroke:#000000;stroke-linecap:square;stroke-linejoin:miter;stroke-width:0.8;"/>
   </g>
   <g id="text_18">
    <!-- 987 -->
    <defs>
     <path d="M 10.984375 1.515625 
L 10.984375 10.5 
Q 14.703125 8.734375 18.5 7.8125 
Q 22.3125 6.890625 25.984375 6.890625 
Q 35.75 6.890625 40.890625 13.453125 
Q 46.046875 20.015625 46.78125 33.40625 
Q 43.953125 29.203125 39.59375 26.953125 
Q 35.25 24.703125 29.984375 24.703125 
Q 19.046875 24.703125 12.671875 31.3125 
Q 6.296875 37.9375 6.296875 49.421875 
Q 6.296875 60.640625 12.9375 67.421875 
Q 19.578125 74.21875 30.609375 74.21875 
Q 43.265625 74.21875 49.921875 64.515625 
Q 56.59375 54.828125 56.59375 36.375 
Q 56.59375 19.140625 48.40625 8.859375 
Q 40.234375 -1.421875 26.421875 -1.421875 
Q 22.703125 -1.421875 18.890625 -0.6875 
Q 15.09375 0.046875 10.984375 1.515625 
z
M 30.609375 32.421875 
Q 37.25 32.421875 41.125 36.953125 
Q 45.015625 41.5 45.015625 49.421875 
Q 45.015625 57.28125 41.125 61.84375 
Q 37.25 66.40625 30.609375 66.40625 
Q 23.96875 66.40625 20.09375 61.84375 
Q 16.21875 57.28125 16.21875 49.421875 
Q 16.21875 41.5 20.09375 36.953125 
Q 23.96875 32.421875 30.609375 32.421875 
z
" id="DejaVuSans-39"/>
     <path d="M 31.78125 34.625 
Q 24.75 34.625 20.71875 30.859375 
Q 16.703125 27.09375 16.703125 20.515625 
Q 16.703125 13.921875 20.71875 10.15625 
Q 24.75 6.390625 31.78125 6.390625 
Q 38.8125 6.390625 42.859375 10.171875 
Q 46.921875 13.96875 46.921875 20.515625 
Q 46.921875 27.09375 42.890625 30.859375 
Q 38.875 34.625 31.78125 34.625 
z
M 21.921875 38.8125 
Q 15.578125 40.375 12.03125 44.71875 
Q 8.5 49.078125 8.5 55.328125 
Q 8.5 64.0625 14.71875 69.140625 
Q 20.953125 74.21875 31.78125 74.21875 
Q 42.671875 74.21875 48.875 69.140625 
Q 55.078125 64.0625 55.078125 55.328125 
Q 55.078125 49.078125 51.53125 44.71875 
Q 48 40.375 41.703125 38.8125 
Q 48.828125 37.15625 52.796875 32.3125 
Q 56.78125 27.484375 56.78125 20.515625 
Q 56.78125 9.90625 50.3125 4.234375 
Q 43.84375 -1.421875 31.78125 -1.421875 
Q 19.734375 -1.421875 13.25 4.234375 
Q 6.78125 9.90625 6.78125 20.515625 
Q 6.78125 27.484375 10.78125 32.3125 
Q 14.796875 37.15625 21.921875 38.8125 
z
M 18.3125 54.390625 
Q 18.3125 48.734375 21.84375 45.5625 
Q 25.390625 42.390625 31.78125 42.390625 
Q 38.140625 42.390625 41.71875 45.5625 
Q 45.3125 48.734375 45.3125 54.390625 
Q 45.3125 60.0625 41.71875 63.234375 
Q 38.140625 66.40625 31.78125 66.40625 
Q 25.390625 66.40625 21.84375 63.234375 
Q 18.3125 60.0625 18.3125 54.390625 
z
" id="DejaVuSans-38"/>
    </defs>
    <g transform="translate(578.9475 45.84)scale(0.12 -0.12)">
     <use xlink:href="#DejaVuSans-39"/>
     <use x="63.623047" xlink:href="#DejaVuSans-38"/>
     <use x="127.246094" xlink:href="#DejaVuSans-37"/>
    </g>
   </g>
   <g id="legend_1">
    <g id="patch_7">
     <path d="M -198.816 289.392 
L 20.064 289.392 
Q 24.864 289.392 24.864 284.592 
L 24.864 133.872 
Q 24.864 129.072 20.064 129.072 
L -198.816 129.072 
Q -203.616 129.072 -203.616 133.872 
L -203.616 284.592 
Q -203.616 289.392 -198.816 289.392 
z
" style="fill:none;opacity:0;"/>
    </g>
    <g id="line2d_31">
     <path style="fill:none;stroke:#1f77b4;stroke-dasharray:5,8.25;stroke-dashoffset:0;stroke-width:5;"/>
    </g>
    <g id="line2d_32"/>
    <g id="text_19">
     <!-- plural $f_t$ -->
     <defs>
      <path d="M 18.109375 8.203125 
L 18.109375 -20.796875 
L 9.078125 -20.796875 
L 9.078125 54.6875 
L 18.109375 54.6875 
L 18.109375 46.390625 
Q 20.953125 51.265625 25.265625 53.625 
Q 29.59375 56 35.59375 56 
Q 45.5625 56 51.78125 48.09375 
Q 58.015625 40.1875 58.015625 27.296875 
Q 58.015625 14.40625 51.78125 6.484375 
Q 45.5625 -1.421875 35.59375 -1.421875 
Q 29.59375 -1.421875 25.265625 0.953125 
Q 20.953125 3.328125 18.109375 8.203125 
z
M 48.6875 27.296875 
Q 48.6875 37.203125 44.609375 42.84375 
Q 40.53125 48.484375 33.40625 48.484375 
Q 26.265625 48.484375 22.1875 42.84375 
Q 18.109375 37.203125 18.109375 27.296875 
Q 18.109375 17.390625 22.1875 11.75 
Q 26.265625 6.109375 33.40625 6.109375 
Q 40.53125 6.109375 44.609375 11.75 
Q 48.6875 17.390625 48.6875 27.296875 
z
" id="DejaVuSans-70"/>
      <path d="M 9.421875 75.984375 
L 18.40625 75.984375 
L 18.40625 0 
L 9.421875 0 
z
" id="DejaVuSans-6c"/>
      <path d="M 8.5 21.578125 
L 8.5 54.6875 
L 17.484375 54.6875 
L 17.484375 21.921875 
Q 17.484375 14.15625 20.5 10.265625 
Q 23.53125 6.390625 29.59375 6.390625 
Q 36.859375 6.390625 41.078125 11.03125 
Q 45.3125 15.671875 45.3125 23.6875 
L 45.3125 54.6875 
L 54.296875 54.6875 
L 54.296875 0 
L 45.3125 0 
L 45.3125 8.40625 
Q 42.046875 3.421875 37.71875 1 
Q 33.40625 -1.421875 27.6875 -1.421875 
Q 18.265625 -1.421875 13.375 4.4375 
Q 8.5 10.296875 8.5 21.578125 
z
M 31.109375 56 
z
" id="DejaVuSans-75"/>
      <path id="DejaVuSans-20"/>
      <path d="M 47.796875 75.984375 
L 46.390625 68.5 
L 37.796875 68.5 
Q 32.90625 68.5 30.6875 66.578125 
Q 28.46875 64.65625 27.390625 59.515625 
L 26.421875 54.6875 
L 41.21875 54.6875 
L 39.890625 47.703125 
L 25.09375 47.703125 
L 15.828125 0 
L 6.78125 0 
L 16.109375 47.703125 
L 7.515625 47.703125 
L 8.796875 54.6875 
L 17.390625 54.6875 
L 18.109375 58.5 
Q 19.96875 68.171875 24.625 72.078125 
Q 29.296875 75.984375 39.3125 75.984375 
z
" id="DejaVuSans-Oblique-66"/>
      <path d="M 42.28125 54.6875 
L 40.921875 47.703125 
L 23 47.703125 
L 17.1875 18.015625 
Q 16.890625 16.359375 16.75 15.234375 
Q 16.609375 14.109375 16.609375 13.484375 
Q 16.609375 10.359375 18.484375 8.9375 
Q 20.359375 7.515625 24.515625 7.515625 
L 33.59375 7.515625 
L 32.078125 0 
L 23.484375 0 
Q 15.484375 0 11.546875 3.125 
Q 7.625 6.25 7.625 12.59375 
Q 7.625 13.71875 7.765625 15.0625 
Q 7.90625 16.40625 8.203125 18.015625 
L 14.015625 47.703125 
L 6.390625 47.703125 
L 7.8125 54.6875 
L 15.28125 54.6875 
L 18.3125 70.21875 
L 27.296875 70.21875 
L 24.3125 54.6875 
z
" id="DejaVuSans-Oblique-74"/>
     </defs>
     <g transform="translate(-126.816 156.912)scale(0.24 -0.24)">
      <use transform="translate(0 0.015625)" xlink:href="#DejaVuSans-70"/>
      <use transform="translate(63.476562 0.015625)" xlink:href="#DejaVuSans-6c"/>
      <use transform="translate(91.259766 0.015625)" xlink:href="#DejaVuSans-75"/>
      <use transform="translate(154.638672 0.015625)" xlink:href="#DejaVuSans-72"/>
      <use transform="translate(195.751953 0.015625)" xlink:href="#DejaVuSans-61"/>
      <use transform="translate(257.03125 0.015625)" xlink:href="#DejaVuSans-6c"/>
      <use transform="translate(284.814453 0.015625)" xlink:href="#DejaVuSans-20"/>
      <use transform="translate(316.601562 0.015625)" xlink:href="#DejaVuSans-Oblique-66"/>
      <use transform="translate(351.806641 -16.390625)scale(0.7)" xlink:href="#DejaVuSans-Oblique-74"/>
     </g>
    </g>
    <g id="line2d_33">
     <path style="fill:none;stroke:#ff7f0e;stroke-dasharray:5,8.25;stroke-dashoffset:0;stroke-width:5;"/>
    </g>
    <g id="line2d_34"/>
    <g id="text_20">
     <!-- singular $f_t$ -->
     <defs>
      <path d="M 44.28125 53.078125 
L 44.28125 44.578125 
Q 40.484375 46.53125 36.375 47.5 
Q 32.28125 48.484375 27.875 48.484375 
Q 21.1875 48.484375 17.84375 46.4375 
Q 14.5 44.390625 14.5 40.28125 
Q 14.5 37.15625 16.890625 35.375 
Q 19.28125 33.59375 26.515625 31.984375 
L 29.59375 31.296875 
Q 39.15625 29.25 43.1875 25.515625 
Q 47.21875 21.78125 47.21875 15.09375 
Q 47.21875 7.46875 41.1875 3.015625 
Q 35.15625 -1.421875 24.609375 -1.421875 
Q 20.21875 -1.421875 15.453125 -0.5625 
Q 10.6875 0.296875 5.421875 2 
L 5.421875 11.28125 
Q 10.40625 8.6875 15.234375 7.390625 
Q 20.0625 6.109375 24.8125 6.109375 
Q 31.15625 6.109375 34.5625 8.28125 
Q 37.984375 10.453125 37.984375 14.40625 
Q 37.984375 18.0625 35.515625 20.015625 
Q 33.0625 21.96875 24.703125 23.78125 
L 21.578125 24.515625 
Q 13.234375 26.265625 9.515625 29.90625 
Q 5.8125 33.546875 5.8125 39.890625 
Q 5.8125 47.609375 11.28125 51.796875 
Q 16.75 56 26.8125 56 
Q 31.78125 56 36.171875 55.265625 
Q 40.578125 54.546875 44.28125 53.078125 
z
" id="DejaVuSans-73"/>
     </defs>
     <g transform="translate(-126.816 192.192)scale(0.24 -0.24)">
      <use transform="translate(0 0.015625)" xlink:href="#DejaVuSans-73"/>
      <use transform="translate(52.099609 0.015625)" xlink:href="#DejaVuSans-69"/>
      <use transform="translate(79.882812 0.015625)" xlink:href="#DejaVuSans-6e"/>
      <use transform="translate(143.261719 0.015625)" xlink:href="#DejaVuSans-67"/>
      <use transform="translate(206.738281 0.015625)" xlink:href="#DejaVuSans-75"/>
      <use transform="translate(270.117188 0.015625)" xlink:href="#DejaVuSans-6c"/>
      <use transform="translate(297.900391 0.015625)" xlink:href="#DejaVuSans-61"/>
      <use transform="translate(359.179688 0.015625)" xlink:href="#DejaVuSans-72"/>
      <use transform="translate(400.292969 0.015625)" xlink:href="#DejaVuSans-20"/>
      <use transform="translate(432.080078 0.015625)" xlink:href="#DejaVuSans-Oblique-66"/>
      <use transform="translate(467.285156 -16.390625)scale(0.7)" xlink:href="#DejaVuSans-Oblique-74"/>
     </g>
    </g>
    <g id="line2d_35">
     <path style="fill:none;stroke:#1f77b4;stroke-dasharray:18.5,8;stroke-dashoffset:0;stroke-width:5;"/>
    </g>
    <g id="line2d_36"/>
    <g id="text_21">
     <!-- plural $i_t \tilde{C}_t$ -->
     <defs>
      <path d="M 18.3125 75.984375 
L 27.296875 75.984375 
L 25.09375 64.59375 
L 16.109375 64.59375 
z
M 14.203125 54.6875 
L 23.1875 54.6875 
L 12.5 0 
L 3.515625 0 
z
" id="DejaVuSans-Oblique-69"/>
      <path d="M -25.328125 66.890625 
L -28.109375 69.578125 
Q -29.171875 70.5625 -29.984375 71.015625 
Q -30.796875 71.484375 -31.421875 71.484375 
Q -33.28125 71.484375 -34.15625 69.703125 
Q -35.03125 67.921875 -35.140625 63.921875 
L -41.234375 63.921875 
Q -41.140625 70.515625 -38.640625 74.09375 
Q -36.15625 77.6875 -31.71875 77.6875 
Q -29.859375 77.6875 -28.296875 77 
Q -26.734375 76.3125 -24.9375 74.703125 
L -22.140625 72.015625 
Q -21.078125 71.046875 -20.265625 70.578125 
Q -19.46875 70.125 -18.828125 70.125 
Q -16.96875 70.125 -16.09375 71.90625 
Q -15.21875 73.6875 -15.109375 77.6875 
L -9.015625 77.6875 
Q -9.109375 71.09375 -11.59375 67.5 
Q -14.09375 63.921875 -18.53125 63.921875 
Q -20.390625 63.921875 -21.953125 64.59375 
Q -23.515625 65.28125 -25.328125 66.890625 
z
" id="DejaVuSans-303"/>
      <path d="M 69.484375 67.28125 
L 67.484375 56.890625 
Q 62.796875 61.625 57.546875 63.921875 
Q 52.296875 66.21875 46.1875 66.21875 
Q 37.84375 66.21875 31.515625 62.203125 
Q 25.203125 58.203125 20.609375 50 
Q 17.671875 44.734375 16.125 38.84375 
Q 14.59375 32.953125 14.59375 27 
Q 14.59375 17.046875 19.75 11.8125 
Q 24.90625 6.59375 34.71875 6.59375 
Q 41.5 6.59375 47.75 8.765625 
Q 54 10.9375 59.90625 15.28125 
L 57.625 3.609375 
Q 51.8125 1.125 45.875 -0.140625 
Q 39.9375 -1.421875 33.984375 -1.421875 
Q 19.96875 -1.421875 12.078125 6.1875 
Q 4.203125 13.8125 4.203125 27.390625 
Q 4.203125 36.078125 7.203125 44.46875 
Q 10.203125 52.875 15.828125 59.8125 
Q 21.78125 67.1875 29.421875 70.703125 
Q 37.0625 74.21875 47.21875 74.21875 
Q 53.46875 74.21875 59.0625 72.484375 
Q 64.65625 70.75 69.484375 67.28125 
z
" id="DejaVuSans-Oblique-43"/>
     </defs>
     <g transform="translate(-126.816 233.472)scale(0.24 -0.24)">
      <use transform="translate(0 0.515625)" xlink:href="#DejaVuSans-70"/>
      <use transform="translate(63.476562 0.515625)" xlink:href="#DejaVuSans-6c"/>
      <use transform="translate(91.259766 0.515625)" xlink:href="#DejaVuSans-75"/>
      <use transform="translate(154.638672 0.515625)" xlink:href="#DejaVuSans-72"/>
      <use transform="translate(195.751953 0.515625)" xlink:href="#DejaVuSans-61"/>
      <use transform="translate(257.03125 0.515625)" xlink:href="#DejaVuSans-6c"/>
      <use transform="translate(284.814453 0.515625)" xlink:href="#DejaVuSans-20"/>
      <use transform="translate(316.601562 0.515625)" xlink:href="#DejaVuSans-Oblique-69"/>
      <use transform="translate(344.384766 -15.890625)scale(0.7)" xlink:href="#DejaVuSans-Oblique-74"/>
      <use transform="translate(443.255859 23.3125)" xlink:href="#DejaVuSans-303"/>
      <use transform="translate(374.56543 0.515625)" xlink:href="#DejaVuSans-Oblique-43"/>
      <use transform="translate(445.34668 -15.890625)scale(0.7)" xlink:href="#DejaVuSans-Oblique-74"/>
     </g>
    </g>
    <g id="line2d_37">
     <path style="fill:none;stroke:#ff7f0e;stroke-dasharray:18.5,8;stroke-dashoffset:0;stroke-width:5;"/>
    </g>
    <g id="line2d_38"/>
    <g id="text_22">
     <!-- singular $i_t \tilde{C}_t$ -->
     <g transform="translate(-126.816 274.752)scale(0.24 -0.24)">
      <use transform="translate(0 0.515625)" xlink:href="#DejaVuSans-73"/>
      <use transform="translate(52.099609 0.515625)" xlink:href="#DejaVuSans-69"/>
      <use transform="translate(79.882812 0.515625)" xlink:href="#DejaVuSans-6e"/>
      <use transform="translate(143.261719 0.515625)" xlink:href="#DejaVuSans-67"/>
      <use transform="translate(206.738281 0.515625)" xlink:href="#DejaVuSans-75"/>
      <use transform="translate(270.117188 0.515625)" xlink:href="#DejaVuSans-6c"/>
      <use transform="translate(297.900391 0.515625)" xlink:href="#DejaVuSans-61"/>
      <use transform="translate(359.179688 0.515625)" xlink:href="#DejaVuSans-72"/>
      <use transform="translate(400.292969 0.515625)" xlink:href="#DejaVuSans-20"/>
      <use transform="translate(432.080078 0.515625)" xlink:href="#DejaVuSans-Oblique-69"/>
      <use transform="translate(459.863281 -15.890625)scale(0.7)" xlink:href="#DejaVuSans-Oblique-74"/>
      <use transform="translate(558.734375 23.3125)" xlink:href="#DejaVuSans-303"/>
      <use transform="translate(490.043945 0.515625)" xlink:href="#DejaVuSans-Oblique-43"/>
      <use transform="translate(560.825195 -15.890625)scale(0.7)" xlink:href="#DejaVuSans-Oblique-74"/>
     </g>
    </g>
   </g>
  </g>
 </g>
 <defs>
  <clipPath id="p3564ac973c">
   <rect height="326.16" width="892.8" x="144" y="51.84"/>
  </clipPath>
 </defs>
</svg>
