<?xml version="1.0" encoding="utf-8" standalone="no"?>
<!DOCTYPE svg PUBLIC "-//W3C//DTD SVG 1.1//EN"
  "http://www.w3.org/Graphics/SVG/1.1/DTD/svg11.dtd">
<!-- Created with matplotlib (http://matplotlib.org/) -->
<svg height="1440pt" version="1.1" viewBox="0 0 2160 1440" width="2160pt" xmlns="http://www.w3.org/2000/svg" xmlns:xlink="http://www.w3.org/1999/xlink">
 <defs>
  <style type="text/css">
*{stroke-linecap:butt;stroke-linejoin:round;}
  </style>
 </defs>
 <g id="figure_1">
  <g id="patch_1">
   <path d="M 0 1440 
L 2160 1440 
L 2160 0 
L 0 0 
z
" style="fill:#ffffff;"/>
  </g>
  <g id="axes_1">
   <g id="patch_2">
    <path d="M 270 1281.6 
L 1030.909091 1281.6 
L 1030.909091 172.8 
L 270 172.8 
z
" style="fill:#ffffff;"/>
   </g>
   <g id="matplotlib.axis_1">
    <g id="xtick_1">
     <g id="line2d_1">
      <defs>
       <path d="M 0 0 
L 0 3.5 
" id="m92b44b27d4" style="stroke:#000000;stroke-width:0.8;"/>
      </defs>
      <g>
       <use style="stroke:#000000;stroke-width:0.8;" x="304.586777" xlink:href="#m92b44b27d4" y="1281.6"/>
      </g>
     </g>
     <g id="text_1">
      <!-- cet -->
      <defs>
       <path d="M 48.78125 52.59375 
L 48.78125 44.1875 
Q 44.96875 46.296875 41.140625 47.34375 
Q 37.3125 48.390625 33.40625 48.390625 
Q 24.65625 48.390625 19.8125 42.84375 
Q 14.984375 37.3125 14.984375 27.296875 
Q 14.984375 17.28125 19.8125 11.734375 
Q 24.65625 6.203125 33.40625 6.203125 
Q 37.3125 6.203125 41.140625 7.25 
Q 44.96875 8.296875 48.78125 10.40625 
L 48.78125 2.09375 
Q 45.015625 0.34375 40.984375 -0.53125 
Q 36.96875 -1.421875 32.421875 -1.421875 
Q 20.0625 -1.421875 12.78125 6.34375 
Q 5.515625 14.109375 5.515625 27.296875 
Q 5.515625 40.671875 12.859375 48.328125 
Q 20.21875 56 33.015625 56 
Q 37.15625 56 41.109375 55.140625 
Q 45.0625 54.296875 48.78125 52.59375 
z
" id="DejaVuSans-63"/>
       <path d="M 56.203125 29.59375 
L 56.203125 25.203125 
L 14.890625 25.203125 
Q 15.484375 15.921875 20.484375 11.0625 
Q 25.484375 6.203125 34.421875 6.203125 
Q 39.59375 6.203125 44.453125 7.46875 
Q 49.3125 8.734375 54.109375 11.28125 
L 54.109375 2.78125 
Q 49.265625 0.734375 44.1875 -0.34375 
Q 39.109375 -1.421875 33.890625 -1.421875 
Q 20.796875 -1.421875 13.15625 6.1875 
Q 5.515625 13.8125 5.515625 26.8125 
Q 5.515625 40.234375 12.765625 48.109375 
Q 20.015625 56 32.328125 56 
Q 43.359375 56 49.78125 48.890625 
Q 56.203125 41.796875 56.203125 29.59375 
z
M 47.21875 32.234375 
Q 47.125 39.59375 43.09375 43.984375 
Q 39.0625 48.390625 32.421875 48.390625 
Q 24.90625 48.390625 20.390625 44.140625 
Q 15.875 39.890625 15.1875 32.171875 
z
" id="DejaVuSans-65"/>
       <path d="M 18.3125 70.21875 
L 18.3125 54.6875 
L 36.8125 54.6875 
L 36.8125 47.703125 
L 18.3125 47.703125 
L 18.3125 18.015625 
Q 18.3125 11.328125 20.140625 9.421875 
Q 21.96875 7.515625 27.59375 7.515625 
L 36.8125 7.515625 
L 36.8125 0 
L 27.59375 0 
Q 17.1875 0 13.234375 3.875 
Q 9.28125 7.765625 9.28125 18.015625 
L 9.28125 47.703125 
L 2.6875 47.703125 
L 2.6875 54.6875 
L 9.28125 54.6875 
L 9.28125 70.21875 
z
" id="DejaVuSans-74"/>
      </defs>
      <g transform="translate(310.657402 1322.858125)rotate(-90)scale(0.22 -0.22)">
       <use xlink:href="#DejaVuSans-63"/>
       <use x="54.980469" xlink:href="#DejaVuSans-65"/>
       <use x="116.503906" xlink:href="#DejaVuSans-74"/>
      </g>
     </g>
    </g>
    <g id="xtick_2">
     <g id="line2d_2">
      <g>
       <use style="stroke:#000000;stroke-width:0.8;" x="381.446281" xlink:href="#m92b44b27d4" y="1281.6"/>
      </g>
     </g>
     <g id="text_2">
      <!-- oncle -->
      <defs>
       <path d="M 30.609375 48.390625 
Q 23.390625 48.390625 19.1875 42.75 
Q 14.984375 37.109375 14.984375 27.296875 
Q 14.984375 17.484375 19.15625 11.84375 
Q 23.34375 6.203125 30.609375 6.203125 
Q 37.796875 6.203125 41.984375 11.859375 
Q 46.1875 17.53125 46.1875 27.296875 
Q 46.1875 37.015625 41.984375 42.703125 
Q 37.796875 48.390625 30.609375 48.390625 
z
M 30.609375 56 
Q 42.328125 56 49.015625 48.375 
Q 55.71875 40.765625 55.71875 27.296875 
Q 55.71875 13.875 49.015625 6.21875 
Q 42.328125 -1.421875 30.609375 -1.421875 
Q 18.84375 -1.421875 12.171875 6.21875 
Q 5.515625 13.875 5.515625 27.296875 
Q 5.515625 40.765625 12.171875 48.375 
Q 18.84375 56 30.609375 56 
z
" id="DejaVuSans-6f"/>
       <path d="M 54.890625 33.015625 
L 54.890625 0 
L 45.90625 0 
L 45.90625 32.71875 
Q 45.90625 40.484375 42.875 44.328125 
Q 39.84375 48.1875 33.796875 48.1875 
Q 26.515625 48.1875 22.3125 43.546875 
Q 18.109375 38.921875 18.109375 30.90625 
L 18.109375 0 
L 9.078125 0 
L 9.078125 54.6875 
L 18.109375 54.6875 
L 18.109375 46.1875 
Q 21.34375 51.125 25.703125 53.5625 
Q 30.078125 56 35.796875 56 
Q 45.21875 56 50.046875 50.171875 
Q 54.890625 44.34375 54.890625 33.015625 
z
" id="DejaVuSans-6e"/>
       <path d="M 9.421875 75.984375 
L 18.40625 75.984375 
L 18.40625 0 
L 9.421875 0 
z
" id="DejaVuSans-6c"/>
      </defs>
      <g transform="translate(387.516906 1347.749063)rotate(-90)scale(0.22 -0.22)">
       <use xlink:href="#DejaVuSans-6f"/>
       <use x="61.181641" xlink:href="#DejaVuSans-6e"/>
       <use x="124.560547" xlink:href="#DejaVuSans-63"/>
       <use x="179.541016" xlink:href="#DejaVuSans-6c"/>
       <use x="207.324219" xlink:href="#DejaVuSans-65"/>
      </g>
     </g>
    </g>
    <g id="xtick_3">
     <g id="line2d_3">
      <g>
       <use style="stroke:#000000;stroke-width:0.8;" x="458.305785" xlink:href="#m92b44b27d4" y="1281.6"/>
      </g>
     </g>
     <g id="text_3">
      <!-- nerveux -->
      <defs>
       <path d="M 41.109375 46.296875 
Q 39.59375 47.171875 37.8125 47.578125 
Q 36.03125 48 33.890625 48 
Q 26.265625 48 22.1875 43.046875 
Q 18.109375 38.09375 18.109375 28.8125 
L 18.109375 0 
L 9.078125 0 
L 9.078125 54.6875 
L 18.109375 54.6875 
L 18.109375 46.1875 
Q 20.953125 51.171875 25.484375 53.578125 
Q 30.03125 56 36.53125 56 
Q 37.453125 56 38.578125 55.875 
Q 39.703125 55.765625 41.0625 55.515625 
z
" id="DejaVuSans-72"/>
       <path d="M 2.984375 54.6875 
L 12.5 54.6875 
L 29.59375 8.796875 
L 46.6875 54.6875 
L 56.203125 54.6875 
L 35.6875 0 
L 23.484375 0 
z
" id="DejaVuSans-76"/>
       <path d="M 8.5 21.578125 
L 8.5 54.6875 
L 17.484375 54.6875 
L 17.484375 21.921875 
Q 17.484375 14.15625 20.5 10.265625 
Q 23.53125 6.390625 29.59375 6.390625 
Q 36.859375 6.390625 41.078125 11.03125 
Q 45.3125 15.671875 45.3125 23.6875 
L 45.3125 54.6875 
L 54.296875 54.6875 
L 54.296875 0 
L 45.3125 0 
L 45.3125 8.40625 
Q 42.046875 3.421875 37.71875 1 
Q 33.40625 -1.421875 27.6875 -1.421875 
Q 18.265625 -1.421875 13.375 4.4375 
Q 8.5 10.296875 8.5 21.578125 
z
M 31.109375 56 
z
" id="DejaVuSans-75"/>
       <path d="M 54.890625 54.6875 
L 35.109375 28.078125 
L 55.90625 0 
L 45.3125 0 
L 29.390625 21.484375 
L 13.484375 0 
L 2.875 0 
L 24.125 28.609375 
L 4.6875 54.6875 
L 15.28125 54.6875 
L 29.78125 35.203125 
L 44.28125 54.6875 
z
" id="DejaVuSans-78"/>
      </defs>
      <g transform="translate(464.37641 1378.645313)rotate(-90)scale(0.22 -0.22)">
       <use xlink:href="#DejaVuSans-6e"/>
       <use x="63.378906" xlink:href="#DejaVuSans-65"/>
       <use x="124.902344" xlink:href="#DejaVuSans-72"/>
       <use x="166.015625" xlink:href="#DejaVuSans-76"/>
       <use x="225.195312" xlink:href="#DejaVuSans-65"/>
       <use x="286.71875" xlink:href="#DejaVuSans-75"/>
       <use x="350.097656" xlink:href="#DejaVuSans-78"/>
      </g>
     </g>
    </g>
    <g id="xtick_4">
     <g id="line2d_4">
      <g>
       <use style="stroke:#000000;stroke-width:0.8;" x="535.165289" xlink:href="#m92b44b27d4" y="1281.6"/>
      </g>
     </g>
     <g id="text_4">
      <!-- qui -->
      <defs>
       <path d="M 14.796875 27.296875 
Q 14.796875 17.390625 18.875 11.75 
Q 22.953125 6.109375 30.078125 6.109375 
Q 37.203125 6.109375 41.296875 11.75 
Q 45.40625 17.390625 45.40625 27.296875 
Q 45.40625 37.203125 41.296875 42.84375 
Q 37.203125 48.484375 30.078125 48.484375 
Q 22.953125 48.484375 18.875 42.84375 
Q 14.796875 37.203125 14.796875 27.296875 
z
M 45.40625 8.203125 
Q 42.578125 3.328125 38.25 0.953125 
Q 33.9375 -1.421875 27.875 -1.421875 
Q 17.96875 -1.421875 11.734375 6.484375 
Q 5.515625 14.40625 5.515625 27.296875 
Q 5.515625 40.1875 11.734375 48.09375 
Q 17.96875 56 27.875 56 
Q 33.9375 56 38.25 53.625 
Q 42.578125 51.265625 45.40625 46.390625 
L 45.40625 54.6875 
L 54.390625 54.6875 
L 54.390625 -20.796875 
L 45.40625 -20.796875 
z
" id="DejaVuSans-71"/>
       <path d="M 9.421875 54.6875 
L 18.40625 54.6875 
L 18.40625 0 
L 9.421875 0 
z
M 9.421875 75.984375 
L 18.40625 75.984375 
L 18.40625 64.59375 
L 9.421875 64.59375 
z
" id="DejaVuSans-69"/>
      </defs>
      <g transform="translate(541.235914 1322.620938)rotate(-90)scale(0.22 -0.22)">
       <use xlink:href="#DejaVuSans-71"/>
       <use x="63.476562" xlink:href="#DejaVuSans-75"/>
       <use x="126.855469" xlink:href="#DejaVuSans-69"/>
      </g>
     </g>
    </g>
    <g id="xtick_5">
     <g id="line2d_5">
      <g>
       <use style="stroke:#000000;stroke-width:0.8;" x="612.024793" xlink:href="#m92b44b27d4" y="1281.6"/>
      </g>
     </g>
     <g id="text_5">
      <!-- contacte -->
      <defs>
       <path d="M 34.28125 27.484375 
Q 23.390625 27.484375 19.1875 25 
Q 14.984375 22.515625 14.984375 16.5 
Q 14.984375 11.71875 18.140625 8.90625 
Q 21.296875 6.109375 26.703125 6.109375 
Q 34.1875 6.109375 38.703125 11.40625 
Q 43.21875 16.703125 43.21875 25.484375 
L 43.21875 27.484375 
z
M 52.203125 31.203125 
L 52.203125 0 
L 43.21875 0 
L 43.21875 8.296875 
Q 40.140625 3.328125 35.546875 0.953125 
Q 30.953125 -1.421875 24.3125 -1.421875 
Q 15.921875 -1.421875 10.953125 3.296875 
Q 6 8.015625 6 15.921875 
Q 6 25.140625 12.171875 29.828125 
Q 18.359375 34.515625 30.609375 34.515625 
L 43.21875 34.515625 
L 43.21875 35.40625 
Q 43.21875 41.609375 39.140625 45 
Q 35.0625 48.390625 27.6875 48.390625 
Q 23 48.390625 18.546875 47.265625 
Q 14.109375 46.140625 10.015625 43.890625 
L 10.015625 52.203125 
Q 14.9375 54.109375 19.578125 55.046875 
Q 24.21875 56 28.609375 56 
Q 40.484375 56 46.34375 49.84375 
Q 52.203125 43.703125 52.203125 31.203125 
z
" id="DejaVuSans-61"/>
      </defs>
      <g transform="translate(618.095418 1384.465)rotate(-90)scale(0.22 -0.22)">
       <use xlink:href="#DejaVuSans-63"/>
       <use x="54.980469" xlink:href="#DejaVuSans-6f"/>
       <use x="116.162109" xlink:href="#DejaVuSans-6e"/>
       <use x="179.541016" xlink:href="#DejaVuSans-74"/>
       <use x="218.75" xlink:href="#DejaVuSans-61"/>
       <use x="280.029297" xlink:href="#DejaVuSans-63"/>
       <use x="335.009766" xlink:href="#DejaVuSans-74"/>
       <use x="374.21875" xlink:href="#DejaVuSans-65"/>
      </g>
     </g>
    </g>
    <g id="xtick_6">
     <g id="line2d_6">
      <g>
       <use style="stroke:#000000;stroke-width:0.8;" x="688.884298" xlink:href="#m92b44b27d4" y="1281.6"/>
      </g>
     </g>
     <g id="text_6">
      <!-- les -->
      <defs>
       <path d="M 44.28125 53.078125 
L 44.28125 44.578125 
Q 40.484375 46.53125 36.375 47.5 
Q 32.28125 48.484375 27.875 48.484375 
Q 21.1875 48.484375 17.84375 46.4375 
Q 14.5 44.390625 14.5 40.28125 
Q 14.5 37.15625 16.890625 35.375 
Q 19.28125 33.59375 26.515625 31.984375 
L 29.59375 31.296875 
Q 39.15625 29.25 43.1875 25.515625 
Q 47.21875 21.78125 47.21875 15.09375 
Q 47.21875 7.46875 41.1875 3.015625 
Q 35.15625 -1.421875 24.609375 -1.421875 
Q 20.21875 -1.421875 15.453125 -0.5625 
Q 10.6875 0.296875 5.421875 2 
L 5.421875 11.28125 
Q 10.40625 8.6875 15.234375 7.390625 
Q 20.0625 6.109375 24.8125 6.109375 
Q 31.15625 6.109375 34.5625 8.28125 
Q 37.984375 10.453125 37.984375 14.40625 
Q 37.984375 18.0625 35.515625 20.015625 
Q 33.0625 21.96875 24.703125 23.78125 
L 21.578125 24.515625 
Q 13.234375 26.265625 9.515625 29.90625 
Q 5.8125 33.546875 5.8125 39.890625 
Q 5.8125 47.609375 11.28125 51.796875 
Q 16.75 56 26.8125 56 
Q 31.78125 56 36.171875 55.265625 
Q 40.578125 54.546875 44.28125 53.078125 
z
" id="DejaVuSans-73"/>
      </defs>
      <g transform="translate(694.954923 1319.709375)rotate(-90)scale(0.22 -0.22)">
       <use xlink:href="#DejaVuSans-6c"/>
       <use x="27.783203" xlink:href="#DejaVuSans-65"/>
       <use x="89.306641" xlink:href="#DejaVuSans-73"/>
      </g>
     </g>
    </g>
    <g id="xtick_7">
     <g id="line2d_7">
      <g>
       <use style="stroke:#000000;stroke-width:0.8;" x="765.743802" xlink:href="#m92b44b27d4" y="1281.6"/>
      </g>
     </g>
     <g id="text_7">
      <!-- coiffeurs -->
      <defs>
       <path d="M 37.109375 75.984375 
L 37.109375 68.5 
L 28.515625 68.5 
Q 23.6875 68.5 21.796875 66.546875 
Q 19.921875 64.59375 19.921875 59.515625 
L 19.921875 54.6875 
L 34.71875 54.6875 
L 34.71875 47.703125 
L 19.921875 47.703125 
L 19.921875 0 
L 10.890625 0 
L 10.890625 47.703125 
L 2.296875 47.703125 
L 2.296875 54.6875 
L 10.890625 54.6875 
L 10.890625 58.5 
Q 10.890625 67.625 15.140625 71.796875 
Q 19.390625 75.984375 28.609375 75.984375 
z
" id="DejaVuSans-66"/>
      </defs>
      <g transform="translate(771.814427 1383.743125)rotate(-90)scale(0.22 -0.22)">
       <use xlink:href="#DejaVuSans-63"/>
       <use x="54.980469" xlink:href="#DejaVuSans-6f"/>
       <use x="116.162109" xlink:href="#DejaVuSans-69"/>
       <use x="143.945312" xlink:href="#DejaVuSans-66"/>
       <use x="179.150391" xlink:href="#DejaVuSans-66"/>
       <use x="214.355469" xlink:href="#DejaVuSans-65"/>
       <use x="275.878906" xlink:href="#DejaVuSans-75"/>
       <use x="339.257812" xlink:href="#DejaVuSans-72"/>
       <use x="380.371094" xlink:href="#DejaVuSans-73"/>
      </g>
     </g>
    </g>
    <g id="xtick_8">
     <g id="line2d_8">
      <g>
       <use style="stroke:#000000;stroke-width:0.8;" x="842.603306" xlink:href="#m92b44b27d4" y="1281.6"/>
      </g>
     </g>
     <g id="text_8">
      <!-- ne -->
      <g transform="translate(848.673931 1316.079375)rotate(-90)scale(0.22 -0.22)">
       <use xlink:href="#DejaVuSans-6e"/>
       <use x="63.378906" xlink:href="#DejaVuSans-65"/>
      </g>
     </g>
    </g>
    <g id="xtick_9">
     <g id="line2d_9">
      <g>
       <use style="stroke:#000000;stroke-width:0.8;" x="919.46281" xlink:href="#m92b44b27d4" y="1281.6"/>
      </g>
     </g>
     <g id="text_9">
      <!-- jeta -->
      <defs>
       <path d="M 9.421875 54.6875 
L 18.40625 54.6875 
L 18.40625 -0.984375 
Q 18.40625 -11.421875 14.421875 -16.109375 
Q 10.453125 -20.796875 1.609375 -20.796875 
L -1.8125 -20.796875 
L -1.8125 -13.1875 
L 0.59375 -13.1875 
Q 5.71875 -13.1875 7.5625 -10.8125 
Q 9.421875 -8.453125 9.421875 -0.984375 
z
M 9.421875 75.984375 
L 18.40625 75.984375 
L 18.40625 64.59375 
L 9.421875 64.59375 
z
" id="DejaVuSans-6a"/>
      </defs>
      <g transform="translate(925.533435 1330.355313)rotate(-90)scale(0.22 -0.22)">
       <use xlink:href="#DejaVuSans-6a"/>
       <use x="27.783203" xlink:href="#DejaVuSans-65"/>
       <use x="89.306641" xlink:href="#DejaVuSans-74"/>
       <use x="128.515625" xlink:href="#DejaVuSans-61"/>
      </g>
     </g>
    </g>
    <g id="xtick_10">
     <g id="line2d_10">
      <g>
       <use style="stroke:#000000;stroke-width:0.8;" x="996.322314" xlink:href="#m92b44b27d4" y="1281.6"/>
      </g>
     </g>
     <g id="text_10">
      <!-- pas -->
      <defs>
       <path d="M 18.109375 8.203125 
L 18.109375 -20.796875 
L 9.078125 -20.796875 
L 9.078125 54.6875 
L 18.109375 54.6875 
L 18.109375 46.390625 
Q 20.953125 51.265625 25.265625 53.625 
Q 29.59375 56 35.59375 56 
Q 45.5625 56 51.78125 48.09375 
Q 58.015625 40.1875 58.015625 27.296875 
Q 58.015625 14.40625 51.78125 6.484375 
Q 45.5625 -1.421875 35.59375 -1.421875 
Q 29.59375 -1.421875 25.265625 0.953125 
Q 20.953125 3.328125 18.109375 8.203125 
z
M 48.6875 27.296875 
Q 48.6875 37.203125 44.609375 42.84375 
Q 40.53125 48.484375 33.40625 48.484375 
Q 26.265625 48.484375 22.1875 42.84375 
Q 18.109375 37.203125 18.109375 27.296875 
Q 18.109375 17.390625 22.1875 11.75 
Q 26.265625 6.109375 33.40625 6.109375 
Q 40.53125 6.109375 44.609375 11.75 
Q 48.6875 17.390625 48.6875 27.296875 
z
" id="DejaVuSans-70"/>
      </defs>
      <g transform="translate(990.075345 1327.509063)rotate(-90)scale(0.22 -0.22)">
       <use xlink:href="#DejaVuSans-70"/>
       <use x="63.476562" xlink:href="#DejaVuSans-61"/>
       <use x="124.755859" xlink:href="#DejaVuSans-73"/>
      </g>
      <!--  -->
      <g transform="translate(1014.710533 1308.054531)rotate(-90)scale(0.22 -0.22)"/>
     </g>
    </g>
   </g>
   <g id="matplotlib.axis_2">
    <g id="ytick_1">
     <g id="line2d_11">
      <defs>
       <path d="M 0 0 
L -3.5 0 
" id="mf3693913a6" style="stroke:#000000;stroke-width:0.8;"/>
      </defs>
      <g>
       <use style="stroke:#000000;stroke-width:0.8;" x="270" xlink:href="#mf3693913a6" y="1231.2"/>
      </g>
     </g>
     <g id="text_11">
      <!-- −1.00 -->
      <defs>
       <path d="M 10.59375 35.5 
L 73.1875 35.5 
L 73.1875 27.203125 
L 10.59375 27.203125 
z
" id="DejaVuSans-2212"/>
       <path d="M 12.40625 8.296875 
L 28.515625 8.296875 
L 28.515625 63.921875 
L 10.984375 60.40625 
L 10.984375 69.390625 
L 28.421875 72.90625 
L 38.28125 72.90625 
L 38.28125 8.296875 
L 54.390625 8.296875 
L 54.390625 0 
L 12.40625 0 
z
" id="DejaVuSans-31"/>
       <path d="M 10.6875 12.40625 
L 21 12.40625 
L 21 0 
L 10.6875 0 
z
" id="DejaVuSans-2e"/>
       <path d="M 31.78125 66.40625 
Q 24.171875 66.40625 20.328125 58.90625 
Q 16.5 51.421875 16.5 36.375 
Q 16.5 21.390625 20.328125 13.890625 
Q 24.171875 6.390625 31.78125 6.390625 
Q 39.453125 6.390625 43.28125 13.890625 
Q 47.125 21.390625 47.125 36.375 
Q 47.125 51.421875 43.28125 58.90625 
Q 39.453125 66.40625 31.78125 66.40625 
z
M 31.78125 74.21875 
Q 44.046875 74.21875 50.515625 64.515625 
Q 56.984375 54.828125 56.984375 36.375 
Q 56.984375 17.96875 50.515625 8.265625 
Q 44.046875 -1.421875 31.78125 -1.421875 
Q 19.53125 -1.421875 13.0625 8.265625 
Q 6.59375 17.96875 6.59375 36.375 
Q 6.59375 54.828125 13.0625 64.515625 
Q 19.53125 74.21875 31.78125 74.21875 
z
" id="DejaVuSans-30"/>
      </defs>
      <g transform="translate(232.354688 1234.999219)scale(0.1 -0.1)">
       <use xlink:href="#DejaVuSans-2212"/>
       <use x="83.789062" xlink:href="#DejaVuSans-31"/>
       <use x="147.412109" xlink:href="#DejaVuSans-2e"/>
       <use x="179.199219" xlink:href="#DejaVuSans-30"/>
       <use x="242.822266" xlink:href="#DejaVuSans-30"/>
      </g>
     </g>
    </g>
    <g id="ytick_2">
     <g id="line2d_12">
      <g>
       <use style="stroke:#000000;stroke-width:0.8;" x="270" xlink:href="#mf3693913a6" y="1105.2"/>
      </g>
     </g>
     <g id="text_12">
      <!-- −0.75 -->
      <defs>
       <path d="M 8.203125 72.90625 
L 55.078125 72.90625 
L 55.078125 68.703125 
L 28.609375 0 
L 18.3125 0 
L 43.21875 64.59375 
L 8.203125 64.59375 
z
" id="DejaVuSans-37"/>
       <path d="M 10.796875 72.90625 
L 49.515625 72.90625 
L 49.515625 64.59375 
L 19.828125 64.59375 
L 19.828125 46.734375 
Q 21.96875 47.46875 24.109375 47.828125 
Q 26.265625 48.1875 28.421875 48.1875 
Q 40.625 48.1875 47.75 41.5 
Q 54.890625 34.8125 54.890625 23.390625 
Q 54.890625 11.625 47.5625 5.09375 
Q 40.234375 -1.421875 26.90625 -1.421875 
Q 22.3125 -1.421875 17.546875 -0.640625 
Q 12.796875 0.140625 7.71875 1.703125 
L 7.71875 11.625 
Q 12.109375 9.234375 16.796875 8.0625 
Q 21.484375 6.890625 26.703125 6.890625 
Q 35.15625 6.890625 40.078125 11.328125 
Q 45.015625 15.765625 45.015625 23.390625 
Q 45.015625 31 40.078125 35.4375 
Q 35.15625 39.890625 26.703125 39.890625 
Q 22.75 39.890625 18.8125 39.015625 
Q 14.890625 38.140625 10.796875 36.28125 
z
" id="DejaVuSans-35"/>
      </defs>
      <g transform="translate(232.354688 1108.999219)scale(0.1 -0.1)">
       <use xlink:href="#DejaVuSans-2212"/>
       <use x="83.789062" xlink:href="#DejaVuSans-30"/>
       <use x="147.412109" xlink:href="#DejaVuSans-2e"/>
       <use x="179.199219" xlink:href="#DejaVuSans-37"/>
       <use x="242.822266" xlink:href="#DejaVuSans-35"/>
      </g>
     </g>
    </g>
    <g id="ytick_3">
     <g id="line2d_13">
      <g>
       <use style="stroke:#000000;stroke-width:0.8;" x="270" xlink:href="#mf3693913a6" y="979.2"/>
      </g>
     </g>
     <g id="text_13">
      <!-- −0.50 -->
      <g transform="translate(232.354688 982.999219)scale(0.1 -0.1)">
       <use xlink:href="#DejaVuSans-2212"/>
       <use x="83.789062" xlink:href="#DejaVuSans-30"/>
       <use x="147.412109" xlink:href="#DejaVuSans-2e"/>
       <use x="179.199219" xlink:href="#DejaVuSans-35"/>
       <use x="242.822266" xlink:href="#DejaVuSans-30"/>
      </g>
     </g>
    </g>
    <g id="ytick_4">
     <g id="line2d_14">
      <g>
       <use style="stroke:#000000;stroke-width:0.8;" x="270" xlink:href="#mf3693913a6" y="853.2"/>
      </g>
     </g>
     <g id="text_14">
      <!-- −0.25 -->
      <defs>
       <path d="M 19.1875 8.296875 
L 53.609375 8.296875 
L 53.609375 0 
L 7.328125 0 
L 7.328125 8.296875 
Q 12.9375 14.109375 22.625 23.890625 
Q 32.328125 33.6875 34.8125 36.53125 
Q 39.546875 41.84375 41.421875 45.53125 
Q 43.3125 49.21875 43.3125 52.78125 
Q 43.3125 58.59375 39.234375 62.25 
Q 35.15625 65.921875 28.609375 65.921875 
Q 23.96875 65.921875 18.8125 64.3125 
Q 13.671875 62.703125 7.8125 59.421875 
L 7.8125 69.390625 
Q 13.765625 71.78125 18.9375 73 
Q 24.125 74.21875 28.421875 74.21875 
Q 39.75 74.21875 46.484375 68.546875 
Q 53.21875 62.890625 53.21875 53.421875 
Q 53.21875 48.921875 51.53125 44.890625 
Q 49.859375 40.875 45.40625 35.40625 
Q 44.1875 33.984375 37.640625 27.21875 
Q 31.109375 20.453125 19.1875 8.296875 
z
" id="DejaVuSans-32"/>
      </defs>
      <g transform="translate(232.354688 856.999219)scale(0.1 -0.1)">
       <use xlink:href="#DejaVuSans-2212"/>
       <use x="83.789062" xlink:href="#DejaVuSans-30"/>
       <use x="147.412109" xlink:href="#DejaVuSans-2e"/>
       <use x="179.199219" xlink:href="#DejaVuSans-32"/>
       <use x="242.822266" xlink:href="#DejaVuSans-35"/>
      </g>
     </g>
    </g>
    <g id="ytick_5">
     <g id="line2d_15">
      <g>
       <use style="stroke:#000000;stroke-width:0.8;" x="270" xlink:href="#mf3693913a6" y="727.2"/>
      </g>
     </g>
     <g id="text_15">
      <!-- 0.00 -->
      <g transform="translate(240.734375 730.999219)scale(0.1 -0.1)">
       <use xlink:href="#DejaVuSans-30"/>
       <use x="63.623047" xlink:href="#DejaVuSans-2e"/>
       <use x="95.410156" xlink:href="#DejaVuSans-30"/>
       <use x="159.033203" xlink:href="#DejaVuSans-30"/>
      </g>
     </g>
    </g>
    <g id="ytick_6">
     <g id="line2d_16">
      <g>
       <use style="stroke:#000000;stroke-width:0.8;" x="270" xlink:href="#mf3693913a6" y="601.2"/>
      </g>
     </g>
     <g id="text_16">
      <!-- 0.25 -->
      <g transform="translate(240.734375 604.999219)scale(0.1 -0.1)">
       <use xlink:href="#DejaVuSans-30"/>
       <use x="63.623047" xlink:href="#DejaVuSans-2e"/>
       <use x="95.410156" xlink:href="#DejaVuSans-32"/>
       <use x="159.033203" xlink:href="#DejaVuSans-35"/>
      </g>
     </g>
    </g>
    <g id="ytick_7">
     <g id="line2d_17">
      <g>
       <use style="stroke:#000000;stroke-width:0.8;" x="270" xlink:href="#mf3693913a6" y="475.2"/>
      </g>
     </g>
     <g id="text_17">
      <!-- 0.50 -->
      <g transform="translate(240.734375 478.999219)scale(0.1 -0.1)">
       <use xlink:href="#DejaVuSans-30"/>
       <use x="63.623047" xlink:href="#DejaVuSans-2e"/>
       <use x="95.410156" xlink:href="#DejaVuSans-35"/>
       <use x="159.033203" xlink:href="#DejaVuSans-30"/>
      </g>
     </g>
    </g>
    <g id="ytick_8">
     <g id="line2d_18">
      <g>
       <use style="stroke:#000000;stroke-width:0.8;" x="270" xlink:href="#mf3693913a6" y="349.2"/>
      </g>
     </g>
     <g id="text_18">
      <!-- 0.75 -->
      <g transform="translate(240.734375 352.999219)scale(0.1 -0.1)">
       <use xlink:href="#DejaVuSans-30"/>
       <use x="63.623047" xlink:href="#DejaVuSans-2e"/>
       <use x="95.410156" xlink:href="#DejaVuSans-37"/>
       <use x="159.033203" xlink:href="#DejaVuSans-35"/>
      </g>
     </g>
    </g>
    <g id="ytick_9">
     <g id="line2d_19">
      <g>
       <use style="stroke:#000000;stroke-width:0.8;" x="270" xlink:href="#mf3693913a6" y="223.2"/>
      </g>
     </g>
     <g id="text_19">
      <!-- 1.00 -->
      <g transform="translate(240.734375 226.999219)scale(0.1 -0.1)">
       <use xlink:href="#DejaVuSans-31"/>
       <use x="63.623047" xlink:href="#DejaVuSans-2e"/>
       <use x="95.410156" xlink:href="#DejaVuSans-30"/>
       <use x="159.033203" xlink:href="#DejaVuSans-30"/>
      </g>
     </g>
    </g>
    <g id="text_20">
     <!-- Activation -->
     <defs>
      <path d="M 34.1875 63.1875 
L 20.796875 26.90625 
L 47.609375 26.90625 
z
M 28.609375 72.90625 
L 39.796875 72.90625 
L 67.578125 0 
L 57.328125 0 
L 50.6875 18.703125 
L 17.828125 18.703125 
L 11.1875 0 
L 0.78125 0 
z
" id="DejaVuSans-41"/>
     </defs>
     <g transform="translate(222.9475 792.50875)rotate(-90)scale(0.26 -0.26)">
      <use xlink:href="#DejaVuSans-41"/>
      <use x="68.392578" xlink:href="#DejaVuSans-63"/>
      <use x="123.373047" xlink:href="#DejaVuSans-74"/>
      <use x="162.582031" xlink:href="#DejaVuSans-69"/>
      <use x="190.365234" xlink:href="#DejaVuSans-76"/>
      <use x="249.544922" xlink:href="#DejaVuSans-61"/>
      <use x="310.824219" xlink:href="#DejaVuSans-74"/>
      <use x="350.033203" xlink:href="#DejaVuSans-69"/>
      <use x="377.816406" xlink:href="#DejaVuSans-6f"/>
      <use x="438.998047" xlink:href="#DejaVuSans-6e"/>
     </g>
    </g>
   </g>
   <g id="LineCollection_1">
    <path clip-path="url(#p5f2fb87a97)" d="M 304.586777 725.747201 
L 304.586777 720.972616 
" style="fill:none;stroke:#1f77b4;stroke-width:3;"/>
    <path clip-path="url(#p5f2fb87a97)" d="M 381.446281 723.628041 
L 381.446281 713.722888 
" style="fill:none;stroke:#1f77b4;stroke-width:3;"/>
    <path clip-path="url(#p5f2fb87a97)" d="M 458.305785 713.625924 
L 458.305785 689.389236 
" style="fill:none;stroke:#1f77b4;stroke-width:3;"/>
    <path clip-path="url(#p5f2fb87a97)" d="M 535.165289 724.216285 
L 535.165289 719.853242 
" style="fill:none;stroke:#1f77b4;stroke-width:3;"/>
    <path clip-path="url(#p5f2fb87a97)" d="M 612.024793 795.978405 
L 612.024793 731.932573 
" style="fill:none;stroke:#1f77b4;stroke-width:3;"/>
    <path clip-path="url(#p5f2fb87a97)" d="M 688.884298 791.456244 
L 688.884298 722.791989 
" style="fill:none;stroke:#1f77b4;stroke-width:3;"/>
    <path clip-path="url(#p5f2fb87a97)" d="M 765.743802 758.523548 
L 765.743802 718.050767 
" style="fill:none;stroke:#1f77b4;stroke-width:3;"/>
    <path clip-path="url(#p5f2fb87a97)" d="M 842.603306 728.003056 
L 842.603306 725.785683 
" style="fill:none;stroke:#1f77b4;stroke-width:3;"/>
    <path clip-path="url(#p5f2fb87a97)" d="M 919.46281 729.587236 
L 919.46281 727.268844 
" style="fill:none;stroke:#1f77b4;stroke-width:3;"/>
    <path clip-path="url(#p5f2fb87a97)" d="M 996.322314 769.35088 
L 996.322314 746.495038 
" style="fill:none;stroke:#1f77b4;stroke-width:3;"/>
   </g>
   <g id="LineCollection_2">
    <path clip-path="url(#p5f2fb87a97)" d="M 304.586777 725.719867 
L 304.586777 717.133165 
" style="fill:none;stroke:#ff7f0e;stroke-width:3;"/>
    <path clip-path="url(#p5f2fb87a97)" d="M 381.446281 720.696757 
L 381.446281 706.746353 
" style="fill:none;stroke:#ff7f0e;stroke-width:3;"/>
    <path clip-path="url(#p5f2fb87a97)" d="M 458.305785 706.447427 
L 458.305785 657.09853 
" style="fill:none;stroke:#ff7f0e;stroke-width:3;"/>
    <path clip-path="url(#p5f2fb87a97)" d="M 535.165289 724.131792 
L 535.165289 719.653087 
" style="fill:none;stroke:#ff7f0e;stroke-width:3;"/>
    <path clip-path="url(#p5f2fb87a97)" d="M 612.024793 1137.707451 
L 612.024793 983.80396 
" style="fill:none;stroke:#ff7f0e;stroke-width:3;"/>
    <path clip-path="url(#p5f2fb87a97)" d="M 688.884298 801.454078 
L 688.884298 718.84835 
" style="fill:none;stroke:#ff7f0e;stroke-width:3;"/>
    <path clip-path="url(#p5f2fb87a97)" d="M 765.743802 771.760736 
L 765.743802 714.909841 
" style="fill:none;stroke:#ff7f0e;stroke-width:3;"/>
    <path clip-path="url(#p5f2fb87a97)" d="M 842.603306 728.770353 
L 842.603306 724.501792 
" style="fill:none;stroke:#ff7f0e;stroke-width:3;"/>
    <path clip-path="url(#p5f2fb87a97)" d="M 919.46281 1227.39866 
L 919.46281 1190.098813 
" style="fill:none;stroke:#ff7f0e;stroke-width:3;"/>
    <path clip-path="url(#p5f2fb87a97)" d="M 996.322314 1274.12544 
L 996.322314 1006.510874 
" style="fill:none;stroke:#ff7f0e;stroke-width:3;"/>
   </g>
   <g id="LineCollection_3">
    <path clip-path="url(#p5f2fb87a97)" d="M 304.586777 223.205292 
L 304.586777 223.198618 
" style="fill:none;stroke:#2ca02c;stroke-width:3;"/>
    <path clip-path="url(#p5f2fb87a97)" d="M 381.446281 465.326315 
L 381.446281 99.584944 
" style="fill:none;stroke:#2ca02c;stroke-width:3;"/>
    <path clip-path="url(#p5f2fb87a97)" d="M 458.305785 231.400251 
L 458.305785 221.822738 
" style="fill:none;stroke:#2ca02c;stroke-width:3;"/>
    <path clip-path="url(#p5f2fb87a97)" d="M 535.165289 241.670737 
L 535.165289 227.206929 
" style="fill:none;stroke:#2ca02c;stroke-width:3;"/>
    <path clip-path="url(#p5f2fb87a97)" d="M 612.024793 1231.268188 
L 612.024793 1230.875039 
" style="fill:none;stroke:#2ca02c;stroke-width:3;"/>
    <path clip-path="url(#p5f2fb87a97)" d="M 688.884298 275.275526 
L 688.884298 193.245744 
" style="fill:none;stroke:#2ca02c;stroke-width:3;"/>
    <path clip-path="url(#p5f2fb87a97)" d="M 765.743802 454.187446 
L 765.743802 96.267092 
" style="fill:none;stroke:#2ca02c;stroke-width:3;"/>
    <path clip-path="url(#p5f2fb87a97)" d="M 842.603306 254.534398 
L 842.603306 227.280273 
" style="fill:none;stroke:#2ca02c;stroke-width:3;"/>
    <path clip-path="url(#p5f2fb87a97)" d="M 919.46281 1231.205377 
L 919.46281 1231.188779 
" style="fill:none;stroke:#2ca02c;stroke-width:3;"/>
    <path clip-path="url(#p5f2fb87a97)" d="M 996.322314 1239.838225 
L 996.322314 1212.1444 
" style="fill:none;stroke:#2ca02c;stroke-width:3;"/>
   </g>
   <g id="line2d_20">
    <path clip-path="url(#p5f2fb87a97)" d="M 304.586777 723.359909 
L 381.446281 718.675465 
L 458.305785 701.50758 
L 535.165289 722.034763 
L 612.024793 763.955489 
L 688.884298 757.124117 
L 765.743802 738.287157 
L 842.603306 726.89437 
L 919.46281 728.42804 
L 996.322314 757.922959 
" style="fill:none;stroke:#1f77b4;stroke-linecap:square;stroke-width:3;"/>
   </g>
   <g id="line2d_21">
    <path clip-path="url(#p5f2fb87a97)" d="M 304.586777 721.426516 
L 381.446281 713.721555 
L 458.305785 681.772978 
L 535.165289 721.892439 
L 612.024793 1060.755706 
L 688.884298 760.151214 
L 765.743802 743.335288 
L 842.603306 726.636072 
L 919.46281 1208.748736 
L 996.322314 1140.318157 
" style="fill:none;stroke:#ff7f0e;stroke-linecap:square;stroke-width:3;"/>
   </g>
   <g id="line2d_22">
    <path clip-path="url(#p5f2fb87a97)" d="M 304.586777 223.201955 
L 381.446281 282.45563 
L 458.305785 226.611494 
L 535.165289 234.438833 
L 612.024793 1231.071614 
L 688.884298 234.260635 
L 765.743802 275.227269 
L 842.603306 240.907336 
L 919.46281 1231.197078 
L 996.322314 1225.991313 
" style="fill:none;stroke:#2ca02c;stroke-linecap:square;stroke-width:3;"/>
   </g>
   <g id="patch_3">
    <path d="M 270 1281.6 
L 270 172.8 
" style="fill:none;stroke:#000000;stroke-linecap:square;stroke-linejoin:miter;stroke-width:0.8;"/>
   </g>
   <g id="patch_4">
    <path d="M 1030.909091 1281.6 
L 1030.909091 172.8 
" style="fill:none;stroke:#000000;stroke-linecap:square;stroke-linejoin:miter;stroke-width:0.8;"/>
   </g>
   <g id="patch_5">
    <path d="M 270 1281.6 
L 1030.909091 1281.6 
" style="fill:none;stroke:#000000;stroke-linecap:square;stroke-linejoin:miter;stroke-width:0.8;"/>
   </g>
   <g id="patch_6">
    <path d="M 270 172.8 
L 1030.909091 172.8 
" style="fill:none;stroke:#000000;stroke-linecap:square;stroke-linejoin:miter;stroke-width:0.8;"/>
   </g>
   <g id="legend_1">
    <g id="patch_7">
     <path d="M 1065.345455 172.8 
L 1256.17358 172.8 
Q 1260.17358 172.8 1260.17358 168.8 
L 1260.17358 82.175 
Q 1260.17358 78.175 1256.17358 78.175 
L 1065.345455 78.175 
Q 1061.345455 78.175 1061.345455 82.175 
L 1061.345455 168.8 
Q 1061.345455 172.8 1065.345455 172.8 
z
" style="fill:#ffffff;opacity:0.8;stroke:#cccccc;stroke-linejoin:miter;"/>
    </g>
    <g id="LineCollection_4">
     <path d="M 1089.345455 104.371875 
L 1089.345455 84.371875 
" style="fill:none;stroke:#1f77b4;stroke-width:3;"/>
    </g>
    <g id="line2d_23">
     <path d="M 1069.345455 94.371875 
L 1109.345455 94.371875 
" style="fill:none;stroke:#1f77b4;stroke-linecap:square;stroke-width:3;"/>
    </g>
    <g id="line2d_24"/>
    <g id="text_21">
     <!-- hidden -->
     <defs>
      <path d="M 54.890625 33.015625 
L 54.890625 0 
L 45.90625 0 
L 45.90625 32.71875 
Q 45.90625 40.484375 42.875 44.328125 
Q 39.84375 48.1875 33.796875 48.1875 
Q 26.515625 48.1875 22.3125 43.546875 
Q 18.109375 38.921875 18.109375 30.90625 
L 18.109375 0 
L 9.078125 0 
L 9.078125 75.984375 
L 18.109375 75.984375 
L 18.109375 46.1875 
Q 21.34375 51.125 25.703125 53.5625 
Q 30.078125 56 35.796875 56 
Q 45.21875 56 50.046875 50.171875 
Q 54.890625 44.34375 54.890625 33.015625 
z
" id="DejaVuSans-68"/>
      <path d="M 45.40625 46.390625 
L 45.40625 75.984375 
L 54.390625 75.984375 
L 54.390625 0 
L 45.40625 0 
L 45.40625 8.203125 
Q 42.578125 3.328125 38.25 0.953125 
Q 33.9375 -1.421875 27.875 -1.421875 
Q 17.96875 -1.421875 11.734375 6.484375 
Q 5.515625 14.40625 5.515625 27.296875 
Q 5.515625 40.1875 11.734375 48.09375 
Q 17.96875 56 27.875 56 
Q 33.9375 56 38.25 53.625 
Q 42.578125 51.265625 45.40625 46.390625 
z
M 14.796875 27.296875 
Q 14.796875 17.390625 18.875 11.75 
Q 22.953125 6.109375 30.078125 6.109375 
Q 37.203125 6.109375 41.296875 11.75 
Q 45.40625 17.390625 45.40625 27.296875 
Q 45.40625 37.203125 41.296875 42.84375 
Q 37.203125 48.484375 30.078125 48.484375 
Q 22.953125 48.484375 18.875 42.84375 
Q 14.796875 37.203125 14.796875 27.296875 
z
" id="DejaVuSans-64"/>
     </defs>
     <g transform="translate(1125.345455 101.371875)scale(0.2 -0.2)">
      <use xlink:href="#DejaVuSans-68"/>
      <use x="63.378906" xlink:href="#DejaVuSans-69"/>
      <use x="91.162109" xlink:href="#DejaVuSans-64"/>
      <use x="154.638672" xlink:href="#DejaVuSans-64"/>
      <use x="218.115234" xlink:href="#DejaVuSans-65"/>
      <use x="279.638672" xlink:href="#DejaVuSans-6e"/>
     </g>
    </g>
    <g id="LineCollection_5">
     <path d="M 1089.345455 133.728125 
L 1089.345455 113.728125 
" style="fill:none;stroke:#ff7f0e;stroke-width:3;"/>
    </g>
    <g id="line2d_25">
     <path d="M 1069.345455 123.728125 
L 1109.345455 123.728125 
" style="fill:none;stroke:#ff7f0e;stroke-linecap:square;stroke-width:3;"/>
    </g>
    <g id="line2d_26"/>
    <g id="text_22">
     <!-- cell -->
     <g transform="translate(1125.345455 130.728125)scale(0.2 -0.2)">
      <use xlink:href="#DejaVuSans-63"/>
      <use x="54.980469" xlink:href="#DejaVuSans-65"/>
      <use x="116.503906" xlink:href="#DejaVuSans-6c"/>
      <use x="144.287109" xlink:href="#DejaVuSans-6c"/>
     </g>
    </g>
    <g id="LineCollection_6">
     <path d="M 1089.345455 163.084375 
L 1089.345455 143.084375 
" style="fill:none;stroke:#2ca02c;stroke-width:3;"/>
    </g>
    <g id="line2d_27">
     <path d="M 1069.345455 153.084375 
L 1109.345455 153.084375 
" style="fill:none;stroke:#2ca02c;stroke-linecap:square;stroke-width:3;"/>
    </g>
    <g id="line2d_28"/>
    <g id="text_23">
     <!-- gates.c_tilde -->
     <defs>
      <path d="M 45.40625 27.984375 
Q 45.40625 37.75 41.375 43.109375 
Q 37.359375 48.484375 30.078125 48.484375 
Q 22.859375 48.484375 18.828125 43.109375 
Q 14.796875 37.75 14.796875 27.984375 
Q 14.796875 18.265625 18.828125 12.890625 
Q 22.859375 7.515625 30.078125 7.515625 
Q 37.359375 7.515625 41.375 12.890625 
Q 45.40625 18.265625 45.40625 27.984375 
z
M 54.390625 6.78125 
Q 54.390625 -7.171875 48.1875 -13.984375 
Q 42 -20.796875 29.203125 -20.796875 
Q 24.46875 -20.796875 20.265625 -20.09375 
Q 16.0625 -19.390625 12.109375 -17.921875 
L 12.109375 -9.1875 
Q 16.0625 -11.328125 19.921875 -12.34375 
Q 23.78125 -13.375 27.78125 -13.375 
Q 36.625 -13.375 41.015625 -8.765625 
Q 45.40625 -4.15625 45.40625 5.171875 
L 45.40625 9.625 
Q 42.625 4.78125 38.28125 2.390625 
Q 33.9375 0 27.875 0 
Q 17.828125 0 11.671875 7.65625 
Q 5.515625 15.328125 5.515625 27.984375 
Q 5.515625 40.671875 11.671875 48.328125 
Q 17.828125 56 27.875 56 
Q 33.9375 56 38.28125 53.609375 
Q 42.625 51.21875 45.40625 46.390625 
L 45.40625 54.6875 
L 54.390625 54.6875 
z
" id="DejaVuSans-67"/>
      <path d="M 50.984375 -16.609375 
L 50.984375 -23.578125 
L -0.984375 -23.578125 
L -0.984375 -16.609375 
z
" id="DejaVuSans-5f"/>
     </defs>
     <g transform="translate(1125.345455 160.084375)scale(0.2 -0.2)">
      <use xlink:href="#DejaVuSans-67"/>
      <use x="63.476562" xlink:href="#DejaVuSans-61"/>
      <use x="124.755859" xlink:href="#DejaVuSans-74"/>
      <use x="163.964844" xlink:href="#DejaVuSans-65"/>
      <use x="225.488281" xlink:href="#DejaVuSans-73"/>
      <use x="277.587891" xlink:href="#DejaVuSans-2e"/>
      <use x="309.375" xlink:href="#DejaVuSans-63"/>
      <use x="364.355469" xlink:href="#DejaVuSans-5f"/>
      <use x="414.355469" xlink:href="#DejaVuSans-74"/>
      <use x="453.564453" xlink:href="#DejaVuSans-69"/>
      <use x="481.347656" xlink:href="#DejaVuSans-6c"/>
      <use x="509.130859" xlink:href="#DejaVuSans-64"/>
      <use x="572.607422" xlink:href="#DejaVuSans-65"/>
     </g>
    </g>
   </g>
  </g>
  <g id="axes_2">
   <g id="patch_8">
    <path d="M 1183.090909 1281.6 
L 1944 1281.6 
L 1944 172.8 
L 1183.090909 172.8 
z
" style="fill:#ffffff;"/>
   </g>
   <g id="matplotlib.axis_3">
    <g id="xtick_11">
     <g id="line2d_29">
      <g>
       <use style="stroke:#000000;stroke-width:0.8;" x="1217.677686" xlink:href="#m92b44b27d4" y="1281.6"/>
      </g>
     </g>
     <g id="text_24">
      <!-- cet -->
      <g transform="translate(1223.748311 1322.858125)rotate(-90)scale(0.22 -0.22)">
       <use xlink:href="#DejaVuSans-63"/>
       <use x="54.980469" xlink:href="#DejaVuSans-65"/>
       <use x="116.503906" xlink:href="#DejaVuSans-74"/>
      </g>
     </g>
    </g>
    <g id="xtick_12">
     <g id="line2d_30">
      <g>
       <use style="stroke:#000000;stroke-width:0.8;" x="1294.53719" xlink:href="#m92b44b27d4" y="1281.6"/>
      </g>
     </g>
     <g id="text_25">
      <!-- oncle -->
      <g transform="translate(1300.607815 1347.749063)rotate(-90)scale(0.22 -0.22)">
       <use xlink:href="#DejaVuSans-6f"/>
       <use x="61.181641" xlink:href="#DejaVuSans-6e"/>
       <use x="124.560547" xlink:href="#DejaVuSans-63"/>
       <use x="179.541016" xlink:href="#DejaVuSans-6c"/>
       <use x="207.324219" xlink:href="#DejaVuSans-65"/>
      </g>
     </g>
    </g>
    <g id="xtick_13">
     <g id="line2d_31">
      <g>
       <use style="stroke:#000000;stroke-width:0.8;" x="1371.396694" xlink:href="#m92b44b27d4" y="1281.6"/>
      </g>
     </g>
     <g id="text_26">
      <!-- nerveux -->
      <g transform="translate(1377.467319 1378.645313)rotate(-90)scale(0.22 -0.22)">
       <use xlink:href="#DejaVuSans-6e"/>
       <use x="63.378906" xlink:href="#DejaVuSans-65"/>
       <use x="124.902344" xlink:href="#DejaVuSans-72"/>
       <use x="166.015625" xlink:href="#DejaVuSans-76"/>
       <use x="225.195312" xlink:href="#DejaVuSans-65"/>
       <use x="286.71875" xlink:href="#DejaVuSans-75"/>
       <use x="350.097656" xlink:href="#DejaVuSans-78"/>
      </g>
     </g>
    </g>
    <g id="xtick_14">
     <g id="line2d_32">
      <g>
       <use style="stroke:#000000;stroke-width:0.8;" x="1448.256198" xlink:href="#m92b44b27d4" y="1281.6"/>
      </g>
     </g>
     <g id="text_27">
      <!-- qui -->
      <g transform="translate(1454.326823 1322.620938)rotate(-90)scale(0.22 -0.22)">
       <use xlink:href="#DejaVuSans-71"/>
       <use x="63.476562" xlink:href="#DejaVuSans-75"/>
       <use x="126.855469" xlink:href="#DejaVuSans-69"/>
      </g>
     </g>
    </g>
    <g id="xtick_15">
     <g id="line2d_33">
      <g>
       <use style="stroke:#000000;stroke-width:0.8;" x="1525.115702" xlink:href="#m92b44b27d4" y="1281.6"/>
      </g>
     </g>
     <g id="text_28">
      <!-- contacte -->
      <g transform="translate(1531.186327 1384.465)rotate(-90)scale(0.22 -0.22)">
       <use xlink:href="#DejaVuSans-63"/>
       <use x="54.980469" xlink:href="#DejaVuSans-6f"/>
       <use x="116.162109" xlink:href="#DejaVuSans-6e"/>
       <use x="179.541016" xlink:href="#DejaVuSans-74"/>
       <use x="218.75" xlink:href="#DejaVuSans-61"/>
       <use x="280.029297" xlink:href="#DejaVuSans-63"/>
       <use x="335.009766" xlink:href="#DejaVuSans-74"/>
       <use x="374.21875" xlink:href="#DejaVuSans-65"/>
      </g>
     </g>
    </g>
    <g id="xtick_16">
     <g id="line2d_34">
      <g>
       <use style="stroke:#000000;stroke-width:0.8;" x="1601.975207" xlink:href="#m92b44b27d4" y="1281.6"/>
      </g>
     </g>
     <g id="text_29">
      <!-- les -->
      <g transform="translate(1608.045832 1319.709375)rotate(-90)scale(0.22 -0.22)">
       <use xlink:href="#DejaVuSans-6c"/>
       <use x="27.783203" xlink:href="#DejaVuSans-65"/>
       <use x="89.306641" xlink:href="#DejaVuSans-73"/>
      </g>
     </g>
    </g>
    <g id="xtick_17">
     <g id="line2d_35">
      <g>
       <use style="stroke:#000000;stroke-width:0.8;" x="1678.834711" xlink:href="#m92b44b27d4" y="1281.6"/>
      </g>
     </g>
     <g id="text_30">
      <!-- coiffeurs -->
      <g transform="translate(1684.905336 1383.743125)rotate(-90)scale(0.22 -0.22)">
       <use xlink:href="#DejaVuSans-63"/>
       <use x="54.980469" xlink:href="#DejaVuSans-6f"/>
       <use x="116.162109" xlink:href="#DejaVuSans-69"/>
       <use x="143.945312" xlink:href="#DejaVuSans-66"/>
       <use x="179.150391" xlink:href="#DejaVuSans-66"/>
       <use x="214.355469" xlink:href="#DejaVuSans-65"/>
       <use x="275.878906" xlink:href="#DejaVuSans-75"/>
       <use x="339.257812" xlink:href="#DejaVuSans-72"/>
       <use x="380.371094" xlink:href="#DejaVuSans-73"/>
      </g>
     </g>
    </g>
    <g id="xtick_18">
     <g id="line2d_36">
      <g>
       <use style="stroke:#000000;stroke-width:0.8;" x="1755.694215" xlink:href="#m92b44b27d4" y="1281.6"/>
      </g>
     </g>
     <g id="text_31">
      <!-- ne -->
      <g transform="translate(1761.76484 1316.079375)rotate(-90)scale(0.22 -0.22)">
       <use xlink:href="#DejaVuSans-6e"/>
       <use x="63.378906" xlink:href="#DejaVuSans-65"/>
      </g>
     </g>
    </g>
    <g id="xtick_19">
     <g id="line2d_37">
      <g>
       <use style="stroke:#000000;stroke-width:0.8;" x="1832.553719" xlink:href="#m92b44b27d4" y="1281.6"/>
      </g>
     </g>
     <g id="text_32">
      <!-- jeta -->
      <g transform="translate(1838.624344 1330.355313)rotate(-90)scale(0.22 -0.22)">
       <use xlink:href="#DejaVuSans-6a"/>
       <use x="27.783203" xlink:href="#DejaVuSans-65"/>
       <use x="89.306641" xlink:href="#DejaVuSans-74"/>
       <use x="128.515625" xlink:href="#DejaVuSans-61"/>
      </g>
     </g>
    </g>
    <g id="xtick_20">
     <g id="line2d_38">
      <g>
       <use style="stroke:#000000;stroke-width:0.8;" x="1909.413223" xlink:href="#m92b44b27d4" y="1281.6"/>
      </g>
     </g>
     <g id="text_33">
      <!-- pas -->
      <g transform="translate(1903.166254 1327.509063)rotate(-90)scale(0.22 -0.22)">
       <use xlink:href="#DejaVuSans-70"/>
       <use x="63.476562" xlink:href="#DejaVuSans-61"/>
       <use x="124.755859" xlink:href="#DejaVuSans-73"/>
      </g>
      <!--  -->
      <g transform="translate(1927.801442 1308.054531)rotate(-90)scale(0.22 -0.22)"/>
     </g>
    </g>
   </g>
   <g id="matplotlib.axis_4">
    <g id="ytick_10">
     <g id="line2d_39">
      <g>
       <use style="stroke:#000000;stroke-width:0.8;" x="1183.090909" xlink:href="#mf3693913a6" y="1189.2"/>
      </g>
     </g>
     <g id="text_34">
      <!-- 0.0 -->
      <g transform="translate(1160.187784 1192.999219)scale(0.1 -0.1)">
       <use xlink:href="#DejaVuSans-30"/>
       <use x="63.623047" xlink:href="#DejaVuSans-2e"/>
       <use x="95.410156" xlink:href="#DejaVuSans-30"/>
      </g>
     </g>
    </g>
    <g id="ytick_11">
     <g id="line2d_40">
      <g>
       <use style="stroke:#000000;stroke-width:0.8;" x="1183.090909" xlink:href="#mf3693913a6" y="1004.4"/>
      </g>
     </g>
     <g id="text_35">
      <!-- 0.2 -->
      <g transform="translate(1160.187784 1008.199219)scale(0.1 -0.1)">
       <use xlink:href="#DejaVuSans-30"/>
       <use x="63.623047" xlink:href="#DejaVuSans-2e"/>
       <use x="95.410156" xlink:href="#DejaVuSans-32"/>
      </g>
     </g>
    </g>
    <g id="ytick_12">
     <g id="line2d_41">
      <g>
       <use style="stroke:#000000;stroke-width:0.8;" x="1183.090909" xlink:href="#mf3693913a6" y="819.6"/>
      </g>
     </g>
     <g id="text_36">
      <!-- 0.4 -->
      <defs>
       <path d="M 37.796875 64.3125 
L 12.890625 25.390625 
L 37.796875 25.390625 
z
M 35.203125 72.90625 
L 47.609375 72.90625 
L 47.609375 25.390625 
L 58.015625 25.390625 
L 58.015625 17.1875 
L 47.609375 17.1875 
L 47.609375 0 
L 37.796875 0 
L 37.796875 17.1875 
L 4.890625 17.1875 
L 4.890625 26.703125 
z
" id="DejaVuSans-34"/>
      </defs>
      <g transform="translate(1160.187784 823.399219)scale(0.1 -0.1)">
       <use xlink:href="#DejaVuSans-30"/>
       <use x="63.623047" xlink:href="#DejaVuSans-2e"/>
       <use x="95.410156" xlink:href="#DejaVuSans-34"/>
      </g>
     </g>
    </g>
    <g id="ytick_13">
     <g id="line2d_42">
      <g>
       <use style="stroke:#000000;stroke-width:0.8;" x="1183.090909" xlink:href="#mf3693913a6" y="634.8"/>
      </g>
     </g>
     <g id="text_37">
      <!-- 0.6 -->
      <defs>
       <path d="M 33.015625 40.375 
Q 26.375 40.375 22.484375 35.828125 
Q 18.609375 31.296875 18.609375 23.390625 
Q 18.609375 15.53125 22.484375 10.953125 
Q 26.375 6.390625 33.015625 6.390625 
Q 39.65625 6.390625 43.53125 10.953125 
Q 47.40625 15.53125 47.40625 23.390625 
Q 47.40625 31.296875 43.53125 35.828125 
Q 39.65625 40.375 33.015625 40.375 
z
M 52.59375 71.296875 
L 52.59375 62.3125 
Q 48.875 64.0625 45.09375 64.984375 
Q 41.3125 65.921875 37.59375 65.921875 
Q 27.828125 65.921875 22.671875 59.328125 
Q 17.53125 52.734375 16.796875 39.40625 
Q 19.671875 43.65625 24.015625 45.921875 
Q 28.375 48.1875 33.59375 48.1875 
Q 44.578125 48.1875 50.953125 41.515625 
Q 57.328125 34.859375 57.328125 23.390625 
Q 57.328125 12.15625 50.6875 5.359375 
Q 44.046875 -1.421875 33.015625 -1.421875 
Q 20.359375 -1.421875 13.671875 8.265625 
Q 6.984375 17.96875 6.984375 36.375 
Q 6.984375 53.65625 15.1875 63.9375 
Q 23.390625 74.21875 37.203125 74.21875 
Q 40.921875 74.21875 44.703125 73.484375 
Q 48.484375 72.75 52.59375 71.296875 
z
" id="DejaVuSans-36"/>
      </defs>
      <g transform="translate(1160.187784 638.599219)scale(0.1 -0.1)">
       <use xlink:href="#DejaVuSans-30"/>
       <use x="63.623047" xlink:href="#DejaVuSans-2e"/>
       <use x="95.410156" xlink:href="#DejaVuSans-36"/>
      </g>
     </g>
    </g>
    <g id="ytick_14">
     <g id="line2d_43">
      <g>
       <use style="stroke:#000000;stroke-width:0.8;" x="1183.090909" xlink:href="#mf3693913a6" y="450"/>
      </g>
     </g>
     <g id="text_38">
      <!-- 0.8 -->
      <defs>
       <path d="M 31.78125 34.625 
Q 24.75 34.625 20.71875 30.859375 
Q 16.703125 27.09375 16.703125 20.515625 
Q 16.703125 13.921875 20.71875 10.15625 
Q 24.75 6.390625 31.78125 6.390625 
Q 38.8125 6.390625 42.859375 10.171875 
Q 46.921875 13.96875 46.921875 20.515625 
Q 46.921875 27.09375 42.890625 30.859375 
Q 38.875 34.625 31.78125 34.625 
z
M 21.921875 38.8125 
Q 15.578125 40.375 12.03125 44.71875 
Q 8.5 49.078125 8.5 55.328125 
Q 8.5 64.0625 14.71875 69.140625 
Q 20.953125 74.21875 31.78125 74.21875 
Q 42.671875 74.21875 48.875 69.140625 
Q 55.078125 64.0625 55.078125 55.328125 
Q 55.078125 49.078125 51.53125 44.71875 
Q 48 40.375 41.703125 38.8125 
Q 48.828125 37.15625 52.796875 32.3125 
Q 56.78125 27.484375 56.78125 20.515625 
Q 56.78125 9.90625 50.3125 4.234375 
Q 43.84375 -1.421875 31.78125 -1.421875 
Q 19.734375 -1.421875 13.25 4.234375 
Q 6.78125 9.90625 6.78125 20.515625 
Q 6.78125 27.484375 10.78125 32.3125 
Q 14.796875 37.15625 21.921875 38.8125 
z
M 18.3125 54.390625 
Q 18.3125 48.734375 21.84375 45.5625 
Q 25.390625 42.390625 31.78125 42.390625 
Q 38.140625 42.390625 41.71875 45.5625 
Q 45.3125 48.734375 45.3125 54.390625 
Q 45.3125 60.0625 41.71875 63.234375 
Q 38.140625 66.40625 31.78125 66.40625 
Q 25.390625 66.40625 21.84375 63.234375 
Q 18.3125 60.0625 18.3125 54.390625 
z
" id="DejaVuSans-38"/>
      </defs>
      <g transform="translate(1160.187784 453.799219)scale(0.1 -0.1)">
       <use xlink:href="#DejaVuSans-30"/>
       <use x="63.623047" xlink:href="#DejaVuSans-2e"/>
       <use x="95.410156" xlink:href="#DejaVuSans-38"/>
      </g>
     </g>
    </g>
    <g id="ytick_15">
     <g id="line2d_44">
      <g>
       <use style="stroke:#000000;stroke-width:0.8;" x="1183.090909" xlink:href="#mf3693913a6" y="265.2"/>
      </g>
     </g>
     <g id="text_39">
      <!-- 1.0 -->
      <g transform="translate(1160.187784 268.999219)scale(0.1 -0.1)">
       <use xlink:href="#DejaVuSans-31"/>
       <use x="63.623047" xlink:href="#DejaVuSans-2e"/>
       <use x="95.410156" xlink:href="#DejaVuSans-30"/>
      </g>
     </g>
    </g>
    <g id="text_40">
     <!-- Activation -->
     <g transform="translate(1150.780597 792.50875)rotate(-90)scale(0.26 -0.26)">
      <use xlink:href="#DejaVuSans-41"/>
      <use x="68.392578" xlink:href="#DejaVuSans-63"/>
      <use x="123.373047" xlink:href="#DejaVuSans-74"/>
      <use x="162.582031" xlink:href="#DejaVuSans-69"/>
      <use x="190.365234" xlink:href="#DejaVuSans-76"/>
      <use x="249.544922" xlink:href="#DejaVuSans-61"/>
      <use x="310.824219" xlink:href="#DejaVuSans-74"/>
      <use x="350.033203" xlink:href="#DejaVuSans-69"/>
      <use x="377.816406" xlink:href="#DejaVuSans-6f"/>
      <use x="438.998047" xlink:href="#DejaVuSans-6e"/>
     </g>
    </g>
   </g>
   <g id="LineCollection_7">
    <path clip-path="url(#p5118a70ce5)" d="M 1217.677686 1184.786608 
L 1217.677686 1170.261773 
" style="fill:none;stroke:#1f77b4;stroke-width:3;"/>
    <path clip-path="url(#p5118a70ce5)" d="M 1294.53719 1175.058542 
L 1294.53719 1154.43776 
" style="fill:none;stroke:#1f77b4;stroke-width:3;"/>
    <path clip-path="url(#p5118a70ce5)" d="M 1371.396694 1153.852248 
L 1371.396694 1062.884407 
" style="fill:none;stroke:#1f77b4;stroke-width:3;"/>
    <path clip-path="url(#p5118a70ce5)" d="M 1448.256198 1183.692955 
L 1448.256198 1175.480084 
" style="fill:none;stroke:#1f77b4;stroke-width:3;"/>
    <path clip-path="url(#p5118a70ce5)" d="M 1525.115702 718.360496 
L 1525.115702 436.415606 
" style="fill:none;stroke:#1f77b4;stroke-width:3;"/>
    <path clip-path="url(#p5118a70ce5)" d="M 1601.975207 1192.203076 
L 1601.975207 1139.252196 
" style="fill:none;stroke:#1f77b4;stroke-width:3;"/>
    <path clip-path="url(#p5118a70ce5)" d="M 1678.834711 1185.68538 
L 1678.834711 1173.473361 
" style="fill:none;stroke:#1f77b4;stroke-width:3;"/>
    <path clip-path="url(#p5118a70ce5)" d="M 1755.694215 1187.546672 
L 1755.694215 1183.41053 
" style="fill:none;stroke:#1f77b4;stroke-width:3;"/>
    <path clip-path="url(#p5118a70ce5)" d="M 1832.553719 340.75292 
L 1832.553719 271.385608 
" style="fill:none;stroke:#1f77b4;stroke-width:3;"/>
    <path clip-path="url(#p5118a70ce5)" d="M 1909.413223 789.890679 
L 1909.413223 370.442115 
" style="fill:none;stroke:#1f77b4;stroke-width:3;"/>
   </g>
   <g id="LineCollection_8">
    <path clip-path="url(#p5118a70ce5)" d="M 1217.677686 1171.834521 
L 1217.677686 1099.636185 
" style="fill:none;stroke:#ff7f0e;stroke-width:3;"/>
    <path clip-path="url(#p5118a70ce5)" d="M 1294.53719 1180.206626 
L 1294.53719 884.895374 
" style="fill:none;stroke:#ff7f0e;stroke-width:3;"/>
    <path clip-path="url(#p5118a70ce5)" d="M 1371.396694 1175.12784 
L 1371.396694 934.921624 
" style="fill:none;stroke:#ff7f0e;stroke-width:3;"/>
    <path clip-path="url(#p5118a70ce5)" d="M 1448.256198 1188.876575 
L 1448.256198 1180.897666 
" style="fill:none;stroke:#ff7f0e;stroke-width:3;"/>
    <path clip-path="url(#p5118a70ce5)" d="M 1525.115702 1186.947825 
L 1525.115702 1158.746343 
" style="fill:none;stroke:#ff7f0e;stroke-width:3;"/>
    <path clip-path="url(#p5118a70ce5)" d="M 1601.975207 1149.729431 
L 1601.975207 983.84884 
" style="fill:none;stroke:#ff7f0e;stroke-width:3;"/>
    <path clip-path="url(#p5118a70ce5)" d="M 1678.834711 983.094873 
L 1678.834711 511.578843 
" style="fill:none;stroke:#ff7f0e;stroke-width:3;"/>
    <path clip-path="url(#p5118a70ce5)" d="M 1755.694215 1175.764416 
L 1755.694215 1091.539747 
" style="fill:none;stroke:#ff7f0e;stroke-width:3;"/>
    <path clip-path="url(#p5118a70ce5)" d="M 1832.553719 962.283073 
L 1832.553719 632.788867 
" style="fill:none;stroke:#ff7f0e;stroke-width:3;"/>
    <path clip-path="url(#p5118a70ce5)" d="M 1909.413223 1102.208055 
L 1909.413223 961.458634 
" style="fill:none;stroke:#ff7f0e;stroke-width:3;"/>
   </g>
   <g id="LineCollection_9">
    <path clip-path="url(#p5118a70ce5)" d="M 1217.677686 617.446698 
L 1217.677686 354.445098 
" style="fill:none;stroke:#2ca02c;stroke-width:3;"/>
    <path clip-path="url(#p5118a70ce5)" d="M 1294.53719 744.652313 
L 1294.53719 465.560638 
" style="fill:none;stroke:#2ca02c;stroke-width:3;"/>
    <path clip-path="url(#p5118a70ce5)" d="M 1371.396694 738.8093 
L 1371.396694 546.329719 
" style="fill:none;stroke:#2ca02c;stroke-width:3;"/>
    <path clip-path="url(#p5118a70ce5)" d="M 1448.256198 294.829403 
L 1448.256198 285.18252 
" style="fill:none;stroke:#2ca02c;stroke-width:3;"/>
    <path clip-path="url(#p5118a70ce5)" d="M 1525.115702 1169.475309 
L 1525.115702 966.47676 
" style="fill:none;stroke:#2ca02c;stroke-width:3;"/>
    <path clip-path="url(#p5118a70ce5)" d="M 1601.975207 350.353593 
L 1601.975207 271.615311 
" style="fill:none;stroke:#2ca02c;stroke-width:3;"/>
    <path clip-path="url(#p5118a70ce5)" d="M 1678.834711 591.375957 
L 1678.834711 255.098806 
" style="fill:none;stroke:#2ca02c;stroke-width:3;"/>
    <path clip-path="url(#p5118a70ce5)" d="M 1755.694215 757.517922 
L 1755.694215 634.13844 
" style="fill:none;stroke:#2ca02c;stroke-width:3;"/>
    <path clip-path="url(#p5118a70ce5)" d="M 1832.553719 1188.988795 
L 1832.553719 1183.376461 
" style="fill:none;stroke:#2ca02c;stroke-width:3;"/>
    <path clip-path="url(#p5118a70ce5)" d="M 1909.413223 1127.82594 
L 1909.413223 1074.004113 
" style="fill:none;stroke:#2ca02c;stroke-width:3;"/>
   </g>
   <g id="line2d_45">
    <path clip-path="url(#p5118a70ce5)" d="M 1217.677686 1177.524191 
L 1294.53719 1164.748151 
L 1371.396694 1108.368327 
L 1448.256198 1179.58652 
L 1525.115702 577.388051 
L 1601.975207 1165.727636 
L 1678.834711 1179.579371 
L 1755.694215 1185.478601 
L 1832.553719 306.069264 
L 1909.413223 580.166397 
" style="fill:none;stroke:#1f77b4;stroke-linecap:square;stroke-width:3;"/>
   </g>
   <g id="line2d_46">
    <path clip-path="url(#p5118a70ce5)" d="M 1217.677686 1135.735353 
L 1294.53719 1032.551 
L 1371.396694 1055.024732 
L 1448.256198 1184.887121 
L 1525.115702 1172.847084 
L 1601.975207 1066.789135 
L 1678.834711 747.336858 
L 1755.694215 1133.652081 
L 1832.553719 797.53597 
L 1909.413223 1031.833345 
" style="fill:none;stroke:#ff7f0e;stroke-linecap:square;stroke-width:3;"/>
   </g>
   <g id="line2d_47">
    <path clip-path="url(#p5118a70ce5)" d="M 1217.677686 485.945898 
L 1294.53719 605.106475 
L 1371.396694 642.56951 
L 1448.256198 290.005961 
L 1525.115702 1067.976034 
L 1601.975207 310.984452 
L 1678.834711 423.237382 
L 1755.694215 695.828181 
L 1832.553719 1186.182628 
L 1909.413223 1100.915027 
" style="fill:none;stroke:#2ca02c;stroke-linecap:square;stroke-width:3;"/>
   </g>
   <g id="patch_9">
    <path d="M 1183.090909 1281.6 
L 1183.090909 172.8 
" style="fill:none;stroke:#000000;stroke-linecap:square;stroke-linejoin:miter;stroke-width:0.8;"/>
   </g>
   <g id="patch_10">
    <path d="M 1944 1281.6 
L 1944 172.8 
" style="fill:none;stroke:#000000;stroke-linecap:square;stroke-linejoin:miter;stroke-width:0.8;"/>
   </g>
   <g id="patch_11">
    <path d="M 1183.090909 1281.6 
L 1944 1281.6 
" style="fill:none;stroke:#000000;stroke-linecap:square;stroke-linejoin:miter;stroke-width:0.8;"/>
   </g>
   <g id="patch_12">
    <path d="M 1183.090909 172.8 
L 1944 172.8 
" style="fill:none;stroke:#000000;stroke-linecap:square;stroke-linejoin:miter;stroke-width:0.8;"/>
   </g>
   <g id="legend_2">
    <g id="patch_13">
     <path d="M 1978.436364 172.8 
L 2164.651989 172.8 
Q 2168.651989 172.8 2168.651989 168.8 
L 2168.651989 82.73125 
Q 2168.651989 78.73125 2164.651989 78.73125 
L 1978.436364 78.73125 
Q 1974.436364 78.73125 1974.436364 82.73125 
L 1974.436364 168.8 
Q 1974.436364 172.8 1978.436364 172.8 
z
" style="fill:#ffffff;opacity:0.8;stroke:#cccccc;stroke-linejoin:miter;"/>
    </g>
    <g id="LineCollection_10">
     <path d="M 2002.436364 104.928125 
L 2002.436364 84.928125 
" style="fill:none;stroke:#1f77b4;stroke-width:3;"/>
    </g>
    <g id="line2d_48">
     <path d="M 1982.436364 94.928125 
L 2022.436364 94.928125 
" style="fill:none;stroke:#1f77b4;stroke-linecap:square;stroke-width:3;"/>
    </g>
    <g id="line2d_49"/>
    <g id="text_41">
     <!-- gates.in -->
     <g transform="translate(2038.436364 101.928125)scale(0.2 -0.2)">
      <use xlink:href="#DejaVuSans-67"/>
      <use x="63.476562" xlink:href="#DejaVuSans-61"/>
      <use x="124.755859" xlink:href="#DejaVuSans-74"/>
      <use x="163.964844" xlink:href="#DejaVuSans-65"/>
      <use x="225.488281" xlink:href="#DejaVuSans-73"/>
      <use x="277.587891" xlink:href="#DejaVuSans-2e"/>
      <use x="309.375" xlink:href="#DejaVuSans-69"/>
      <use x="337.158203" xlink:href="#DejaVuSans-6e"/>
     </g>
    </g>
    <g id="LineCollection_11">
     <path d="M 2002.436364 134.284375 
L 2002.436364 114.284375 
" style="fill:none;stroke:#ff7f0e;stroke-width:3;"/>
    </g>
    <g id="line2d_50">
     <path d="M 1982.436364 124.284375 
L 2022.436364 124.284375 
" style="fill:none;stroke:#ff7f0e;stroke-linecap:square;stroke-width:3;"/>
    </g>
    <g id="line2d_51"/>
    <g id="text_42">
     <!-- gates.forget -->
     <g transform="translate(2038.436364 131.284375)scale(0.2 -0.2)">
      <use xlink:href="#DejaVuSans-67"/>
      <use x="63.476562" xlink:href="#DejaVuSans-61"/>
      <use x="124.755859" xlink:href="#DejaVuSans-74"/>
      <use x="163.964844" xlink:href="#DejaVuSans-65"/>
      <use x="225.488281" xlink:href="#DejaVuSans-73"/>
      <use x="277.587891" xlink:href="#DejaVuSans-2e"/>
      <use x="309.375" xlink:href="#DejaVuSans-66"/>
      <use x="344.580078" xlink:href="#DejaVuSans-6f"/>
      <use x="405.761719" xlink:href="#DejaVuSans-72"/>
      <use x="446.859375" xlink:href="#DejaVuSans-67"/>
      <use x="510.335938" xlink:href="#DejaVuSans-65"/>
      <use x="571.859375" xlink:href="#DejaVuSans-74"/>
     </g>
    </g>
    <g id="LineCollection_12">
     <path d="M 2002.436364 163.640625 
L 2002.436364 143.640625 
" style="fill:none;stroke:#2ca02c;stroke-width:3;"/>
    </g>
    <g id="line2d_52">
     <path d="M 1982.436364 153.640625 
L 2022.436364 153.640625 
" style="fill:none;stroke:#2ca02c;stroke-linecap:square;stroke-width:3;"/>
    </g>
    <g id="line2d_53"/>
    <g id="text_43">
     <!-- gates.out -->
     <g transform="translate(2038.436364 160.640625)scale(0.2 -0.2)">
      <use xlink:href="#DejaVuSans-67"/>
      <use x="63.476562" xlink:href="#DejaVuSans-61"/>
      <use x="124.755859" xlink:href="#DejaVuSans-74"/>
      <use x="163.964844" xlink:href="#DejaVuSans-65"/>
      <use x="225.488281" xlink:href="#DejaVuSans-73"/>
      <use x="277.587891" xlink:href="#DejaVuSans-2e"/>
      <use x="309.375" xlink:href="#DejaVuSans-6f"/>
      <use x="370.556641" xlink:href="#DejaVuSans-75"/>
      <use x="433.935547" xlink:href="#DejaVuSans-74"/>
     </g>
    </g>
   </g>
  </g>
 </g>
 <defs>
  <clipPath id="p5f2fb87a97">
   <rect height="1108.8" width="760.909091" x="270" y="172.8"/>
  </clipPath>
  <clipPath id="p5118a70ce5">
   <rect height="1108.8" width="760.909091" x="1183.090909" y="172.8"/>
  </clipPath>
 </defs>
</svg>
