<?xml version="1.0" encoding="utf-8" standalone="no"?>
<!DOCTYPE svg PUBLIC "-//W3C//DTD SVG 1.1//EN"
  "http://www.w3.org/Graphics/SVG/1.1/DTD/svg11.dtd">
<!-- Created with matplotlib (http://matplotlib.org/) -->
<svg height="1152pt" version="1.1" viewBox="0 0 1728 1152" width="1728pt" xmlns="http://www.w3.org/2000/svg" xmlns:xlink="http://www.w3.org/1999/xlink">
 <defs>
  <style type="text/css">
*{stroke-linecap:butt;stroke-linejoin:round;}
  </style>
 </defs>
 <g id="figure_1">
  <g id="patch_1">
   <path d="M 0 1152 
L 1728 1152 
L 1728 0 
L 0 0 
z
" style="fill:#ffffff;"/>
  </g>
  <g id="axes_1">
   <g id="patch_2">
    <path d="M 216 864 
L 1555.2 864 
L 1555.2 138.24 
L 216 138.24 
z
" style="fill:#ffffff;"/>
   </g>
   <g id="matplotlib.axis_1">
    <g id="xtick_1">
     <g id="line2d_1">
      <defs>
       <path d="M 0 0 
L 0 3.5 
" id="mf6ea19f754" style="stroke:#000000;stroke-width:0.8;"/>
      </defs>
      <g>
       <use style="stroke:#000000;stroke-width:0.8;" x="276.872727" xlink:href="#mf6ea19f754" y="864"/>
      </g>
     </g>
     <g id="text_1">
      <!-- la -->
      <defs>
       <path d="M 9.421875 75.984375 
L 18.40625 75.984375 
L 18.40625 0 
L 9.421875 0 
z
" id="DejaVuSans-6c"/>
       <path d="M 34.28125 27.484375 
Q 23.390625 27.484375 19.1875 25 
Q 14.984375 22.515625 14.984375 16.5 
Q 14.984375 11.71875 18.140625 8.90625 
Q 21.296875 6.109375 26.703125 6.109375 
Q 34.1875 6.109375 38.703125 11.40625 
Q 43.21875 16.703125 43.21875 25.484375 
L 43.21875 27.484375 
z
M 52.203125 31.203125 
L 52.203125 0 
L 43.21875 0 
L 43.21875 8.296875 
Q 40.140625 3.328125 35.546875 0.953125 
Q 30.953125 -1.421875 24.3125 -1.421875 
Q 15.921875 -1.421875 10.953125 3.296875 
Q 6 8.015625 6 15.921875 
Q 6 25.140625 12.171875 29.828125 
Q 18.359375 34.515625 30.609375 34.515625 
L 43.21875 34.515625 
L 43.21875 35.40625 
Q 43.21875 41.609375 39.140625 45 
Q 35.0625 48.390625 27.6875 48.390625 
Q 23 48.390625 18.546875 47.265625 
Q 14.109375 46.140625 10.015625 43.890625 
L 10.015625 52.203125 
Q 14.9375 54.109375 19.578125 55.046875 
Q 24.21875 56 28.609375 56 
Q 40.484375 56 46.34375 49.84375 
Q 52.203125 43.703125 52.203125 31.203125 
z
" id="DejaVuSans-61"/>
      </defs>
      <g transform="translate(285.150852 897.71875)rotate(-90)scale(0.3 -0.3)">
       <use xlink:href="#DejaVuSans-6c"/>
       <use x="27.783203" xlink:href="#DejaVuSans-61"/>
      </g>
     </g>
    </g>
    <g id="xtick_2">
     <g id="line2d_2">
      <g>
       <use style="stroke:#000000;stroke-width:0.8;" x="429.054545" xlink:href="#mf6ea19f754" y="864"/>
      </g>
     </g>
     <g id="text_2">
      <!-- soeur -->
      <defs>
       <path d="M 44.28125 53.078125 
L 44.28125 44.578125 
Q 40.484375 46.53125 36.375 47.5 
Q 32.28125 48.484375 27.875 48.484375 
Q 21.1875 48.484375 17.84375 46.4375 
Q 14.5 44.390625 14.5 40.28125 
Q 14.5 37.15625 16.890625 35.375 
Q 19.28125 33.59375 26.515625 31.984375 
L 29.59375 31.296875 
Q 39.15625 29.25 43.1875 25.515625 
Q 47.21875 21.78125 47.21875 15.09375 
Q 47.21875 7.46875 41.1875 3.015625 
Q 35.15625 -1.421875 24.609375 -1.421875 
Q 20.21875 -1.421875 15.453125 -0.5625 
Q 10.6875 0.296875 5.421875 2 
L 5.421875 11.28125 
Q 10.40625 8.6875 15.234375 7.390625 
Q 20.0625 6.109375 24.8125 6.109375 
Q 31.15625 6.109375 34.5625 8.28125 
Q 37.984375 10.453125 37.984375 14.40625 
Q 37.984375 18.0625 35.515625 20.015625 
Q 33.0625 21.96875 24.703125 23.78125 
L 21.578125 24.515625 
Q 13.234375 26.265625 9.515625 29.90625 
Q 5.8125 33.546875 5.8125 39.890625 
Q 5.8125 47.609375 11.28125 51.796875 
Q 16.75 56 26.8125 56 
Q 31.78125 56 36.171875 55.265625 
Q 40.578125 54.546875 44.28125 53.078125 
z
" id="DejaVuSans-73"/>
       <path d="M 30.609375 48.390625 
Q 23.390625 48.390625 19.1875 42.75 
Q 14.984375 37.109375 14.984375 27.296875 
Q 14.984375 17.484375 19.15625 11.84375 
Q 23.34375 6.203125 30.609375 6.203125 
Q 37.796875 6.203125 41.984375 11.859375 
Q 46.1875 17.53125 46.1875 27.296875 
Q 46.1875 37.015625 41.984375 42.703125 
Q 37.796875 48.390625 30.609375 48.390625 
z
M 30.609375 56 
Q 42.328125 56 49.015625 48.375 
Q 55.71875 40.765625 55.71875 27.296875 
Q 55.71875 13.875 49.015625 6.21875 
Q 42.328125 -1.421875 30.609375 -1.421875 
Q 18.84375 -1.421875 12.171875 6.21875 
Q 5.515625 13.875 5.515625 27.296875 
Q 5.515625 40.765625 12.171875 48.375 
Q 18.84375 56 30.609375 56 
z
" id="DejaVuSans-6f"/>
       <path d="M 56.203125 29.59375 
L 56.203125 25.203125 
L 14.890625 25.203125 
Q 15.484375 15.921875 20.484375 11.0625 
Q 25.484375 6.203125 34.421875 6.203125 
Q 39.59375 6.203125 44.453125 7.46875 
Q 49.3125 8.734375 54.109375 11.28125 
L 54.109375 2.78125 
Q 49.265625 0.734375 44.1875 -0.34375 
Q 39.109375 -1.421875 33.890625 -1.421875 
Q 20.796875 -1.421875 13.15625 6.1875 
Q 5.515625 13.8125 5.515625 26.8125 
Q 5.515625 40.234375 12.765625 48.109375 
Q 20.015625 56 32.328125 56 
Q 43.359375 56 49.78125 48.890625 
Q 56.203125 41.796875 56.203125 29.59375 
z
M 47.21875 32.234375 
Q 47.125 39.59375 43.09375 43.984375 
Q 39.0625 48.390625 32.421875 48.390625 
Q 24.90625 48.390625 20.390625 44.140625 
Q 15.875 39.890625 15.1875 32.171875 
z
" id="DejaVuSans-65"/>
       <path d="M 8.5 21.578125 
L 8.5 54.6875 
L 17.484375 54.6875 
L 17.484375 21.921875 
Q 17.484375 14.15625 20.5 10.265625 
Q 23.53125 6.390625 29.59375 6.390625 
Q 36.859375 6.390625 41.078125 11.03125 
Q 45.3125 15.671875 45.3125 23.6875 
L 45.3125 54.6875 
L 54.296875 54.6875 
L 54.296875 0 
L 45.3125 0 
L 45.3125 8.40625 
Q 42.046875 3.421875 37.71875 1 
Q 33.40625 -1.421875 27.6875 -1.421875 
Q 18.265625 -1.421875 13.375 4.4375 
Q 8.5 10.296875 8.5 21.578125 
z
M 31.109375 56 
z
" id="DejaVuSans-75"/>
       <path d="M 41.109375 46.296875 
Q 39.59375 47.171875 37.8125 47.578125 
Q 36.03125 48 33.890625 48 
Q 26.265625 48 22.1875 43.046875 
Q 18.109375 38.09375 18.109375 28.8125 
L 18.109375 0 
L 9.078125 0 
L 9.078125 54.6875 
L 18.109375 54.6875 
L 18.109375 46.1875 
Q 20.953125 51.171875 25.484375 53.578125 
Q 30.03125 56 36.53125 56 
Q 37.453125 56 38.578125 55.875 
Q 39.703125 55.765625 41.0625 55.515625 
z
" id="DejaVuSans-72"/>
      </defs>
      <g transform="translate(437.33267 954.789062)rotate(-90)scale(0.3 -0.3)">
       <use xlink:href="#DejaVuSans-73"/>
       <use x="52.099609" xlink:href="#DejaVuSans-6f"/>
       <use x="113.28125" xlink:href="#DejaVuSans-65"/>
       <use x="174.804688" xlink:href="#DejaVuSans-75"/>
       <use x="238.183594" xlink:href="#DejaVuSans-72"/>
      </g>
     </g>
    </g>
    <g id="xtick_3">
     <g id="line2d_3">
      <g>
       <use style="stroke:#000000;stroke-width:0.8;" x="581.236364" xlink:href="#mf6ea19f754" y="864"/>
      </g>
     </g>
     <g id="text_3">
      <!-- timide -->
      <defs>
       <path d="M 18.3125 70.21875 
L 18.3125 54.6875 
L 36.8125 54.6875 
L 36.8125 47.703125 
L 18.3125 47.703125 
L 18.3125 18.015625 
Q 18.3125 11.328125 20.140625 9.421875 
Q 21.96875 7.515625 27.59375 7.515625 
L 36.8125 7.515625 
L 36.8125 0 
L 27.59375 0 
Q 17.1875 0 13.234375 3.875 
Q 9.28125 7.765625 9.28125 18.015625 
L 9.28125 47.703125 
L 2.6875 47.703125 
L 2.6875 54.6875 
L 9.28125 54.6875 
L 9.28125 70.21875 
z
" id="DejaVuSans-74"/>
       <path d="M 9.421875 54.6875 
L 18.40625 54.6875 
L 18.40625 0 
L 9.421875 0 
z
M 9.421875 75.984375 
L 18.40625 75.984375 
L 18.40625 64.59375 
L 9.421875 64.59375 
z
" id="DejaVuSans-69"/>
       <path d="M 52 44.1875 
Q 55.375 50.25 60.0625 53.125 
Q 64.75 56 71.09375 56 
Q 79.640625 56 84.28125 50.015625 
Q 88.921875 44.046875 88.921875 33.015625 
L 88.921875 0 
L 79.890625 0 
L 79.890625 32.71875 
Q 79.890625 40.578125 77.09375 44.375 
Q 74.3125 48.1875 68.609375 48.1875 
Q 61.625 48.1875 57.5625 43.546875 
Q 53.515625 38.921875 53.515625 30.90625 
L 53.515625 0 
L 44.484375 0 
L 44.484375 32.71875 
Q 44.484375 40.625 41.703125 44.40625 
Q 38.921875 48.1875 33.109375 48.1875 
Q 26.21875 48.1875 22.15625 43.53125 
Q 18.109375 38.875 18.109375 30.90625 
L 18.109375 0 
L 9.078125 0 
L 9.078125 54.6875 
L 18.109375 54.6875 
L 18.109375 46.1875 
Q 21.1875 51.21875 25.484375 53.609375 
Q 29.78125 56 35.6875 56 
Q 41.65625 56 45.828125 52.96875 
Q 50 49.953125 52 44.1875 
z
" id="DejaVuSans-6d"/>
       <path d="M 45.40625 46.390625 
L 45.40625 75.984375 
L 54.390625 75.984375 
L 54.390625 0 
L 45.40625 0 
L 45.40625 8.203125 
Q 42.578125 3.328125 38.25 0.953125 
Q 33.9375 -1.421875 27.875 -1.421875 
Q 17.96875 -1.421875 11.734375 6.484375 
Q 5.515625 14.40625 5.515625 27.296875 
Q 5.515625 40.1875 11.734375 48.09375 
Q 17.96875 56 27.875 56 
Q 33.9375 56 38.25 53.625 
Q 42.578125 51.265625 45.40625 46.390625 
z
M 14.796875 27.296875 
Q 14.796875 17.390625 18.875 11.75 
Q 22.953125 6.109375 30.078125 6.109375 
Q 37.203125 6.109375 41.296875 11.75 
Q 45.40625 17.390625 45.40625 27.296875 
Q 45.40625 37.203125 41.296875 42.84375 
Q 37.203125 48.484375 30.078125 48.484375 
Q 22.953125 48.484375 18.875 42.84375 
Q 14.796875 37.203125 14.796875 27.296875 
z
" id="DejaVuSans-64"/>
      </defs>
      <g transform="translate(589.514489 966.15625)rotate(-90)scale(0.3 -0.3)">
       <use xlink:href="#DejaVuSans-74"/>
       <use x="39.208984" xlink:href="#DejaVuSans-69"/>
       <use x="66.992188" xlink:href="#DejaVuSans-6d"/>
       <use x="164.404297" xlink:href="#DejaVuSans-69"/>
       <use x="192.1875" xlink:href="#DejaVuSans-64"/>
       <use x="255.664062" xlink:href="#DejaVuSans-65"/>
      </g>
     </g>
    </g>
    <g id="xtick_4">
     <g id="line2d_4">
      <g>
       <use style="stroke:#000000;stroke-width:0.8;" x="733.418182" xlink:href="#mf6ea19f754" y="864"/>
      </g>
     </g>
     <g id="text_4">
      <!-- va -->
      <defs>
       <path d="M 2.984375 54.6875 
L 12.5 54.6875 
L 29.59375 8.796875 
L 46.6875 54.6875 
L 56.203125 54.6875 
L 35.6875 0 
L 23.484375 0 
z
" id="DejaVuSans-76"/>
      </defs>
      <g transform="translate(741.696307 907.140625)rotate(-90)scale(0.3 -0.3)">
       <use xlink:href="#DejaVuSans-76"/>
       <use x="59.179688" xlink:href="#DejaVuSans-61"/>
      </g>
     </g>
    </g>
    <g id="xtick_5">
     <g id="line2d_5">
      <g>
       <use style="stroke:#000000;stroke-width:0.8;" x="885.6" xlink:href="#mf6ea19f754" y="864"/>
      </g>
     </g>
     <g id="text_5">
      <!-- réparer -->
      <defs>
       <path d="M 56.203125 29.59375 
L 56.203125 25.203125 
L 14.890625 25.203125 
Q 15.484375 15.921875 20.484375 11.0625 
Q 25.484375 6.203125 34.421875 6.203125 
Q 39.59375 6.203125 44.453125 7.46875 
Q 49.3125 8.734375 54.109375 11.28125 
L 54.109375 2.78125 
Q 49.265625 0.734375 44.1875 -0.34375 
Q 39.109375 -1.421875 33.890625 -1.421875 
Q 20.796875 -1.421875 13.15625 6.1875 
Q 5.515625 13.8125 5.515625 26.8125 
Q 5.515625 40.234375 12.765625 48.109375 
Q 20.015625 56 32.328125 56 
Q 43.359375 56 49.78125 48.890625 
Q 56.203125 41.796875 56.203125 29.59375 
z
M 47.21875 32.234375 
Q 47.125 39.59375 43.09375 43.984375 
Q 39.0625 48.390625 32.421875 48.390625 
Q 24.90625 48.390625 20.390625 44.140625 
Q 15.875 39.890625 15.1875 32.171875 
z
M 38.53125 79.984375 
L 48.25 79.984375 
L 32.34375 61.625 
L 24.859375 61.625 
z
" id="DejaVuSans-e9"/>
       <path d="M 18.109375 8.203125 
L 18.109375 -20.796875 
L 9.078125 -20.796875 
L 9.078125 54.6875 
L 18.109375 54.6875 
L 18.109375 46.390625 
Q 20.953125 51.265625 25.265625 53.625 
Q 29.59375 56 35.59375 56 
Q 45.5625 56 51.78125 48.09375 
Q 58.015625 40.1875 58.015625 27.296875 
Q 58.015625 14.40625 51.78125 6.484375 
Q 45.5625 -1.421875 35.59375 -1.421875 
Q 29.59375 -1.421875 25.265625 0.953125 
Q 20.953125 3.328125 18.109375 8.203125 
z
M 48.6875 27.296875 
Q 48.6875 37.203125 44.609375 42.84375 
Q 40.53125 48.484375 33.40625 48.484375 
Q 26.265625 48.484375 22.1875 42.84375 
Q 18.109375 37.203125 18.109375 27.296875 
Q 18.109375 17.390625 22.1875 11.75 
Q 26.265625 6.109375 33.40625 6.109375 
Q 40.53125 6.109375 44.609375 11.75 
Q 48.6875 17.390625 48.6875 27.296875 
z
" id="DejaVuSans-70"/>
      </defs>
      <g transform="translate(894.478125 982.328125)rotate(-90)scale(0.3 -0.3)">
       <use xlink:href="#DejaVuSans-72"/>
       <use x="41.082031" xlink:href="#DejaVuSans-e9"/>
       <use x="102.605469" xlink:href="#DejaVuSans-70"/>
       <use x="166.082031" xlink:href="#DejaVuSans-61"/>
       <use x="227.361328" xlink:href="#DejaVuSans-72"/>
       <use x="268.443359" xlink:href="#DejaVuSans-65"/>
       <use x="329.966797" xlink:href="#DejaVuSans-72"/>
      </g>
     </g>
    </g>
    <g id="xtick_6">
     <g id="line2d_6">
      <g>
       <use style="stroke:#000000;stroke-width:0.8;" x="1037.781818" xlink:href="#mf6ea19f754" y="864"/>
      </g>
     </g>
     <g id="text_6">
      <!-- un -->
      <defs>
       <path d="M 54.890625 33.015625 
L 54.890625 0 
L 45.90625 0 
L 45.90625 32.71875 
Q 45.90625 40.484375 42.875 44.328125 
Q 39.84375 48.1875 33.796875 48.1875 
Q 26.515625 48.1875 22.3125 43.546875 
Q 18.109375 38.921875 18.109375 30.90625 
L 18.109375 0 
L 9.078125 0 
L 9.078125 54.6875 
L 18.109375 54.6875 
L 18.109375 46.1875 
Q 21.34375 51.125 25.703125 53.5625 
Q 30.078125 56 35.796875 56 
Q 45.21875 56 50.046875 50.171875 
Q 54.890625 44.34375 54.890625 33.015625 
z
" id="DejaVuSans-6e"/>
      </defs>
      <g transform="translate(1046.059943 909.025)rotate(-90)scale(0.3 -0.3)">
       <use xlink:href="#DejaVuSans-75"/>
       <use x="63.378906" xlink:href="#DejaVuSans-6e"/>
      </g>
     </g>
    </g>
    <g id="xtick_7">
     <g id="line2d_7">
      <g>
       <use style="stroke:#000000;stroke-width:0.8;" x="1189.963636" xlink:href="#mf6ea19f754" y="864"/>
      </g>
     </g>
     <g id="text_7">
      <!-- volet -->
      <g transform="translate(1198.241761 945.667187)rotate(-90)scale(0.3 -0.3)">
       <use xlink:href="#DejaVuSans-76"/>
       <use x="59.179688" xlink:href="#DejaVuSans-6f"/>
       <use x="120.361328" xlink:href="#DejaVuSans-6c"/>
       <use x="148.144531" xlink:href="#DejaVuSans-65"/>
       <use x="209.667969" xlink:href="#DejaVuSans-74"/>
      </g>
     </g>
    </g>
    <g id="xtick_8">
     <g id="line2d_8">
      <g>
       <use style="stroke:#000000;stroke-width:0.8;" x="1342.145455" xlink:href="#mf6ea19f754" y="864"/>
      </g>
     </g>
     <g id="text_8">
      <!-- du -->
      <g transform="translate(1350.42358 909.057812)rotate(-90)scale(0.3 -0.3)">
       <use xlink:href="#DejaVuSans-64"/>
       <use x="63.476562" xlink:href="#DejaVuSans-75"/>
      </g>
     </g>
    </g>
    <g id="xtick_9">
     <g id="line2d_9">
      <g>
       <use style="stroke:#000000;stroke-width:0.8;" x="1494.327273" xlink:href="#mf6ea19f754" y="864"/>
      </g>
     </g>
     <g id="text_9">
      <!-- libraire -->
      <defs>
       <path d="M 48.6875 27.296875 
Q 48.6875 37.203125 44.609375 42.84375 
Q 40.53125 48.484375 33.40625 48.484375 
Q 26.265625 48.484375 22.1875 42.84375 
Q 18.109375 37.203125 18.109375 27.296875 
Q 18.109375 17.390625 22.1875 11.75 
Q 26.265625 6.109375 33.40625 6.109375 
Q 40.53125 6.109375 44.609375 11.75 
Q 48.6875 17.390625 48.6875 27.296875 
z
M 18.109375 46.390625 
Q 20.953125 51.265625 25.265625 53.625 
Q 29.59375 56 35.59375 56 
Q 45.5625 56 51.78125 48.09375 
Q 58.015625 40.1875 58.015625 27.296875 
Q 58.015625 14.40625 51.78125 6.484375 
Q 45.5625 -1.421875 35.59375 -1.421875 
Q 29.59375 -1.421875 25.265625 0.953125 
Q 20.953125 3.328125 18.109375 8.203125 
L 18.109375 0 
L 9.078125 0 
L 9.078125 75.984375 
L 18.109375 75.984375 
z
" id="DejaVuSans-62"/>
      </defs>
      <g transform="translate(1485.808679 976.548437)rotate(-90)scale(0.3 -0.3)">
       <use xlink:href="#DejaVuSans-6c"/>
       <use x="27.783203" xlink:href="#DejaVuSans-69"/>
       <use x="55.566406" xlink:href="#DejaVuSans-62"/>
       <use x="119.042969" xlink:href="#DejaVuSans-72"/>
       <use x="160.15625" xlink:href="#DejaVuSans-61"/>
       <use x="221.435547" xlink:href="#DejaVuSans-69"/>
       <use x="249.21875" xlink:href="#DejaVuSans-72"/>
       <use x="290.300781" xlink:href="#DejaVuSans-65"/>
      </g>
      <!--  -->
      <g transform="translate(1519.402116 923.774219)rotate(-90)scale(0.3 -0.3)"/>
     </g>
    </g>
   </g>
   <g id="matplotlib.axis_2">
    <g id="ytick_1">
     <g id="line2d_10">
      <defs>
       <path d="M 0 0 
L -3.5 0 
" id="m2bf7ef89f2" style="stroke:#000000;stroke-width:0.8;"/>
      </defs>
      <g>
       <use style="stroke:#000000;stroke-width:0.8;" x="216" xlink:href="#m2bf7ef89f2" y="862.592404"/>
      </g>
     </g>
     <g id="text_10">
      <!-- −1.5 -->
      <defs>
       <path d="M 10.59375 35.5 
L 73.1875 35.5 
L 73.1875 27.203125 
L 10.59375 27.203125 
z
" id="DejaVuSans-2212"/>
       <path d="M 12.40625 8.296875 
L 28.515625 8.296875 
L 28.515625 63.921875 
L 10.984375 60.40625 
L 10.984375 69.390625 
L 28.421875 72.90625 
L 38.28125 72.90625 
L 38.28125 8.296875 
L 54.390625 8.296875 
L 54.390625 0 
L 12.40625 0 
z
" id="DejaVuSans-31"/>
       <path d="M 10.6875 12.40625 
L 21 12.40625 
L 21 0 
L 10.6875 0 
z
" id="DejaVuSans-2e"/>
       <path d="M 10.796875 72.90625 
L 49.515625 72.90625 
L 49.515625 64.59375 
L 19.828125 64.59375 
L 19.828125 46.734375 
Q 21.96875 47.46875 24.109375 47.828125 
Q 26.265625 48.1875 28.421875 48.1875 
Q 40.625 48.1875 47.75 41.5 
Q 54.890625 34.8125 54.890625 23.390625 
Q 54.890625 11.625 47.5625 5.09375 
Q 40.234375 -1.421875 26.90625 -1.421875 
Q 22.3125 -1.421875 17.546875 -0.640625 
Q 12.796875 0.140625 7.71875 1.703125 
L 7.71875 11.625 
Q 12.109375 9.234375 16.796875 8.0625 
Q 21.484375 6.890625 26.703125 6.890625 
Q 35.15625 6.890625 40.078125 11.328125 
Q 45.015625 15.765625 45.015625 23.390625 
Q 45.015625 31 40.078125 35.4375 
Q 35.15625 39.890625 26.703125 39.890625 
Q 22.75 39.890625 18.8125 39.015625 
Q 14.890625 38.140625 10.796875 36.28125 
z
" id="DejaVuSans-35"/>
      </defs>
      <g transform="translate(136.151563 873.99006)scale(0.3 -0.3)">
       <use xlink:href="#DejaVuSans-2212"/>
       <use x="83.789062" xlink:href="#DejaVuSans-31"/>
       <use x="147.412109" xlink:href="#DejaVuSans-2e"/>
       <use x="179.199219" xlink:href="#DejaVuSans-35"/>
      </g>
     </g>
    </g>
    <g id="ytick_2">
     <g id="line2d_11">
      <g>
       <use style="stroke:#000000;stroke-width:0.8;" x="216" xlink:href="#m2bf7ef89f2" y="730.343113"/>
      </g>
     </g>
     <g id="text_11">
      <!-- −1.0 -->
      <defs>
       <path d="M 31.78125 66.40625 
Q 24.171875 66.40625 20.328125 58.90625 
Q 16.5 51.421875 16.5 36.375 
Q 16.5 21.390625 20.328125 13.890625 
Q 24.171875 6.390625 31.78125 6.390625 
Q 39.453125 6.390625 43.28125 13.890625 
Q 47.125 21.390625 47.125 36.375 
Q 47.125 51.421875 43.28125 58.90625 
Q 39.453125 66.40625 31.78125 66.40625 
z
M 31.78125 74.21875 
Q 44.046875 74.21875 50.515625 64.515625 
Q 56.984375 54.828125 56.984375 36.375 
Q 56.984375 17.96875 50.515625 8.265625 
Q 44.046875 -1.421875 31.78125 -1.421875 
Q 19.53125 -1.421875 13.0625 8.265625 
Q 6.59375 17.96875 6.59375 36.375 
Q 6.59375 54.828125 13.0625 64.515625 
Q 19.53125 74.21875 31.78125 74.21875 
z
" id="DejaVuSans-30"/>
      </defs>
      <g transform="translate(136.151563 741.74077)scale(0.3 -0.3)">
       <use xlink:href="#DejaVuSans-2212"/>
       <use x="83.789062" xlink:href="#DejaVuSans-31"/>
       <use x="147.412109" xlink:href="#DejaVuSans-2e"/>
       <use x="179.199219" xlink:href="#DejaVuSans-30"/>
      </g>
     </g>
    </g>
    <g id="ytick_3">
     <g id="line2d_12">
      <g>
       <use style="stroke:#000000;stroke-width:0.8;" x="216" xlink:href="#m2bf7ef89f2" y="598.093822"/>
      </g>
     </g>
     <g id="text_12">
      <!-- −0.5 -->
      <g transform="translate(136.151563 609.491479)scale(0.3 -0.3)">
       <use xlink:href="#DejaVuSans-2212"/>
       <use x="83.789062" xlink:href="#DejaVuSans-30"/>
       <use x="147.412109" xlink:href="#DejaVuSans-2e"/>
       <use x="179.199219" xlink:href="#DejaVuSans-35"/>
      </g>
     </g>
    </g>
    <g id="ytick_4">
     <g id="line2d_13">
      <g>
       <use style="stroke:#000000;stroke-width:0.8;" x="216" xlink:href="#m2bf7ef89f2" y="465.844531"/>
      </g>
     </g>
     <g id="text_13">
      <!-- 0.0 -->
      <g transform="translate(161.290625 477.242188)scale(0.3 -0.3)">
       <use xlink:href="#DejaVuSans-30"/>
       <use x="63.623047" xlink:href="#DejaVuSans-2e"/>
       <use x="95.410156" xlink:href="#DejaVuSans-30"/>
      </g>
     </g>
    </g>
    <g id="ytick_5">
     <g id="line2d_14">
      <g>
       <use style="stroke:#000000;stroke-width:0.8;" x="216" xlink:href="#m2bf7ef89f2" y="333.595241"/>
      </g>
     </g>
     <g id="text_14">
      <!-- 0.5 -->
      <g transform="translate(161.290625 344.992897)scale(0.3 -0.3)">
       <use xlink:href="#DejaVuSans-30"/>
       <use x="63.623047" xlink:href="#DejaVuSans-2e"/>
       <use x="95.410156" xlink:href="#DejaVuSans-35"/>
      </g>
     </g>
    </g>
    <g id="ytick_6">
     <g id="line2d_15">
      <g>
       <use style="stroke:#000000;stroke-width:0.8;" x="216" xlink:href="#m2bf7ef89f2" y="201.34595"/>
      </g>
     </g>
     <g id="text_15">
      <!-- 1.0 -->
      <g transform="translate(161.290625 212.743606)scale(0.3 -0.3)">
       <use xlink:href="#DejaVuSans-31"/>
       <use x="63.623047" xlink:href="#DejaVuSans-2e"/>
       <use x="95.410156" xlink:href="#DejaVuSans-30"/>
      </g>
     </g>
    </g>
    <g id="text_16">
     <!-- Activation -->
     <defs>
      <path d="M 34.1875 63.1875 
L 20.796875 26.90625 
L 47.609375 26.90625 
z
M 28.609375 72.90625 
L 39.796875 72.90625 
L 67.578125 0 
L 57.328125 0 
L 50.6875 18.703125 
L 17.828125 18.703125 
L 11.1875 0 
L 0.78125 0 
z
" id="DejaVuSans-41"/>
      <path d="M 48.78125 52.59375 
L 48.78125 44.1875 
Q 44.96875 46.296875 41.140625 47.34375 
Q 37.3125 48.390625 33.40625 48.390625 
Q 24.65625 48.390625 19.8125 42.84375 
Q 14.984375 37.3125 14.984375 27.296875 
Q 14.984375 17.28125 19.8125 11.734375 
Q 24.65625 6.203125 33.40625 6.203125 
Q 37.3125 6.203125 41.140625 7.25 
Q 44.96875 8.296875 48.78125 10.40625 
L 48.78125 2.09375 
Q 45.015625 0.34375 40.984375 -0.53125 
Q 36.96875 -1.421875 32.421875 -1.421875 
Q 20.0625 -1.421875 12.78125 6.34375 
Q 5.515625 14.109375 5.515625 27.296875 
Q 5.515625 40.671875 12.859375 48.328125 
Q 20.21875 56 33.015625 56 
Q 37.15625 56 41.109375 55.140625 
Q 45.0625 54.296875 48.78125 52.59375 
z
" id="DejaVuSans-63"/>
     </defs>
     <g transform="translate(126.744375 566.42875)rotate(-90)scale(0.26 -0.26)">
      <use xlink:href="#DejaVuSans-41"/>
      <use x="68.392578" xlink:href="#DejaVuSans-63"/>
      <use x="123.373047" xlink:href="#DejaVuSans-74"/>
      <use x="162.582031" xlink:href="#DejaVuSans-69"/>
      <use x="190.365234" xlink:href="#DejaVuSans-76"/>
      <use x="249.544922" xlink:href="#DejaVuSans-61"/>
      <use x="310.824219" xlink:href="#DejaVuSans-74"/>
      <use x="350.033203" xlink:href="#DejaVuSans-69"/>
      <use x="377.816406" xlink:href="#DejaVuSans-6f"/>
      <use x="438.998047" xlink:href="#DejaVuSans-6e"/>
     </g>
    </g>
   </g>
   <g id="LineCollection_1">
    <path clip-path="url(#p14879a57b5)" d="M 276.872727 465.844531 
L 276.872727 465.929681 
" style="fill:none;stroke:#1f77b4;stroke-width:5;"/>
    <path clip-path="url(#p14879a57b5)" d="M 429.054545 465.844531 
L 429.054545 804.792717 
" style="fill:none;stroke:#1f77b4;stroke-width:5;"/>
    <path clip-path="url(#p14879a57b5)" d="M 581.236364 465.844531 
L 581.236364 622.900363 
" style="fill:none;stroke:#1f77b4;stroke-width:5;"/>
    <path clip-path="url(#p14879a57b5)" d="M 733.418182 465.844531 
L 733.418182 171.229091 
" style="fill:none;stroke:#1f77b4;stroke-width:5;"/>
    <path clip-path="url(#p14879a57b5)" d="M 885.6 465.844531 
L 885.6 409.775972 
" style="fill:none;stroke:#1f77b4;stroke-width:5;"/>
    <path clip-path="url(#p14879a57b5)" d="M 1037.781818 465.844531 
L 1037.781818 465.910571 
" style="fill:none;stroke:#1f77b4;stroke-width:5;"/>
    <path clip-path="url(#p14879a57b5)" d="M 1189.963636 465.844531 
L 1189.963636 682.477414 
" style="fill:none;stroke:#1f77b4;stroke-width:5;"/>
    <path clip-path="url(#p14879a57b5)" d="M 1342.145455 465.844531 
L 1342.145455 465.884778 
" style="fill:none;stroke:#1f77b4;stroke-width:5;"/>
    <path clip-path="url(#p14879a57b5)" d="M 1494.327273 465.844531 
L 1494.327273 831.010909 
" style="fill:none;stroke:#1f77b4;stroke-width:5;"/>
   </g>
   <g id="LineCollection_2">
    <path clip-path="url(#p14879a57b5)" d="M 276.872727 468.866472 
L 276.872727 456.478874 
" style="fill:none;stroke:#ff7f0e;stroke-width:5;"/>
    <path clip-path="url(#p14879a57b5)" d="M 429.054545 471.089356 
L 429.054545 360.700834 
" style="fill:none;stroke:#ff7f0e;stroke-width:5;"/>
    <path clip-path="url(#p14879a57b5)" d="M 581.236364 468.372657 
L 581.236364 451.603562 
" style="fill:none;stroke:#ff7f0e;stroke-width:5;"/>
    <path clip-path="url(#p14879a57b5)" d="M 733.418182 465.887 
L 733.418182 465.454424 
" style="fill:none;stroke:#ff7f0e;stroke-width:5;"/>
    <path clip-path="url(#p14879a57b5)" d="M 885.6 467.892298 
L 885.6 456.262816 
" style="fill:none;stroke:#ff7f0e;stroke-width:5;"/>
    <path clip-path="url(#p14879a57b5)" d="M 1037.781818 466.743403 
L 1037.781818 464.115 
" style="fill:none;stroke:#ff7f0e;stroke-width:5;"/>
    <path clip-path="url(#p14879a57b5)" d="M 1189.963636 474.386157 
L 1189.963636 410.767534 
" style="fill:none;stroke:#ff7f0e;stroke-width:5;"/>
    <path clip-path="url(#p14879a57b5)" d="M 1342.145455 467.035971 
L 1342.145455 444.475657 
" style="fill:none;stroke:#ff7f0e;stroke-width:5;"/>
    <path clip-path="url(#p14879a57b5)" d="M 1494.327273 447.547462 
L 1494.327273 332.617588 
" style="fill:none;stroke:#ff7f0e;stroke-width:5;"/>
   </g>
   <g id="LineCollection_3">
    <path clip-path="url(#p14879a57b5)" d="M 276.872727 468.792604 
L 276.872727 456.934904 
" style="fill:none;stroke:#2ca02c;stroke-width:5;"/>
    <path clip-path="url(#p14879a57b5)" d="M 429.054545 509.806813 
L 429.054545 459.950086 
" style="fill:none;stroke:#2ca02c;stroke-width:5;"/>
    <path clip-path="url(#p14879a57b5)" d="M 581.236364 483.456757 
L 581.236364 466.342649 
" style="fill:none;stroke:#2ca02c;stroke-width:5;"/>
    <path clip-path="url(#p14879a57b5)" d="M 733.418182 459.352477 
L 733.418182 349.719523 
" style="fill:none;stroke:#2ca02c;stroke-width:5;"/>
    <path clip-path="url(#p14879a57b5)" d="M 885.6 467.082454 
L 885.6 461.727605 
" style="fill:none;stroke:#2ca02c;stroke-width:5;"/>
    <path clip-path="url(#p14879a57b5)" d="M 1037.781818 465.948582 
L 1037.781818 465.750986 
" style="fill:none;stroke:#2ca02c;stroke-width:5;"/>
    <path clip-path="url(#p14879a57b5)" d="M 1189.963636 474.368056 
L 1189.963636 463.358856 
" style="fill:none;stroke:#2ca02c;stroke-width:5;"/>
    <path clip-path="url(#p14879a57b5)" d="M 1342.145455 477.862671 
L 1342.145455 462.45687 
" style="fill:none;stroke:#2ca02c;stroke-width:5;"/>
    <path clip-path="url(#p14879a57b5)" d="M 1494.327273 490.583115 
L 1494.327273 457.543521 
" style="fill:none;stroke:#2ca02c;stroke-width:5;"/>
   </g>
   <g id="LineCollection_4">
    <path clip-path="url(#p14879a57b5)" d="M 276.872727 468.883495 
L 276.872727 456.623014 
" style="fill:none;stroke:#d62728;stroke-width:5;"/>
    <path clip-path="url(#p14879a57b5)" d="M 429.054545 716.157628 
L 429.054545 553.184988 
" style="fill:none;stroke:#d62728;stroke-width:5;"/>
    <path clip-path="url(#p14879a57b5)" d="M 581.236364 635.972399 
L 581.236364 461.68967 
" style="fill:none;stroke:#d62728;stroke-width:5;"/>
    <path clip-path="url(#p14879a57b5)" d="M 733.418182 429.990394 
L 733.418182 207.183946 
" style="fill:none;stroke:#d62728;stroke-width:5;"/>
    <path clip-path="url(#p14879a57b5)" d="M 885.6 471.165202 
L 885.6 398.783091 
" style="fill:none;stroke:#d62728;stroke-width:5;"/>
    <path clip-path="url(#p14879a57b5)" d="M 1037.781818 465.959947 
L 1037.781818 465.742351 
" style="fill:none;stroke:#d62728;stroke-width:5;"/>
    <path clip-path="url(#p14879a57b5)" d="M 1189.963636 694.116084 
L 1189.963636 454.208736 
" style="fill:none;stroke:#d62728;stroke-width:5;"/>
    <path clip-path="url(#p14879a57b5)" d="M 1342.145455 480.759217 
L 1342.145455 461.74031 
" style="fill:none;stroke:#d62728;stroke-width:5;"/>
    <path clip-path="url(#p14879a57b5)" d="M 1494.327273 763.258643 
L 1494.327273 537.410178 
" style="fill:none;stroke:#d62728;stroke-width:5;"/>
   </g>
   <g id="line2d_16">
    <path clip-path="url(#p14879a57b5)" d="M 276.872727 465.887106 
L 429.054545 635.318624 
L 581.236364 544.372447 
L 733.418182 318.536811 
L 885.6 437.810252 
L 1037.781818 465.877551 
L 1189.963636 574.160973 
L 1342.145455 465.864655 
L 1494.327273 648.42772 
" style="fill:none;stroke:#1f77b4;stroke-dasharray:18.5,8;stroke-dashoffset:0;stroke-width:5;"/>
   </g>
   <g id="line2d_17">
    <path clip-path="url(#p14879a57b5)" d="M 276.872727 462.672673 
L 429.054545 415.895095 
L 581.236364 459.98811 
L 733.418182 465.670712 
L 885.6 462.077557 
L 1037.781818 465.429201 
L 1189.963636 442.576846 
L 1342.145455 455.755814 
L 1494.327273 390.082525 
" style="fill:none;stroke:#ff7f0e;stroke-dasharray:18.5,8;stroke-dashoffset:0;stroke-width:5;"/>
   </g>
   <g id="line2d_18">
    <path clip-path="url(#p14879a57b5)" d="M 276.872727 462.863754 
L 429.054545 484.87845 
L 581.236364 474.899703 
L 733.418182 404.536 
L 885.6 464.40503 
L 1037.781818 465.849784 
L 1189.963636 468.863456 
L 1342.145455 470.15977 
L 1494.327273 474.063318 
" style="fill:none;stroke:#2ca02c;stroke-linecap:square;stroke-width:5;"/>
   </g>
   <g id="line2d_19">
    <path clip-path="url(#p14879a57b5)" d="M 276.872727 462.753255 
L 429.054545 634.671308 
L 581.236364 548.831034 
L 733.418182 318.58717 
L 885.6 434.974147 
L 1037.781818 465.851149 
L 1189.963636 574.16241 
L 1342.145455 471.249764 
L 1494.327273 650.33441 
" style="fill:none;stroke:#d62728;stroke-linecap:square;stroke-width:5;"/>
   </g>
   <g id="patch_3">
    <path d="M 216 864 
L 216 138.24 
" style="fill:none;stroke:#000000;stroke-linecap:square;stroke-linejoin:miter;stroke-width:0.8;"/>
   </g>
   <g id="patch_4">
    <path d="M 1555.2 864 
L 1555.2 138.24 
" style="fill:none;stroke:#000000;stroke-linecap:square;stroke-linejoin:miter;stroke-width:0.8;"/>
   </g>
   <g id="patch_5">
    <path d="M 216 864 
L 1555.2 864 
" style="fill:none;stroke:#000000;stroke-linecap:square;stroke-linejoin:miter;stroke-width:0.8;"/>
   </g>
   <g id="patch_6">
    <path d="M 216 138.24 
L 1555.2 138.24 
" style="fill:none;stroke:#000000;stroke-linecap:square;stroke-linejoin:miter;stroke-width:0.8;"/>
   </g>
   <g id="legend_1">
    <g id="patch_7">
     <path d="M 1560 501.12 
L 1674.96 501.12 
Q 1679.76 501.12 1679.76 496.32 
L 1679.76 352.7175 
Q 1679.76 347.9175 1674.96 347.9175 
L 1560 347.9175 
Q 1555.2 347.9175 1555.2 352.7175 
L 1555.2 496.32 
Q 1555.2 501.12 1560 501.12 
z
" style="fill:none;opacity:0;"/>
    </g>
    <g id="LineCollection_5">
     <path d="M 1588.8 384.44625 
L 1588.8 360.44625 
" style="fill:none;stroke:#1f77b4;stroke-width:5;"/>
    </g>
    <g id="line2d_20">
     <path d="M 1564.8 372.44625 
L 1612.8 372.44625 
" style="fill:none;stroke:#1f77b4;stroke-dasharray:18.5,8;stroke-dashoffset:0;stroke-width:5;"/>
    </g>
    <g id="line2d_21"/>
    <g id="text_17">
     <!-- $i_t \tilde{C}_t$ -->
     <defs>
      <path d="M 18.3125 75.984375 
L 27.296875 75.984375 
L 25.09375 64.59375 
L 16.109375 64.59375 
z
M 14.203125 54.6875 
L 23.1875 54.6875 
L 12.5 0 
L 3.515625 0 
z
" id="DejaVuSans-Oblique-69"/>
      <path d="M 42.28125 54.6875 
L 40.921875 47.703125 
L 23 47.703125 
L 17.1875 18.015625 
Q 16.890625 16.359375 16.75 15.234375 
Q 16.609375 14.109375 16.609375 13.484375 
Q 16.609375 10.359375 18.484375 8.9375 
Q 20.359375 7.515625 24.515625 7.515625 
L 33.59375 7.515625 
L 32.078125 0 
L 23.484375 0 
Q 15.484375 0 11.546875 3.125 
Q 7.625 6.25 7.625 12.59375 
Q 7.625 13.71875 7.765625 15.0625 
Q 7.90625 16.40625 8.203125 18.015625 
L 14.015625 47.703125 
L 6.390625 47.703125 
L 7.8125 54.6875 
L 15.28125 54.6875 
L 18.3125 70.21875 
L 27.296875 70.21875 
L 24.3125 54.6875 
z
" id="DejaVuSans-Oblique-74"/>
      <path d="M -25.328125 66.890625 
L -28.109375 69.578125 
Q -29.171875 70.5625 -29.984375 71.015625 
Q -30.796875 71.484375 -31.421875 71.484375 
Q -33.28125 71.484375 -34.15625 69.703125 
Q -35.03125 67.921875 -35.140625 63.921875 
L -41.234375 63.921875 
Q -41.140625 70.515625 -38.640625 74.09375 
Q -36.15625 77.6875 -31.71875 77.6875 
Q -29.859375 77.6875 -28.296875 77 
Q -26.734375 76.3125 -24.9375 74.703125 
L -22.140625 72.015625 
Q -21.078125 71.046875 -20.265625 70.578125 
Q -19.46875 70.125 -18.828125 70.125 
Q -16.96875 70.125 -16.09375 71.90625 
Q -15.21875 73.6875 -15.109375 77.6875 
L -9.015625 77.6875 
Q -9.109375 71.09375 -11.59375 67.5 
Q -14.09375 63.921875 -18.53125 63.921875 
Q -20.390625 63.921875 -21.953125 64.59375 
Q -23.515625 65.28125 -25.328125 66.890625 
z
" id="DejaVuSans-303"/>
      <path d="M 69.484375 67.28125 
L 67.484375 56.890625 
Q 62.796875 61.625 57.546875 63.921875 
Q 52.296875 66.21875 46.1875 66.21875 
Q 37.84375 66.21875 31.515625 62.203125 
Q 25.203125 58.203125 20.609375 50 
Q 17.671875 44.734375 16.125 38.84375 
Q 14.59375 32.953125 14.59375 27 
Q 14.59375 17.046875 19.75 11.8125 
Q 24.90625 6.59375 34.71875 6.59375 
Q 41.5 6.59375 47.75 8.765625 
Q 54 10.9375 59.90625 15.28125 
L 57.625 3.609375 
Q 51.8125 1.125 45.875 -0.140625 
Q 39.9375 -1.421875 33.984375 -1.421875 
Q 19.96875 -1.421875 12.078125 6.1875 
Q 4.203125 13.8125 4.203125 27.390625 
Q 4.203125 36.078125 7.203125 44.46875 
Q 10.203125 52.875 15.828125 59.8125 
Q 21.78125 67.1875 29.421875 70.703125 
Q 37.0625 74.21875 47.21875 74.21875 
Q 53.46875 74.21875 59.0625 72.484375 
Q 64.65625 70.75 69.484375 67.28125 
z
" id="DejaVuSans-Oblique-43"/>
     </defs>
     <g transform="translate(1632 380.84625)scale(0.24 -0.24)">
      <use transform="translate(0 0.515625)" xlink:href="#DejaVuSans-Oblique-69"/>
      <use transform="translate(27.783203 -15.890625)scale(0.7)" xlink:href="#DejaVuSans-Oblique-74"/>
      <use transform="translate(126.654297 23.3125)" xlink:href="#DejaVuSans-303"/>
      <use transform="translate(57.963867 0.515625)" xlink:href="#DejaVuSans-Oblique-43"/>
      <use transform="translate(128.745117 -15.890625)scale(0.7)" xlink:href="#DejaVuSans-Oblique-74"/>
     </g>
    </g>
    <g id="LineCollection_6">
     <path d="M 1588.8 419.67375 
L 1588.8 395.67375 
" style="fill:none;stroke:#ff7f0e;stroke-width:5;"/>
    </g>
    <g id="line2d_22">
     <path d="M 1564.8 407.67375 
L 1612.8 407.67375 
" style="fill:none;stroke:#ff7f0e;stroke-dasharray:18.5,8;stroke-dashoffset:0;stroke-width:5;"/>
    </g>
    <g id="line2d_23"/>
    <g id="text_18">
     <!-- $f_t$ -->
     <defs>
      <path d="M 47.796875 75.984375 
L 46.390625 68.5 
L 37.796875 68.5 
Q 32.90625 68.5 30.6875 66.578125 
Q 28.46875 64.65625 27.390625 59.515625 
L 26.421875 54.6875 
L 41.21875 54.6875 
L 39.890625 47.703125 
L 25.09375 47.703125 
L 15.828125 0 
L 6.78125 0 
L 16.109375 47.703125 
L 7.515625 47.703125 
L 8.796875 54.6875 
L 17.390625 54.6875 
L 18.109375 58.5 
Q 19.96875 68.171875 24.625 72.078125 
Q 29.296875 75.984375 39.3125 75.984375 
z
" id="DejaVuSans-Oblique-66"/>
     </defs>
     <g transform="translate(1632 416.07375)scale(0.24 -0.24)">
      <use transform="translate(0 0.015625)" xlink:href="#DejaVuSans-Oblique-66"/>
      <use transform="translate(35.205078 -16.390625)scale(0.7)" xlink:href="#DejaVuSans-Oblique-74"/>
     </g>
    </g>
    <g id="LineCollection_7">
     <path d="M 1588.8 454.90125 
L 1588.8 430.90125 
" style="fill:none;stroke:#2ca02c;stroke-width:5;"/>
    </g>
    <g id="line2d_24">
     <path d="M 1564.8 442.90125 
L 1612.8 442.90125 
" style="fill:none;stroke:#2ca02c;stroke-linecap:square;stroke-width:5;"/>
    </g>
    <g id="line2d_25"/>
    <g id="text_19">
     <!-- $h_t$ -->
     <defs>
      <path d="M 55.71875 33.015625 
L 49.3125 0 
L 40.28125 0 
L 46.6875 32.671875 
Q 47.125 34.96875 47.359375 36.71875 
Q 47.609375 38.484375 47.609375 39.5 
Q 47.609375 43.609375 45.015625 45.890625 
Q 42.4375 48.1875 37.796875 48.1875 
Q 30.5625 48.1875 25.265625 43.296875 
Q 19.96875 38.421875 18.40625 30.328125 
L 12.5 0 
L 3.515625 0 
L 18.3125 75.984375 
L 27.296875 75.984375 
L 21.484375 46.09375 
Q 24.90625 50.6875 30.21875 53.34375 
Q 35.546875 56 41.40625 56 
Q 48.640625 56 52.609375 52.09375 
Q 56.59375 48.1875 56.59375 41.109375 
Q 56.59375 39.359375 56.375 37.359375 
Q 56.15625 35.359375 55.71875 33.015625 
z
" id="DejaVuSans-Oblique-68"/>
     </defs>
     <g transform="translate(1632 451.30125)scale(0.24 -0.24)">
      <use transform="translate(0 0.015625)" xlink:href="#DejaVuSans-Oblique-68"/>
      <use transform="translate(63.378906 -16.390625)scale(0.7)" xlink:href="#DejaVuSans-Oblique-74"/>
     </g>
    </g>
    <g id="LineCollection_8">
     <path d="M 1588.8 490.12875 
L 1588.8 466.12875 
" style="fill:none;stroke:#d62728;stroke-width:5;"/>
    </g>
    <g id="line2d_26">
     <path d="M 1564.8 478.12875 
L 1612.8 478.12875 
" style="fill:none;stroke:#d62728;stroke-linecap:square;stroke-width:5;"/>
    </g>
    <g id="line2d_27"/>
    <g id="text_20">
     <!-- $C_t$ -->
     <g transform="translate(1632 486.52875)scale(0.24 -0.24)">
      <use transform="translate(0 0.78125)" xlink:href="#DejaVuSans-Oblique-43"/>
      <use transform="translate(69.824219 -15.625)scale(0.7)" xlink:href="#DejaVuSans-Oblique-74"/>
     </g>
    </g>
   </g>
  </g>
 </g>
 <defs>
  <clipPath id="p14879a57b5">
   <rect height="725.76" width="1339.2" x="216" y="138.24"/>
  </clipPath>
 </defs>
</svg>
