<?xml version="1.0" encoding="utf-8" standalone="no"?>
<!DOCTYPE svg PUBLIC "-//W3C//DTD SVG 1.1//EN"
  "http://www.w3.org/Graphics/SVG/1.1/DTD/svg11.dtd">
<!-- Created with matplotlib (http://matplotlib.org/) -->
<svg height="1152pt" version="1.1" viewBox="0 0 1728 1152" width="1728pt" xmlns="http://www.w3.org/2000/svg" xmlns:xlink="http://www.w3.org/1999/xlink">
 <defs>
  <style type="text/css">
*{stroke-linecap:butt;stroke-linejoin:round;}
  </style>
 </defs>
 <g id="figure_1">
  <g id="patch_1">
   <path d="M 0 1152 
L 1728 1152 
L 1728 0 
L 0 0 
z
" style="fill:#ffffff;"/>
  </g>
  <g id="axes_1">
   <g id="patch_2">
    <path d="M 216 864 
L 1555.2 864 
L 1555.2 138.24 
L 216 138.24 
z
" style="fill:#ffffff;"/>
   </g>
   <g id="matplotlib.axis_1">
    <g id="xtick_1">
     <g id="line2d_1">
      <defs>
       <path d="M 0 0 
L 0 3.5 
" id="m2d06cdd5f3" style="stroke:#000000;stroke-width:0.8;"/>
      </defs>
      <g>
       <use style="stroke:#000000;stroke-width:0.8;" x="276.872727" xlink:href="#m2d06cdd5f3" y="864"/>
      </g>
     </g>
     <g id="text_1">
      <!-- cet -->
      <defs>
       <path d="M 48.78125 52.59375 
L 48.78125 44.1875 
Q 44.96875 46.296875 41.140625 47.34375 
Q 37.3125 48.390625 33.40625 48.390625 
Q 24.65625 48.390625 19.8125 42.84375 
Q 14.984375 37.3125 14.984375 27.296875 
Q 14.984375 17.28125 19.8125 11.734375 
Q 24.65625 6.203125 33.40625 6.203125 
Q 37.3125 6.203125 41.140625 7.25 
Q 44.96875 8.296875 48.78125 10.40625 
L 48.78125 2.09375 
Q 45.015625 0.34375 40.984375 -0.53125 
Q 36.96875 -1.421875 32.421875 -1.421875 
Q 20.0625 -1.421875 12.78125 6.34375 
Q 5.515625 14.109375 5.515625 27.296875 
Q 5.515625 40.671875 12.859375 48.328125 
Q 20.21875 56 33.015625 56 
Q 37.15625 56 41.109375 55.140625 
Q 45.0625 54.296875 48.78125 52.59375 
z
" id="DejaVuSans-63"/>
       <path d="M 56.203125 29.59375 
L 56.203125 25.203125 
L 14.890625 25.203125 
Q 15.484375 15.921875 20.484375 11.0625 
Q 25.484375 6.203125 34.421875 6.203125 
Q 39.59375 6.203125 44.453125 7.46875 
Q 49.3125 8.734375 54.109375 11.28125 
L 54.109375 2.78125 
Q 49.265625 0.734375 44.1875 -0.34375 
Q 39.109375 -1.421875 33.890625 -1.421875 
Q 20.796875 -1.421875 13.15625 6.1875 
Q 5.515625 13.8125 5.515625 26.8125 
Q 5.515625 40.234375 12.765625 48.109375 
Q 20.015625 56 32.328125 56 
Q 43.359375 56 49.78125 48.890625 
Q 56.203125 41.796875 56.203125 29.59375 
z
M 47.21875 32.234375 
Q 47.125 39.59375 43.09375 43.984375 
Q 39.0625 48.390625 32.421875 48.390625 
Q 24.90625 48.390625 20.390625 44.140625 
Q 15.875 39.890625 15.1875 32.171875 
z
" id="DejaVuSans-65"/>
       <path d="M 18.3125 70.21875 
L 18.3125 54.6875 
L 36.8125 54.6875 
L 36.8125 47.703125 
L 18.3125 47.703125 
L 18.3125 18.015625 
Q 18.3125 11.328125 20.140625 9.421875 
Q 21.96875 7.515625 27.59375 7.515625 
L 36.8125 7.515625 
L 36.8125 0 
L 27.59375 0 
Q 17.1875 0 13.234375 3.875 
Q 9.28125 7.765625 9.28125 18.015625 
L 9.28125 47.703125 
L 2.6875 47.703125 
L 2.6875 54.6875 
L 9.28125 54.6875 
L 9.28125 70.21875 
z
" id="DejaVuSans-74"/>
      </defs>
      <g transform="translate(285.150852 917.715625)rotate(-90)scale(0.3 -0.3)">
       <use xlink:href="#DejaVuSans-63"/>
       <use x="54.980469" xlink:href="#DejaVuSans-65"/>
       <use x="116.503906" xlink:href="#DejaVuSans-74"/>
      </g>
     </g>
    </g>
    <g id="xtick_2">
     <g id="line2d_2">
      <g>
       <use style="stroke:#000000;stroke-width:0.8;" x="412.145455" xlink:href="#m2d06cdd5f3" y="864"/>
      </g>
     </g>
     <g id="text_2">
      <!-- oncle -->
      <defs>
       <path d="M 30.609375 48.390625 
Q 23.390625 48.390625 19.1875 42.75 
Q 14.984375 37.109375 14.984375 27.296875 
Q 14.984375 17.484375 19.15625 11.84375 
Q 23.34375 6.203125 30.609375 6.203125 
Q 37.796875 6.203125 41.984375 11.859375 
Q 46.1875 17.53125 46.1875 27.296875 
Q 46.1875 37.015625 41.984375 42.703125 
Q 37.796875 48.390625 30.609375 48.390625 
z
M 30.609375 56 
Q 42.328125 56 49.015625 48.375 
Q 55.71875 40.765625 55.71875 27.296875 
Q 55.71875 13.875 49.015625 6.21875 
Q 42.328125 -1.421875 30.609375 -1.421875 
Q 18.84375 -1.421875 12.171875 6.21875 
Q 5.515625 13.875 5.515625 27.296875 
Q 5.515625 40.765625 12.171875 48.375 
Q 18.84375 56 30.609375 56 
z
" id="DejaVuSans-6f"/>
       <path d="M 54.890625 33.015625 
L 54.890625 0 
L 45.90625 0 
L 45.90625 32.71875 
Q 45.90625 40.484375 42.875 44.328125 
Q 39.84375 48.1875 33.796875 48.1875 
Q 26.515625 48.1875 22.3125 43.546875 
Q 18.109375 38.921875 18.109375 30.90625 
L 18.109375 0 
L 9.078125 0 
L 9.078125 54.6875 
L 18.109375 54.6875 
L 18.109375 46.1875 
Q 21.34375 51.125 25.703125 53.5625 
Q 30.078125 56 35.796875 56 
Q 45.21875 56 50.046875 50.171875 
Q 54.890625 44.34375 54.890625 33.015625 
z
" id="DejaVuSans-6e"/>
       <path d="M 9.421875 75.984375 
L 18.40625 75.984375 
L 18.40625 0 
L 9.421875 0 
z
" id="DejaVuSans-6c"/>
      </defs>
      <g transform="translate(420.42358 951.657812)rotate(-90)scale(0.3 -0.3)">
       <use xlink:href="#DejaVuSans-6f"/>
       <use x="61.181641" xlink:href="#DejaVuSans-6e"/>
       <use x="124.560547" xlink:href="#DejaVuSans-63"/>
       <use x="179.541016" xlink:href="#DejaVuSans-6c"/>
       <use x="207.324219" xlink:href="#DejaVuSans-65"/>
      </g>
     </g>
    </g>
    <g id="xtick_3">
     <g id="line2d_3">
      <g>
       <use style="stroke:#000000;stroke-width:0.8;" x="547.418182" xlink:href="#m2d06cdd5f3" y="864"/>
      </g>
     </g>
     <g id="text_3">
      <!-- nerveux -->
      <defs>
       <path d="M 41.109375 46.296875 
Q 39.59375 47.171875 37.8125 47.578125 
Q 36.03125 48 33.890625 48 
Q 26.265625 48 22.1875 43.046875 
Q 18.109375 38.09375 18.109375 28.8125 
L 18.109375 0 
L 9.078125 0 
L 9.078125 54.6875 
L 18.109375 54.6875 
L 18.109375 46.1875 
Q 20.953125 51.171875 25.484375 53.578125 
Q 30.03125 56 36.53125 56 
Q 37.453125 56 38.578125 55.875 
Q 39.703125 55.765625 41.0625 55.515625 
z
" id="DejaVuSans-72"/>
       <path d="M 2.984375 54.6875 
L 12.5 54.6875 
L 29.59375 8.796875 
L 46.6875 54.6875 
L 56.203125 54.6875 
L 35.6875 0 
L 23.484375 0 
z
" id="DejaVuSans-76"/>
       <path d="M 8.5 21.578125 
L 8.5 54.6875 
L 17.484375 54.6875 
L 17.484375 21.921875 
Q 17.484375 14.15625 20.5 10.265625 
Q 23.53125 6.390625 29.59375 6.390625 
Q 36.859375 6.390625 41.078125 11.03125 
Q 45.3125 15.671875 45.3125 23.6875 
L 45.3125 54.6875 
L 54.296875 54.6875 
L 54.296875 0 
L 45.3125 0 
L 45.3125 8.40625 
Q 42.046875 3.421875 37.71875 1 
Q 33.40625 -1.421875 27.6875 -1.421875 
Q 18.265625 -1.421875 13.375 4.4375 
Q 8.5 10.296875 8.5 21.578125 
z
M 31.109375 56 
z
" id="DejaVuSans-75"/>
       <path d="M 54.890625 54.6875 
L 35.109375 28.078125 
L 55.90625 0 
L 45.3125 0 
L 29.390625 21.484375 
L 13.484375 0 
L 2.875 0 
L 24.125 28.609375 
L 4.6875 54.6875 
L 15.28125 54.6875 
L 29.78125 35.203125 
L 44.28125 54.6875 
z
" id="DejaVuSans-78"/>
      </defs>
      <g transform="translate(555.696307 993.789062)rotate(-90)scale(0.3 -0.3)">
       <use xlink:href="#DejaVuSans-6e"/>
       <use x="63.378906" xlink:href="#DejaVuSans-65"/>
       <use x="124.902344" xlink:href="#DejaVuSans-72"/>
       <use x="166.015625" xlink:href="#DejaVuSans-76"/>
       <use x="225.195312" xlink:href="#DejaVuSans-65"/>
       <use x="286.71875" xlink:href="#DejaVuSans-75"/>
       <use x="350.097656" xlink:href="#DejaVuSans-78"/>
      </g>
     </g>
    </g>
    <g id="xtick_4">
     <g id="line2d_4">
      <g>
       <use style="stroke:#000000;stroke-width:0.8;" x="682.690909" xlink:href="#m2d06cdd5f3" y="864"/>
      </g>
     </g>
     <g id="text_4">
      <!-- qui -->
      <defs>
       <path d="M 14.796875 27.296875 
Q 14.796875 17.390625 18.875 11.75 
Q 22.953125 6.109375 30.078125 6.109375 
Q 37.203125 6.109375 41.296875 11.75 
Q 45.40625 17.390625 45.40625 27.296875 
Q 45.40625 37.203125 41.296875 42.84375 
Q 37.203125 48.484375 30.078125 48.484375 
Q 22.953125 48.484375 18.875 42.84375 
Q 14.796875 37.203125 14.796875 27.296875 
z
M 45.40625 8.203125 
Q 42.578125 3.328125 38.25 0.953125 
Q 33.9375 -1.421875 27.875 -1.421875 
Q 17.96875 -1.421875 11.734375 6.484375 
Q 5.515625 14.40625 5.515625 27.296875 
Q 5.515625 40.1875 11.734375 48.09375 
Q 17.96875 56 27.875 56 
Q 33.9375 56 38.25 53.625 
Q 42.578125 51.265625 45.40625 46.390625 
L 45.40625 54.6875 
L 54.390625 54.6875 
L 54.390625 -20.796875 
L 45.40625 -20.796875 
z
" id="DejaVuSans-71"/>
       <path d="M 9.421875 54.6875 
L 18.40625 54.6875 
L 18.40625 0 
L 9.421875 0 
z
M 9.421875 75.984375 
L 18.40625 75.984375 
L 18.40625 64.59375 
L 9.421875 64.59375 
z
" id="DejaVuSans-69"/>
      </defs>
      <g transform="translate(690.969034 917.392187)rotate(-90)scale(0.3 -0.3)">
       <use xlink:href="#DejaVuSans-71"/>
       <use x="63.476562" xlink:href="#DejaVuSans-75"/>
       <use x="126.855469" xlink:href="#DejaVuSans-69"/>
      </g>
     </g>
    </g>
    <g id="xtick_5">
     <g id="line2d_5">
      <g>
       <use style="stroke:#000000;stroke-width:0.8;" x="817.963636" xlink:href="#m2d06cdd5f3" y="864"/>
      </g>
     </g>
     <g id="text_5">
      <!-- contacte -->
      <defs>
       <path d="M 34.28125 27.484375 
Q 23.390625 27.484375 19.1875 25 
Q 14.984375 22.515625 14.984375 16.5 
Q 14.984375 11.71875 18.140625 8.90625 
Q 21.296875 6.109375 26.703125 6.109375 
Q 34.1875 6.109375 38.703125 11.40625 
Q 43.21875 16.703125 43.21875 25.484375 
L 43.21875 27.484375 
z
M 52.203125 31.203125 
L 52.203125 0 
L 43.21875 0 
L 43.21875 8.296875 
Q 40.140625 3.328125 35.546875 0.953125 
Q 30.953125 -1.421875 24.3125 -1.421875 
Q 15.921875 -1.421875 10.953125 3.296875 
Q 6 8.015625 6 15.921875 
Q 6 25.140625 12.171875 29.828125 
Q 18.359375 34.515625 30.609375 34.515625 
L 43.21875 34.515625 
L 43.21875 35.40625 
Q 43.21875 41.609375 39.140625 45 
Q 35.0625 48.390625 27.6875 48.390625 
Q 23 48.390625 18.546875 47.265625 
Q 14.109375 46.140625 10.015625 43.890625 
L 10.015625 52.203125 
Q 14.9375 54.109375 19.578125 55.046875 
Q 24.21875 56 28.609375 56 
Q 40.484375 56 46.34375 49.84375 
Q 52.203125 43.703125 52.203125 31.203125 
z
" id="DejaVuSans-61"/>
      </defs>
      <g transform="translate(826.241761 1001.725)rotate(-90)scale(0.3 -0.3)">
       <use xlink:href="#DejaVuSans-63"/>
       <use x="54.980469" xlink:href="#DejaVuSans-6f"/>
       <use x="116.162109" xlink:href="#DejaVuSans-6e"/>
       <use x="179.541016" xlink:href="#DejaVuSans-74"/>
       <use x="218.75" xlink:href="#DejaVuSans-61"/>
       <use x="280.029297" xlink:href="#DejaVuSans-63"/>
       <use x="335.009766" xlink:href="#DejaVuSans-74"/>
       <use x="374.21875" xlink:href="#DejaVuSans-65"/>
      </g>
     </g>
    </g>
    <g id="xtick_6">
     <g id="line2d_6">
      <g>
       <use style="stroke:#000000;stroke-width:0.8;" x="953.236364" xlink:href="#m2d06cdd5f3" y="864"/>
      </g>
     </g>
     <g id="text_6">
      <!-- les -->
      <defs>
       <path d="M 44.28125 53.078125 
L 44.28125 44.578125 
Q 40.484375 46.53125 36.375 47.5 
Q 32.28125 48.484375 27.875 48.484375 
Q 21.1875 48.484375 17.84375 46.4375 
Q 14.5 44.390625 14.5 40.28125 
Q 14.5 37.15625 16.890625 35.375 
Q 19.28125 33.59375 26.515625 31.984375 
L 29.59375 31.296875 
Q 39.15625 29.25 43.1875 25.515625 
Q 47.21875 21.78125 47.21875 15.09375 
Q 47.21875 7.46875 41.1875 3.015625 
Q 35.15625 -1.421875 24.609375 -1.421875 
Q 20.21875 -1.421875 15.453125 -0.5625 
Q 10.6875 0.296875 5.421875 2 
L 5.421875 11.28125 
Q 10.40625 8.6875 15.234375 7.390625 
Q 20.0625 6.109375 24.8125 6.109375 
Q 31.15625 6.109375 34.5625 8.28125 
Q 37.984375 10.453125 37.984375 14.40625 
Q 37.984375 18.0625 35.515625 20.015625 
Q 33.0625 21.96875 24.703125 23.78125 
L 21.578125 24.515625 
Q 13.234375 26.265625 9.515625 29.90625 
Q 5.8125 33.546875 5.8125 39.890625 
Q 5.8125 47.609375 11.28125 51.796875 
Q 16.75 56 26.8125 56 
Q 31.78125 56 36.171875 55.265625 
Q 40.578125 54.546875 44.28125 53.078125 
z
" id="DejaVuSans-73"/>
      </defs>
      <g transform="translate(961.514489 913.421875)rotate(-90)scale(0.3 -0.3)">
       <use xlink:href="#DejaVuSans-6c"/>
       <use x="27.783203" xlink:href="#DejaVuSans-65"/>
       <use x="89.306641" xlink:href="#DejaVuSans-73"/>
      </g>
     </g>
    </g>
    <g id="xtick_7">
     <g id="line2d_7">
      <g>
       <use style="stroke:#000000;stroke-width:0.8;" x="1088.509091" xlink:href="#m2d06cdd5f3" y="864"/>
      </g>
     </g>
     <g id="text_7">
      <!-- coiffeurs -->
      <defs>
       <path d="M 37.109375 75.984375 
L 37.109375 68.5 
L 28.515625 68.5 
Q 23.6875 68.5 21.796875 66.546875 
Q 19.921875 64.59375 19.921875 59.515625 
L 19.921875 54.6875 
L 34.71875 54.6875 
L 34.71875 47.703125 
L 19.921875 47.703125 
L 19.921875 0 
L 10.890625 0 
L 10.890625 47.703125 
L 2.296875 47.703125 
L 2.296875 54.6875 
L 10.890625 54.6875 
L 10.890625 58.5 
Q 10.890625 67.625 15.140625 71.796875 
Q 19.390625 75.984375 28.609375 75.984375 
z
" id="DejaVuSans-66"/>
      </defs>
      <g transform="translate(1096.787216 1000.740625)rotate(-90)scale(0.3 -0.3)">
       <use xlink:href="#DejaVuSans-63"/>
       <use x="54.980469" xlink:href="#DejaVuSans-6f"/>
       <use x="116.162109" xlink:href="#DejaVuSans-69"/>
       <use x="143.945312" xlink:href="#DejaVuSans-66"/>
       <use x="179.150391" xlink:href="#DejaVuSans-66"/>
       <use x="214.355469" xlink:href="#DejaVuSans-65"/>
       <use x="275.878906" xlink:href="#DejaVuSans-75"/>
       <use x="339.257812" xlink:href="#DejaVuSans-72"/>
       <use x="380.371094" xlink:href="#DejaVuSans-73"/>
      </g>
     </g>
    </g>
    <g id="xtick_8">
     <g id="line2d_8">
      <g>
       <use style="stroke:#000000;stroke-width:0.8;" x="1223.781818" xlink:href="#m2d06cdd5f3" y="864"/>
      </g>
     </g>
     <g id="text_8">
      <!-- ne -->
      <g transform="translate(1232.059943 908.471875)rotate(-90)scale(0.3 -0.3)">
       <use xlink:href="#DejaVuSans-6e"/>
       <use x="63.378906" xlink:href="#DejaVuSans-65"/>
      </g>
     </g>
    </g>
    <g id="xtick_9">
     <g id="line2d_9">
      <g>
       <use style="stroke:#000000;stroke-width:0.8;" x="1359.054545" xlink:href="#m2d06cdd5f3" y="864"/>
      </g>
     </g>
     <g id="text_9">
      <!-- jeta -->
      <defs>
       <path d="M 9.421875 54.6875 
L 18.40625 54.6875 
L 18.40625 -0.984375 
Q 18.40625 -11.421875 14.421875 -16.109375 
Q 10.453125 -20.796875 1.609375 -20.796875 
L -1.8125 -20.796875 
L -1.8125 -13.1875 
L 0.59375 -13.1875 
Q 5.71875 -13.1875 7.5625 -10.8125 
Q 9.421875 -8.453125 9.421875 -0.984375 
z
M 9.421875 75.984375 
L 18.40625 75.984375 
L 18.40625 64.59375 
L 9.421875 64.59375 
z
" id="DejaVuSans-6a"/>
      </defs>
      <g transform="translate(1367.33267 927.939062)rotate(-90)scale(0.3 -0.3)">
       <use xlink:href="#DejaVuSans-6a"/>
       <use x="27.783203" xlink:href="#DejaVuSans-65"/>
       <use x="89.306641" xlink:href="#DejaVuSans-74"/>
       <use x="128.515625" xlink:href="#DejaVuSans-61"/>
      </g>
     </g>
    </g>
    <g id="xtick_10">
     <g id="line2d_10">
      <g>
       <use style="stroke:#000000;stroke-width:0.8;" x="1494.327273" xlink:href="#m2d06cdd5f3" y="864"/>
      </g>
     </g>
     <g id="text_10">
      <!-- pas -->
      <defs>
       <path d="M 18.109375 8.203125 
L 18.109375 -20.796875 
L 9.078125 -20.796875 
L 9.078125 54.6875 
L 18.109375 54.6875 
L 18.109375 46.390625 
Q 20.953125 51.265625 25.265625 53.625 
Q 29.59375 56 35.59375 56 
Q 45.5625 56 51.78125 48.09375 
Q 58.015625 40.1875 58.015625 27.296875 
Q 58.015625 14.40625 51.78125 6.484375 
Q 45.5625 -1.421875 35.59375 -1.421875 
Q 29.59375 -1.421875 25.265625 0.953125 
Q 20.953125 3.328125 18.109375 8.203125 
z
M 48.6875 27.296875 
Q 48.6875 37.203125 44.609375 42.84375 
Q 40.53125 48.484375 33.40625 48.484375 
Q 26.265625 48.484375 22.1875 42.84375 
Q 18.109375 37.203125 18.109375 27.296875 
Q 18.109375 17.390625 22.1875 11.75 
Q 26.265625 6.109375 33.40625 6.109375 
Q 40.53125 6.109375 44.609375 11.75 
Q 48.6875 17.390625 48.6875 27.296875 
z
" id="DejaVuSans-70"/>
      </defs>
      <g transform="translate(1485.808679 924.057812)rotate(-90)scale(0.3 -0.3)">
       <use xlink:href="#DejaVuSans-70"/>
       <use x="63.476562" xlink:href="#DejaVuSans-61"/>
       <use x="124.755859" xlink:href="#DejaVuSans-73"/>
      </g>
      <!--  -->
      <g transform="translate(1519.402116 897.528906)rotate(-90)scale(0.3 -0.3)"/>
     </g>
    </g>
   </g>
   <g id="matplotlib.axis_2">
    <g id="ytick_1">
     <g id="line2d_11">
      <defs>
       <path d="M 0 0 
L -3.5 0 
" id="m6d8986e02d" style="stroke:#000000;stroke-width:0.8;"/>
      </defs>
      <g>
       <use style="stroke:#000000;stroke-width:0.8;" x="216" xlink:href="#m6d8986e02d" y="753.421238"/>
      </g>
     </g>
     <g id="text_11">
      <!-- −1.5 -->
      <defs>
       <path d="M 10.59375 35.5 
L 73.1875 35.5 
L 73.1875 27.203125 
L 10.59375 27.203125 
z
" id="DejaVuSans-2212"/>
       <path d="M 12.40625 8.296875 
L 28.515625 8.296875 
L 28.515625 63.921875 
L 10.984375 60.40625 
L 10.984375 69.390625 
L 28.421875 72.90625 
L 38.28125 72.90625 
L 38.28125 8.296875 
L 54.390625 8.296875 
L 54.390625 0 
L 12.40625 0 
z
" id="DejaVuSans-31"/>
       <path d="M 10.6875 12.40625 
L 21 12.40625 
L 21 0 
L 10.6875 0 
z
" id="DejaVuSans-2e"/>
       <path d="M 10.796875 72.90625 
L 49.515625 72.90625 
L 49.515625 64.59375 
L 19.828125 64.59375 
L 19.828125 46.734375 
Q 21.96875 47.46875 24.109375 47.828125 
Q 26.265625 48.1875 28.421875 48.1875 
Q 40.625 48.1875 47.75 41.5 
Q 54.890625 34.8125 54.890625 23.390625 
Q 54.890625 11.625 47.5625 5.09375 
Q 40.234375 -1.421875 26.90625 -1.421875 
Q 22.3125 -1.421875 17.546875 -0.640625 
Q 12.796875 0.140625 7.71875 1.703125 
L 7.71875 11.625 
Q 12.109375 9.234375 16.796875 8.0625 
Q 21.484375 6.890625 26.703125 6.890625 
Q 35.15625 6.890625 40.078125 11.328125 
Q 45.015625 15.765625 45.015625 23.390625 
Q 45.015625 31 40.078125 35.4375 
Q 35.15625 39.890625 26.703125 39.890625 
Q 22.75 39.890625 18.8125 39.015625 
Q 14.890625 38.140625 10.796875 36.28125 
z
" id="DejaVuSans-35"/>
      </defs>
      <g transform="translate(136.151563 764.818894)scale(0.3 -0.3)">
       <use xlink:href="#DejaVuSans-2212"/>
       <use x="83.789062" xlink:href="#DejaVuSans-31"/>
       <use x="147.412109" xlink:href="#DejaVuSans-2e"/>
       <use x="179.199219" xlink:href="#DejaVuSans-35"/>
      </g>
     </g>
    </g>
    <g id="ytick_2">
     <g id="line2d_12">
      <g>
       <use style="stroke:#000000;stroke-width:0.8;" x="216" xlink:href="#m6d8986e02d" y="603.205505"/>
      </g>
     </g>
     <g id="text_12">
      <!-- −1.0 -->
      <defs>
       <path d="M 31.78125 66.40625 
Q 24.171875 66.40625 20.328125 58.90625 
Q 16.5 51.421875 16.5 36.375 
Q 16.5 21.390625 20.328125 13.890625 
Q 24.171875 6.390625 31.78125 6.390625 
Q 39.453125 6.390625 43.28125 13.890625 
Q 47.125 21.390625 47.125 36.375 
Q 47.125 51.421875 43.28125 58.90625 
Q 39.453125 66.40625 31.78125 66.40625 
z
M 31.78125 74.21875 
Q 44.046875 74.21875 50.515625 64.515625 
Q 56.984375 54.828125 56.984375 36.375 
Q 56.984375 17.96875 50.515625 8.265625 
Q 44.046875 -1.421875 31.78125 -1.421875 
Q 19.53125 -1.421875 13.0625 8.265625 
Q 6.59375 17.96875 6.59375 36.375 
Q 6.59375 54.828125 13.0625 64.515625 
Q 19.53125 74.21875 31.78125 74.21875 
z
" id="DejaVuSans-30"/>
      </defs>
      <g transform="translate(136.151563 614.603161)scale(0.3 -0.3)">
       <use xlink:href="#DejaVuSans-2212"/>
       <use x="83.789062" xlink:href="#DejaVuSans-31"/>
       <use x="147.412109" xlink:href="#DejaVuSans-2e"/>
       <use x="179.199219" xlink:href="#DejaVuSans-30"/>
      </g>
     </g>
    </g>
    <g id="ytick_3">
     <g id="line2d_13">
      <g>
       <use style="stroke:#000000;stroke-width:0.8;" x="216" xlink:href="#m6d8986e02d" y="452.989772"/>
      </g>
     </g>
     <g id="text_13">
      <!-- −0.5 -->
      <g transform="translate(136.151563 464.387429)scale(0.3 -0.3)">
       <use xlink:href="#DejaVuSans-2212"/>
       <use x="83.789062" xlink:href="#DejaVuSans-30"/>
       <use x="147.412109" xlink:href="#DejaVuSans-2e"/>
       <use x="179.199219" xlink:href="#DejaVuSans-35"/>
      </g>
     </g>
    </g>
    <g id="ytick_4">
     <g id="line2d_14">
      <g>
       <use style="stroke:#000000;stroke-width:0.8;" x="216" xlink:href="#m6d8986e02d" y="302.77404"/>
      </g>
     </g>
     <g id="text_14">
      <!-- 0.0 -->
      <g transform="translate(161.290625 314.171696)scale(0.3 -0.3)">
       <use xlink:href="#DejaVuSans-30"/>
       <use x="63.623047" xlink:href="#DejaVuSans-2e"/>
       <use x="95.410156" xlink:href="#DejaVuSans-30"/>
      </g>
     </g>
    </g>
    <g id="ytick_5">
     <g id="line2d_15">
      <g>
       <use style="stroke:#000000;stroke-width:0.8;" x="216" xlink:href="#m6d8986e02d" y="152.558307"/>
      </g>
     </g>
     <g id="text_15">
      <!-- 0.5 -->
      <g transform="translate(161.290625 163.955963)scale(0.3 -0.3)">
       <use xlink:href="#DejaVuSans-30"/>
       <use x="63.623047" xlink:href="#DejaVuSans-2e"/>
       <use x="95.410156" xlink:href="#DejaVuSans-35"/>
      </g>
     </g>
    </g>
    <g id="text_16">
     <!-- Activation -->
     <defs>
      <path d="M 34.1875 63.1875 
L 20.796875 26.90625 
L 47.609375 26.90625 
z
M 28.609375 72.90625 
L 39.796875 72.90625 
L 67.578125 0 
L 57.328125 0 
L 50.6875 18.703125 
L 17.828125 18.703125 
L 11.1875 0 
L 0.78125 0 
z
" id="DejaVuSans-41"/>
     </defs>
     <g transform="translate(126.744375 566.42875)rotate(-90)scale(0.26 -0.26)">
      <use xlink:href="#DejaVuSans-41"/>
      <use x="68.392578" xlink:href="#DejaVuSans-63"/>
      <use x="123.373047" xlink:href="#DejaVuSans-74"/>
      <use x="162.582031" xlink:href="#DejaVuSans-69"/>
      <use x="190.365234" xlink:href="#DejaVuSans-76"/>
      <use x="249.544922" xlink:href="#DejaVuSans-61"/>
      <use x="310.824219" xlink:href="#DejaVuSans-74"/>
      <use x="350.033203" xlink:href="#DejaVuSans-69"/>
      <use x="377.816406" xlink:href="#DejaVuSans-6f"/>
      <use x="438.998047" xlink:href="#DejaVuSans-6e"/>
     </g>
    </g>
   </g>
   <g id="LineCollection_1">
    <path clip-path="url(#pb695bc7045)" d="M 276.872727 302.77404 
L 276.872727 302.878746 
" style="fill:none;stroke:#1f77b4;stroke-width:5;"/>
    <path clip-path="url(#pb695bc7045)" d="M 412.145455 302.77404 
L 412.145455 745.456355 
" style="fill:none;stroke:#1f77b4;stroke-width:5;"/>
    <path clip-path="url(#pb695bc7045)" d="M 547.418182 302.77404 
L 547.418182 519.664787 
" style="fill:none;stroke:#1f77b4;stroke-width:5;"/>
    <path clip-path="url(#pb695bc7045)" d="M 682.690909 302.77404 
L 682.690909 818.899719 
" style="fill:none;stroke:#1f77b4;stroke-width:5;"/>
    <path clip-path="url(#pb695bc7045)" d="M 817.963636 302.77404 
L 817.963636 245.779106 
" style="fill:none;stroke:#1f77b4;stroke-width:5;"/>
    <path clip-path="url(#pb695bc7045)" d="M 953.236364 302.77404 
L 953.236364 303.181418 
" style="fill:none;stroke:#1f77b4;stroke-width:5;"/>
    <path clip-path="url(#pb695bc7045)" d="M 1088.509091 302.77404 
L 1088.509091 831.010909 
" style="fill:none;stroke:#1f77b4;stroke-width:5;"/>
    <path clip-path="url(#pb695bc7045)" d="M 1223.781818 302.77404 
L 1223.781818 302.311374 
" style="fill:none;stroke:#1f77b4;stroke-width:5;"/>
    <path clip-path="url(#pb695bc7045)" d="M 1359.054545 302.77404 
L 1359.054545 210.901421 
" style="fill:none;stroke:#1f77b4;stroke-width:5;"/>
    <path clip-path="url(#pb695bc7045)" d="M 1494.327273 302.77404 
L 1494.327273 301.847553 
" style="fill:none;stroke:#1f77b4;stroke-width:5;"/>
   </g>
   <g id="LineCollection_2">
    <path clip-path="url(#pb695bc7045)" d="M 276.872727 305.898328 
L 276.872727 295.216821 
" style="fill:none;stroke:#ff7f0e;stroke-width:5;"/>
    <path clip-path="url(#pb695bc7045)" d="M 412.145455 301.725268 
L 412.145455 185.902152 
" style="fill:none;stroke:#ff7f0e;stroke-width:5;"/>
    <path clip-path="url(#pb695bc7045)" d="M 547.418182 301.508815 
L 547.418182 296.525569 
" style="fill:none;stroke:#ff7f0e;stroke-width:5;"/>
    <path clip-path="url(#pb695bc7045)" d="M 682.690909 302.619966 
L 682.690909 302.355104 
" style="fill:none;stroke:#ff7f0e;stroke-width:5;"/>
    <path clip-path="url(#pb695bc7045)" d="M 817.963636 302.798933 
L 817.963636 302.356665 
" style="fill:none;stroke:#ff7f0e;stroke-width:5;"/>
    <path clip-path="url(#pb695bc7045)" d="M 953.236364 302.773242 
L 953.236364 301.855858 
" style="fill:none;stroke:#ff7f0e;stroke-width:5;"/>
    <path clip-path="url(#pb695bc7045)" d="M 1088.509091 291.351079 
L 1088.509091 194.845996 
" style="fill:none;stroke:#ff7f0e;stroke-width:5;"/>
    <path clip-path="url(#pb695bc7045)" d="M 1223.781818 302.768598 
L 1223.781818 302.710933 
" style="fill:none;stroke:#ff7f0e;stroke-width:5;"/>
    <path clip-path="url(#pb695bc7045)" d="M 1359.054545 302.780837 
L 1359.054545 302.679101 
" style="fill:none;stroke:#ff7f0e;stroke-width:5;"/>
    <path clip-path="url(#pb695bc7045)" d="M 1494.327273 297.48481 
L 1494.327273 268.076721 
" style="fill:none;stroke:#ff7f0e;stroke-width:5;"/>
   </g>
   <g id="LineCollection_3">
    <path clip-path="url(#pb695bc7045)" d="M 276.872727 305.826578 
L 276.872727 295.601882 
" style="fill:none;stroke:#2ca02c;stroke-width:5;"/>
    <path clip-path="url(#pb695bc7045)" d="M 412.145455 363.093769 
L 412.145455 302.451298 
" style="fill:none;stroke:#2ca02c;stroke-width:5;"/>
    <path clip-path="url(#pb695bc7045)" d="M 547.418182 318.011349 
L 547.418182 303.409812 
" style="fill:none;stroke:#2ca02c;stroke-width:5;"/>
    <path clip-path="url(#pb695bc7045)" d="M 682.690909 304.023402 
L 682.690909 303.066128 
" style="fill:none;stroke:#2ca02c;stroke-width:5;"/>
    <path clip-path="url(#pb695bc7045)" d="M 817.963636 302.87801 
L 817.963636 302.108527 
" style="fill:none;stroke:#2ca02c;stroke-width:5;"/>
    <path clip-path="url(#pb695bc7045)" d="M 953.236364 303.021394 
L 953.236364 302.765506 
" style="fill:none;stroke:#2ca02c;stroke-width:5;"/>
    <path clip-path="url(#pb695bc7045)" d="M 1088.509091 333.33182 
L 1088.509091 299.272439 
" style="fill:none;stroke:#2ca02c;stroke-width:5;"/>
    <path clip-path="url(#pb695bc7045)" d="M 1223.781818 302.771609 
L 1223.781818 302.764947 
" style="fill:none;stroke:#2ca02c;stroke-width:5;"/>
    <path clip-path="url(#pb695bc7045)" d="M 1359.054545 333.5171 
L 1359.054545 204.426886 
" style="fill:none;stroke:#2ca02c;stroke-width:5;"/>
    <path clip-path="url(#pb695bc7045)" d="M 1494.327273 307.429375 
L 1494.327273 295.837765 
" style="fill:none;stroke:#2ca02c;stroke-width:5;"/>
   </g>
   <g id="LineCollection_4">
    <path clip-path="url(#pb695bc7045)" d="M 276.872727 305.923325 
L 276.872727 295.349649 
" style="fill:none;stroke:#d62728;stroke-width:5;"/>
    <path clip-path="url(#pb695bc7045)" d="M 412.145455 606.814179 
L 412.145455 440.791905 
" style="fill:none;stroke:#d62728;stroke-width:5;"/>
    <path clip-path="url(#pb695bc7045)" d="M 547.418182 530.414499 
L 547.418182 297.944975 
" style="fill:none;stroke:#d62728;stroke-width:5;"/>
    <path clip-path="url(#pb695bc7045)" d="M 682.690909 571.142625 
L 682.690909 550.695406 
" style="fill:none;stroke:#d62728;stroke-width:5;"/>
    <path clip-path="url(#pb695bc7045)" d="M 817.963636 299.222979 
L 817.963636 249.66455 
" style="fill:none;stroke:#d62728;stroke-width:5;"/>
    <path clip-path="url(#pb695bc7045)" d="M 953.236364 303.056623 
L 953.236364 302.762188 
" style="fill:none;stroke:#d62728;stroke-width:5;"/>
    <path clip-path="url(#pb695bc7045)" d="M 1088.509091 663.105002 
L 1088.509091 470.714301 
" style="fill:none;stroke:#d62728;stroke-width:5;"/>
    <path clip-path="url(#pb695bc7045)" d="M 1223.781818 302.660214 
L 1223.781818 302.491379 
" style="fill:none;stroke:#d62728;stroke-width:5;"/>
    <path clip-path="url(#pb695bc7045)" d="M 1359.054545 342.446324 
L 1359.054545 171.229091 
" style="fill:none;stroke:#d62728;stroke-width:5;"/>
    <path clip-path="url(#pb695bc7045)" d="M 1494.327273 308.438158 
L 1494.327273 294.301881 
" style="fill:none;stroke:#d62728;stroke-width:5;"/>
   </g>
   <g id="line2d_16">
    <path clip-path="url(#pb695bc7045)" d="M 276.872727 302.826393 
L 412.145455 524.115197 
L 547.418182 411.219413 
L 682.690909 560.836879 
L 817.963636 274.276573 
L 953.236364 302.977729 
L 1088.509091 566.892474 
L 1223.781818 302.542707 
L 1359.054545 256.83773 
L 1494.327273 302.310796 
" style="fill:none;stroke:#1f77b4;stroke-dasharray:18.5,8;stroke-dashoffset:0;stroke-width:5;"/>
   </g>
   <g id="line2d_17">
    <path clip-path="url(#pb695bc7045)" d="M 276.872727 300.557575 
L 412.145455 243.81371 
L 547.418182 299.017192 
L 682.690909 302.487535 
L 817.963636 302.577799 
L 953.236364 302.31455 
L 1088.509091 243.098538 
L 1223.781818 302.739765 
L 1359.054545 302.729969 
L 1494.327273 282.780765 
" style="fill:none;stroke:#ff7f0e;stroke-dasharray:18.5,8;stroke-dashoffset:0;stroke-width:5;"/>
   </g>
   <g id="line2d_18">
    <path clip-path="url(#pb695bc7045)" d="M 276.872727 300.71423 
L 412.145455 332.772534 
L 547.418182 310.71058 
L 682.690909 303.544765 
L 817.963636 302.493269 
L 953.236364 302.89345 
L 1088.509091 316.30213 
L 1223.781818 302.768278 
L 1359.054545 268.971993 
L 1494.327273 301.63357 
" style="fill:none;stroke:#2ca02c;stroke-linecap:square;stroke-width:5;"/>
   </g>
   <g id="line2d_19">
    <path clip-path="url(#pb695bc7045)" d="M 276.872727 300.636487 
L 412.145455 523.803042 
L 547.418182 414.179737 
L 682.690909 560.919016 
L 817.963636 274.443765 
L 953.236364 302.909405 
L 1088.509091 566.909651 
L 1223.781818 302.575797 
L 1359.054545 256.837708 
L 1494.327273 301.370019 
" style="fill:none;stroke:#d62728;stroke-linecap:square;stroke-width:5;"/>
   </g>
   <g id="patch_3">
    <path d="M 216 864 
L 216 138.24 
" style="fill:none;stroke:#000000;stroke-linecap:square;stroke-linejoin:miter;stroke-width:0.8;"/>
   </g>
   <g id="patch_4">
    <path d="M 1555.2 864 
L 1555.2 138.24 
" style="fill:none;stroke:#000000;stroke-linecap:square;stroke-linejoin:miter;stroke-width:0.8;"/>
   </g>
   <g id="patch_5">
    <path d="M 216 864 
L 1555.2 864 
" style="fill:none;stroke:#000000;stroke-linecap:square;stroke-linejoin:miter;stroke-width:0.8;"/>
   </g>
   <g id="patch_6">
    <path d="M 216 138.24 
L 1555.2 138.24 
" style="fill:none;stroke:#000000;stroke-linecap:square;stroke-linejoin:miter;stroke-width:0.8;"/>
   </g>
   <g id="legend_1">
    <g id="patch_7">
     <path d="M 1560 501.12 
L 1674.96 501.12 
Q 1679.76 501.12 1679.76 496.32 
L 1679.76 352.7175 
Q 1679.76 347.9175 1674.96 347.9175 
L 1560 347.9175 
Q 1555.2 347.9175 1555.2 352.7175 
L 1555.2 496.32 
Q 1555.2 501.12 1560 501.12 
z
" style="fill:none;opacity:0;"/>
    </g>
    <g id="LineCollection_5">
     <path d="M 1588.8 384.44625 
L 1588.8 360.44625 
" style="fill:none;stroke:#1f77b4;stroke-width:5;"/>
    </g>
    <g id="line2d_20">
     <path d="M 1564.8 372.44625 
L 1612.8 372.44625 
" style="fill:none;stroke:#1f77b4;stroke-dasharray:18.5,8;stroke-dashoffset:0;stroke-width:5;"/>
    </g>
    <g id="line2d_21"/>
    <g id="text_17">
     <!-- $i_t \tilde{C}_t$ -->
     <defs>
      <path d="M 18.3125 75.984375 
L 27.296875 75.984375 
L 25.09375 64.59375 
L 16.109375 64.59375 
z
M 14.203125 54.6875 
L 23.1875 54.6875 
L 12.5 0 
L 3.515625 0 
z
" id="DejaVuSans-Oblique-69"/>
      <path d="M 42.28125 54.6875 
L 40.921875 47.703125 
L 23 47.703125 
L 17.1875 18.015625 
Q 16.890625 16.359375 16.75 15.234375 
Q 16.609375 14.109375 16.609375 13.484375 
Q 16.609375 10.359375 18.484375 8.9375 
Q 20.359375 7.515625 24.515625 7.515625 
L 33.59375 7.515625 
L 32.078125 0 
L 23.484375 0 
Q 15.484375 0 11.546875 3.125 
Q 7.625 6.25 7.625 12.59375 
Q 7.625 13.71875 7.765625 15.0625 
Q 7.90625 16.40625 8.203125 18.015625 
L 14.015625 47.703125 
L 6.390625 47.703125 
L 7.8125 54.6875 
L 15.28125 54.6875 
L 18.3125 70.21875 
L 27.296875 70.21875 
L 24.3125 54.6875 
z
" id="DejaVuSans-Oblique-74"/>
      <path d="M -25.328125 66.890625 
L -28.109375 69.578125 
Q -29.171875 70.5625 -29.984375 71.015625 
Q -30.796875 71.484375 -31.421875 71.484375 
Q -33.28125 71.484375 -34.15625 69.703125 
Q -35.03125 67.921875 -35.140625 63.921875 
L -41.234375 63.921875 
Q -41.140625 70.515625 -38.640625 74.09375 
Q -36.15625 77.6875 -31.71875 77.6875 
Q -29.859375 77.6875 -28.296875 77 
Q -26.734375 76.3125 -24.9375 74.703125 
L -22.140625 72.015625 
Q -21.078125 71.046875 -20.265625 70.578125 
Q -19.46875 70.125 -18.828125 70.125 
Q -16.96875 70.125 -16.09375 71.90625 
Q -15.21875 73.6875 -15.109375 77.6875 
L -9.015625 77.6875 
Q -9.109375 71.09375 -11.59375 67.5 
Q -14.09375 63.921875 -18.53125 63.921875 
Q -20.390625 63.921875 -21.953125 64.59375 
Q -23.515625 65.28125 -25.328125 66.890625 
z
" id="DejaVuSans-303"/>
      <path d="M 69.484375 67.28125 
L 67.484375 56.890625 
Q 62.796875 61.625 57.546875 63.921875 
Q 52.296875 66.21875 46.1875 66.21875 
Q 37.84375 66.21875 31.515625 62.203125 
Q 25.203125 58.203125 20.609375 50 
Q 17.671875 44.734375 16.125 38.84375 
Q 14.59375 32.953125 14.59375 27 
Q 14.59375 17.046875 19.75 11.8125 
Q 24.90625 6.59375 34.71875 6.59375 
Q 41.5 6.59375 47.75 8.765625 
Q 54 10.9375 59.90625 15.28125 
L 57.625 3.609375 
Q 51.8125 1.125 45.875 -0.140625 
Q 39.9375 -1.421875 33.984375 -1.421875 
Q 19.96875 -1.421875 12.078125 6.1875 
Q 4.203125 13.8125 4.203125 27.390625 
Q 4.203125 36.078125 7.203125 44.46875 
Q 10.203125 52.875 15.828125 59.8125 
Q 21.78125 67.1875 29.421875 70.703125 
Q 37.0625 74.21875 47.21875 74.21875 
Q 53.46875 74.21875 59.0625 72.484375 
Q 64.65625 70.75 69.484375 67.28125 
z
" id="DejaVuSans-Oblique-43"/>
     </defs>
     <g transform="translate(1632 380.84625)scale(0.24 -0.24)">
      <use transform="translate(0 0.515625)" xlink:href="#DejaVuSans-Oblique-69"/>
      <use transform="translate(27.783203 -15.890625)scale(0.7)" xlink:href="#DejaVuSans-Oblique-74"/>
      <use transform="translate(126.654297 23.3125)" xlink:href="#DejaVuSans-303"/>
      <use transform="translate(57.963867 0.515625)" xlink:href="#DejaVuSans-Oblique-43"/>
      <use transform="translate(128.745117 -15.890625)scale(0.7)" xlink:href="#DejaVuSans-Oblique-74"/>
     </g>
    </g>
    <g id="LineCollection_6">
     <path d="M 1588.8 419.67375 
L 1588.8 395.67375 
" style="fill:none;stroke:#ff7f0e;stroke-width:5;"/>
    </g>
    <g id="line2d_22">
     <path d="M 1564.8 407.67375 
L 1612.8 407.67375 
" style="fill:none;stroke:#ff7f0e;stroke-dasharray:18.5,8;stroke-dashoffset:0;stroke-width:5;"/>
    </g>
    <g id="line2d_23"/>
    <g id="text_18">
     <!-- $f_t$ -->
     <defs>
      <path d="M 47.796875 75.984375 
L 46.390625 68.5 
L 37.796875 68.5 
Q 32.90625 68.5 30.6875 66.578125 
Q 28.46875 64.65625 27.390625 59.515625 
L 26.421875 54.6875 
L 41.21875 54.6875 
L 39.890625 47.703125 
L 25.09375 47.703125 
L 15.828125 0 
L 6.78125 0 
L 16.109375 47.703125 
L 7.515625 47.703125 
L 8.796875 54.6875 
L 17.390625 54.6875 
L 18.109375 58.5 
Q 19.96875 68.171875 24.625 72.078125 
Q 29.296875 75.984375 39.3125 75.984375 
z
" id="DejaVuSans-Oblique-66"/>
     </defs>
     <g transform="translate(1632 416.07375)scale(0.24 -0.24)">
      <use transform="translate(0 0.015625)" xlink:href="#DejaVuSans-Oblique-66"/>
      <use transform="translate(35.205078 -16.390625)scale(0.7)" xlink:href="#DejaVuSans-Oblique-74"/>
     </g>
    </g>
    <g id="LineCollection_7">
     <path d="M 1588.8 454.90125 
L 1588.8 430.90125 
" style="fill:none;stroke:#2ca02c;stroke-width:5;"/>
    </g>
    <g id="line2d_24">
     <path d="M 1564.8 442.90125 
L 1612.8 442.90125 
" style="fill:none;stroke:#2ca02c;stroke-linecap:square;stroke-width:5;"/>
    </g>
    <g id="line2d_25"/>
    <g id="text_19">
     <!-- $h_t$ -->
     <defs>
      <path d="M 55.71875 33.015625 
L 49.3125 0 
L 40.28125 0 
L 46.6875 32.671875 
Q 47.125 34.96875 47.359375 36.71875 
Q 47.609375 38.484375 47.609375 39.5 
Q 47.609375 43.609375 45.015625 45.890625 
Q 42.4375 48.1875 37.796875 48.1875 
Q 30.5625 48.1875 25.265625 43.296875 
Q 19.96875 38.421875 18.40625 30.328125 
L 12.5 0 
L 3.515625 0 
L 18.3125 75.984375 
L 27.296875 75.984375 
L 21.484375 46.09375 
Q 24.90625 50.6875 30.21875 53.34375 
Q 35.546875 56 41.40625 56 
Q 48.640625 56 52.609375 52.09375 
Q 56.59375 48.1875 56.59375 41.109375 
Q 56.59375 39.359375 56.375 37.359375 
Q 56.15625 35.359375 55.71875 33.015625 
z
" id="DejaVuSans-Oblique-68"/>
     </defs>
     <g transform="translate(1632 451.30125)scale(0.24 -0.24)">
      <use transform="translate(0 0.015625)" xlink:href="#DejaVuSans-Oblique-68"/>
      <use transform="translate(63.378906 -16.390625)scale(0.7)" xlink:href="#DejaVuSans-Oblique-74"/>
     </g>
    </g>
    <g id="LineCollection_8">
     <path d="M 1588.8 490.12875 
L 1588.8 466.12875 
" style="fill:none;stroke:#d62728;stroke-width:5;"/>
    </g>
    <g id="line2d_26">
     <path d="M 1564.8 478.12875 
L 1612.8 478.12875 
" style="fill:none;stroke:#d62728;stroke-linecap:square;stroke-width:5;"/>
    </g>
    <g id="line2d_27"/>
    <g id="text_20">
     <!-- $C_t$ -->
     <g transform="translate(1632 486.52875)scale(0.24 -0.24)">
      <use transform="translate(0 0.78125)" xlink:href="#DejaVuSans-Oblique-43"/>
      <use transform="translate(69.824219 -15.625)scale(0.7)" xlink:href="#DejaVuSans-Oblique-74"/>
     </g>
    </g>
   </g>
  </g>
 </g>
 <defs>
  <clipPath id="pb695bc7045">
   <rect height="725.76" width="1339.2" x="216" y="138.24"/>
  </clipPath>
 </defs>
</svg>
