<?xml version="1.0" standalone="no"?><!-- Generator: Gravit.io --><svg xmlns="http://www.w3.org/2000/svg" xmlns:xlink="http://www.w3.org/1999/xlink" style="isolation:isolate" viewBox="0 0 2979.921 4212.992" width="2979.921" height="4212.992"><defs><clipPath id="_clipPath_8LPz77NmFMNGbtuVvGiANPWv5zT3QuQD"><rect width="2979.921" height="4212.992"/></clipPath></defs><g clip-path="url(#_clipPath_8LPz77NmFMNGbtuVvGiANPWv5zT3QuQD)"><rect x="0.004" y="0" width="2979.914" height="4212.979" transform="matrix(1,0,0,1,0,0)" fill="rgb(229,229,229)"/><g id="g34932"><path d="M 377.522 76.574 L 2528.273 76.574 C 2562.121 76.574 2589.601 104.054 2589.601 137.901 L 2589.601 313.607 C 2589.601 347.455 2562.121 374.935 2528.273 374.935 L 377.522 374.935 C 343.674 374.935 316.194 347.455 316.194 313.607 L 316.194 137.901 C 316.194 104.054 343.674 76.574 377.522 76.574 Z" style="stroke:none;fill:#FFFFFF;stroke-miterlimit:10;"/><path d="M 377.522 76.574 L 2528.273 76.574 C 2562.121 76.574 2589.601 104.054 2589.601 137.901 L 2589.601 313.607 C 2589.601 347.455 2562.121 374.935 2528.273 374.935 L 377.522 374.935 C 343.674 374.935 316.194 347.455 316.194 313.607 L 316.194 137.901 C 316.194 104.054 343.674 76.574 377.522 76.574 Z" style="fill:none;stroke:#000000;stroke-width:3.048136046017149;stroke-linecap:square;"/><g transform="matrix(1.497,0,0,1.488,584.421,95.538)"><text transform="matrix(1,0,0,1,0,35.94)" style="font-family:&quot;Oxygen&quot;;font-weight:700;font-size:35px;font-style:normal;fill:#000000;stroke:none;">Representations of syntactic structures and features in LSTM networks</text></g></g><g id="g22014"><g id="g17364"><path d="M 166.637 2639 L 2813.286 2639 C 2834.671 2639 2852.033 2656.362 2852.033 2677.747 L 2852.033 4043.284 C 2852.033 4064.669 2834.671 4082.031 2813.286 4082.031 L 166.637 4082.031 C 145.251 4082.031 127.889 4064.669 127.889 4043.284 L 127.889 2677.747 C 127.889 2656.362 145.251 2639 166.637 2639 Z" style="stroke:none;fill:#FFFFFF;stroke-linecap:square;"/><path d="M 166.637 2639 L 2813.286 2639 C 2834.671 2639 2852.033 2656.362 2852.033 2677.747 L 2852.033 4043.284 C 2852.033 4064.669 2834.671 4082.031 2813.286 4082.031 L 166.637 4082.031 C 145.251 4082.031 127.889 4064.669 127.889 4043.284 L 127.889 2677.747 C 127.889 2656.362 145.251 2639 166.637 2639 Z" style="fill:none;stroke:#666666;stroke-width:2.550220556949578;stroke-linecap:square;"/></g></g><g id="g22014"><g id="g17364"><path d="M 166.637 1138 L 2813.286 1138 C 2834.671 1138 2852.033 1155.362 2852.033 1176.747 L 2852.033 2542.284 C 2852.033 2563.669 2834.671 2581.031 2813.286 2581.031 L 166.637 2581.031 C 145.251 2581.031 127.889 2563.669 127.889 2542.284 L 127.889 1176.747 C 127.889 1155.362 145.251 1138 166.637 1138 Z" style="stroke:none;fill:#FFFFFF;stroke-linecap:square;"/><path d="M 166.637 1138 L 2813.286 1138 C 2834.671 1138 2852.033 1155.362 2852.033 1176.747 L 2852.033 2542.284 C 2852.033 2563.669 2834.671 2581.031 2813.286 2581.031 L 166.637 2581.031 C 145.251 2581.031 127.889 2563.669 127.889 2542.284 L 127.889 1176.747 C 127.889 1155.362 145.251 1138 166.637 1138 Z" style="fill:none;stroke:#666666;stroke-width:2.550220556949578;stroke-linecap:square;"/></g></g></g></svg>